<ttFont>
    <TTGlyph name=".notdef" xMin="166" yMin="0" xMax="1156" yMax="1398">
      <contour>
        <pt x="166" y="0" on="1"/>
        <pt x="166" y="1398" on="1"/>
        <pt x="1156" y="1398" on="1"/>
        <pt x="1156" y="0" on="1"/>
      </contour>
      <contour>
        <pt x="314" y="148" on="1"/>
        <pt x="1008" y="148" on="1"/>
        <pt x="1008" y="1250" on="1"/>
        <pt x="314" y="1250" on="1"/>
      </contour>
    </TTGlyph>
    <TTGlyph name="uni0E01" xMin="133" yMin="0" xMax="1100" yMax="1147">
      <contour>
        <pt x="166" y="0" on="1"/>
        <pt x="166" y="393" on="1"/>
        <pt x="166" y="446" on="0"/>
        <pt x="190" y="530" on="0"/>
        <pt x="243" y="593" on="0"/>
        <pt x="327" y="636" on="0"/>
        <pt x="387" y="649" on="1"/>
        <pt x="362" y="670" on="0"/>
        <pt x="289" y="700" on="0"/>
        <pt x="214" y="720" on="0"/>
        <pt x="149" y="729" on="0"/>
        <pt x="133" y="729" on="1"/>
        <pt x="137" y="821" on="0"/>
        <pt x="196" y="975" on="0"/>
        <pt x="313" y="1086" on="0"/>
        <pt x="491" y="1147" on="0"/>
        <pt x="614" y="1147" on="1"/>
        <pt x="754" y="1147" on="0"/>
        <pt x="941" y="1080" on="0"/>
        <pt x="1053" y="960" on="0"/>
        <pt x="1100" y="794" on="0"/>
        <pt x="1100" y="696" on="1"/>
        <pt x="1100" y="0" on="1"/>
        <pt x="932" y="0" on="1"/>
        <pt x="932" y="684" on="1"/>
        <pt x="932" y="760" on="0"/>
        <pt x="898" y="881" on="0"/>
        <pt x="823" y="966" on="0"/>
        <pt x="702" y="1011" on="0"/>
        <pt x="614" y="1011" on="1"/>
        <pt x="533" y="1011" on="0"/>
        <pt x="421" y="976" on="0"/>
        <pt x="349" y="919" on="0"/>
        <pt x="311" y="847" on="0"/>
        <pt x="305" y="811" on="1"/>
        <pt x="345" y="805" on="0"/>
        <pt x="421" y="777" on="0"/>
        <pt x="486" y="741" on="0"/>
        <pt x="536" y="700" on="0"/>
        <pt x="551" y="682" on="1"/>
        <pt x="551" y="625" on="1"/>
        <pt x="494" y="613" on="0"/>
        <pt x="411" y="577" on="0"/>
        <pt x="359" y="522" on="0"/>
        <pt x="334" y="444" on="0"/>
        <pt x="334" y="391" on="1"/>
        <pt x="334" y="0" on="1"/>
      </contour>
    </TTGlyph>
    <TTGlyph name="uni0E02" xMin="57" yMin="0" xMax="1188" yMax="1147">
      <contour>
        <pt x="337" y="135" on="1"/>
        <pt x="500" y="135" on="1"/>
        <pt x="500" y="526" on="1"/>
        <pt x="500" y="585" on="0"/>
        <pt x="522" y="678" on="0"/>
        <pt x="567" y="756" on="0"/>
        <pt x="635" y="821" on="0"/>
        <pt x="682" y="852" on="1"/>
        <pt x="682" y="878" on="0"/>
        <pt x="662" y="940" on="0"/>
        <pt x="609" y="994" on="0"/>
        <pt x="518" y="1030" on="0"/>
        <pt x="446" y="1030" on="1"/>
        <pt x="379" y="1030" on="0"/>
        <pt x="279" y="998" on="0"/>
        <pt x="213" y="943" on="0"/>
        <pt x="180" y="868" on="0"/>
        <pt x="180" y="825" on="1"/>
        <pt x="199" y="848" on="0"/>
        <pt x="262" y="879" on="0"/>
        <pt x="299" y="879" on="1"/>
        <pt x="331" y="879" on="0"/>
        <pt x="390" y="859" on="0"/>
        <pt x="435" y="817" on="0"/>
        <pt x="461" y="753" on="0"/>
        <pt x="461" y="709" on="1"/>
        <pt x="461" y="667" on="0"/>
        <pt x="433" y="604" on="0"/>
        <pt x="385" y="561" on="0"/>
        <pt x="318" y="539" on="0"/>
        <pt x="279" y="539" on="1"/>
        <pt x="222" y="539" on="0"/>
        <pt x="138" y="579" on="0"/>
        <pt x="84" y="651" on="0"/>
        <pt x="57" y="751" on="0"/>
        <pt x="57" y="811" on="1"/>
        <pt x="57" y="879" on="0"/>
        <pt x="100" y="1001" on="0"/>
        <pt x="194" y="1093" on="0"/>
        <pt x="342" y="1147" on="0"/>
        <pt x="446" y="1147" on="1"/>
        <pt x="550" y="1147" on="0"/>
        <pt x="702" y="1100" on="0"/>
        <pt x="802" y="1020" on="0"/>
        <pt x="850" y="912" on="0"/>
        <pt x="850" y="850" on="1"/>
        <pt x="799" y="810" on="0"/>
        <pt x="729" y="738" on="0"/>
        <pt x="686" y="663" on="0"/>
        <pt x="668" y="579" on="0"/>
        <pt x="668" y="526" on="1"/>
        <pt x="668" y="135" on="1"/>
        <pt x="776" y="135" on="1"/>
        <pt x="901" y="135" on="0"/>
        <pt x="1020" y="254" on="0"/>
        <pt x="1020" y="389" on="1"/>
        <pt x="1020" y="1126" on="1"/>
        <pt x="1188" y="1126" on="1"/>
        <pt x="1188" y="354" on="1"/>
        <pt x="1188" y="275" on="0"/>
        <pt x="1144" y="144" on="0"/>
        <pt x="1057" y="51" on="0"/>
        <pt x="928" y="0" on="0"/>
        <pt x="842" y="0" on="1"/>
        <pt x="337" y="0" on="1"/>
      </contour>
      <contour>
        <pt x="355" y="709" on="1"/>
        <pt x="355" y="743" on="0"/>
        <pt x="311" y="783" on="0"/>
        <pt x="276" y="783" on="1"/>
        <pt x="243" y="783" on="0"/>
        <pt x="200" y="743" on="0"/>
        <pt x="200" y="709" on="1"/>
        <pt x="200" y="674" on="0"/>
        <pt x="243" y="632" on="0"/>
        <pt x="276" y="632" on="1"/>
        <pt x="311" y="632" on="0"/>
        <pt x="355" y="674" on="0"/>
      </contour>
    </TTGlyph>
    <TTGlyph name="uni0E03" xMin="57" yMin="0" xMax="1188" yMax="1141">
      <contour>
        <pt x="337" y="135" on="1"/>
        <pt x="500" y="135" on="1"/>
        <pt x="500" y="526" on="1"/>
        <pt x="500" y="567" on="0"/>
        <pt x="511" y="650" on="0"/>
        <pt x="549" y="730" on="0"/>
        <pt x="621" y="807" on="0"/>
        <pt x="682" y="841" on="1"/>
        <pt x="682" y="862" on="0"/>
        <pt x="675" y="912" on="0"/>
        <pt x="654" y="959" on="0"/>
        <pt x="613" y="997" on="0"/>
        <pt x="578" y="1005" on="1"/>
        <pt x="434" y="878" on="1"/>
        <pt x="289" y="1007" on="1"/>
        <pt x="252" y="998" on="0"/>
        <pt x="209" y="955" on="0"/>
        <pt x="186" y="901" on="0"/>
        <pt x="180" y="846" on="0"/>
        <pt x="180" y="825" on="1"/>
        <pt x="199" y="848" on="0"/>
        <pt x="262" y="879" on="0"/>
        <pt x="299" y="879" on="1"/>
        <pt x="331" y="879" on="0"/>
        <pt x="390" y="859" on="0"/>
        <pt x="435" y="817" on="0"/>
        <pt x="461" y="753" on="0"/>
        <pt x="461" y="709" on="1"/>
        <pt x="461" y="667" on="0"/>
        <pt x="433" y="604" on="0"/>
        <pt x="385" y="561" on="0"/>
        <pt x="318" y="539" on="0"/>
        <pt x="279" y="539" on="1"/>
        <pt x="222" y="539" on="0"/>
        <pt x="138" y="581" on="0"/>
        <pt x="84" y="653" on="0"/>
        <pt x="57" y="751" on="0"/>
        <pt x="57" y="807" on="1"/>
        <pt x="57" y="864" on="0"/>
        <pt x="84" y="973" on="0"/>
        <pt x="143" y="1064" on="0"/>
        <pt x="235" y="1129" on="0"/>
        <pt x="299" y="1141" on="1"/>
        <pt x="434" y="1018" on="1"/>
        <pt x="569" y="1141" on="1"/>
        <pt x="648" y="1131" on="0"/>
        <pt x="756" y="1074" on="0"/>
        <pt x="822" y="993" on="0"/>
        <pt x="850" y="893" on="0"/>
        <pt x="850" y="839" on="1"/>
        <pt x="791" y="799" on="0"/>
        <pt x="719" y="722" on="0"/>
        <pt x="680" y="644" on="0"/>
        <pt x="668" y="566" on="0"/>
        <pt x="668" y="526" on="1"/>
        <pt x="668" y="135" on="1"/>
        <pt x="776" y="135" on="1"/>
        <pt x="901" y="135" on="0"/>
        <pt x="1020" y="254" on="0"/>
        <pt x="1020" y="389" on="1"/>
        <pt x="1020" y="1126" on="1"/>
        <pt x="1188" y="1126" on="1"/>
        <pt x="1188" y="354" on="1"/>
        <pt x="1188" y="275" on="0"/>
        <pt x="1144" y="144" on="0"/>
        <pt x="1057" y="51" on="0"/>
        <pt x="928" y="0" on="0"/>
        <pt x="842" y="0" on="1"/>
        <pt x="337" y="0" on="1"/>
      </contour>
      <contour>
        <pt x="355" y="709" on="1"/>
        <pt x="355" y="743" on="0"/>
        <pt x="311" y="783" on="0"/>
        <pt x="276" y="783" on="1"/>
        <pt x="243" y="783" on="0"/>
        <pt x="200" y="743" on="0"/>
        <pt x="200" y="709" on="1"/>
        <pt x="200" y="674" on="0"/>
        <pt x="243" y="632" on="0"/>
        <pt x="276" y="632" on="1"/>
        <pt x="311" y="632" on="0"/>
        <pt x="355" y="674" on="0"/>
      </contour>
    </TTGlyph>
    <TTGlyph name="uni0E04" xMin="113" yMin="0" xMax="1155" yMax="1147">
      <contour>
        <pt x="510" y="436" on="1"/>
        <pt x="500" y="426" on="0"/>
        <pt x="453" y="368" on="0"/>
        <pt x="404" y="275" on="0"/>
        <pt x="366" y="146" on="0"/>
        <pt x="365" y="65" on="1"/>
        <pt x="365" y="41" on="1"/>
        <pt x="365" y="0" on="1"/>
        <pt x="197" y="0" on="1"/>
        <pt x="197" y="119" on="1"/>
        <pt x="197" y="200" on="0"/>
        <pt x="185" y="325" on="0"/>
        <pt x="166" y="427" on="0"/>
        <pt x="144" y="511" on="0"/>
        <pt x="125" y="593" on="0"/>
        <pt x="113" y="678" on="0"/>
        <pt x="113" y="729" on="1"/>
        <pt x="113" y="823" on="0"/>
        <pt x="185" y="977" on="0"/>
        <pt x="321" y="1087" on="0"/>
        <pt x="516" y="1147" on="0"/>
        <pt x="639" y="1147" on="1"/>
        <pt x="779" y="1147" on="0"/>
        <pt x="975" y="1080" on="0"/>
        <pt x="1099" y="960" on="0"/>
        <pt x="1155" y="794" on="0"/>
        <pt x="1155" y="696" on="1"/>
        <pt x="1155" y="0" on="1"/>
        <pt x="987" y="0" on="1"/>
        <pt x="987" y="684" on="1"/>
        <pt x="987" y="760" on="0"/>
        <pt x="944" y="881" on="0"/>
        <pt x="857" y="966" on="0"/>
        <pt x="726" y="1011" on="0"/>
        <pt x="639" y="1011" on="1"/>
        <pt x="555" y="1011" on="0"/>
        <pt x="422" y="972" on="0"/>
        <pt x="329" y="900" on="0"/>
        <pt x="279" y="797" on="0"/>
        <pt x="279" y="733" on="1"/>
        <pt x="279" y="687" on="0"/>
        <pt x="289" y="599" on="0"/>
        <pt x="306" y="510" on="0"/>
        <pt x="326" y="418" on="0"/>
        <pt x="335" y="367" on="1"/>
        <pt x="359" y="450" on="0"/>
        <pt x="417" y="594" on="0"/>
        <pt x="492" y="700" on="0"/>
        <pt x="587" y="760" on="0"/>
        <pt x="649" y="760" on="1"/>
        <pt x="746" y="760" on="0"/>
        <pt x="852" y="659" on="0"/>
        <pt x="852" y="569" on="1"/>
        <pt x="852" y="478" on="0"/>
        <pt x="748" y="379" on="0"/>
        <pt x="649" y="379" on="1"/>
        <pt x="604" y="379" on="0"/>
        <pt x="529" y="413" on="0"/>
      </contour>
      <contour>
        <pt x="744" y="569" on="1"/>
        <pt x="744" y="614" on="0"/>
        <pt x="691" y="663" on="0"/>
        <pt x="647" y="663" on="1"/>
        <pt x="606" y="663" on="0"/>
        <pt x="552" y="614" on="0"/>
        <pt x="552" y="569" on="1"/>
        <pt x="552" y="527" on="0"/>
        <pt x="606" y="476" on="0"/>
        <pt x="647" y="476" on="1"/>
        <pt x="691" y="476" on="0"/>
        <pt x="744" y="527" on="0"/>
      </contour>
    </TTGlyph>
    <TTGlyph name="uni0E05" xMin="113" yMin="0" xMax="1155" yMax="1143">
      <contour>
        <pt x="510" y="436" on="1"/>
        <pt x="500" y="426" on="0"/>
        <pt x="453" y="369" on="0"/>
        <pt x="405" y="278" on="0"/>
        <pt x="367" y="153" on="0"/>
        <pt x="365" y="73" on="1"/>
        <pt x="365" y="0" on="1"/>
        <pt x="197" y="0" on="1"/>
        <pt x="197" y="119" on="1"/>
        <pt x="197" y="200" on="0"/>
        <pt x="185" y="325" on="0"/>
        <pt x="166" y="427" on="0"/>
        <pt x="144" y="511" on="0"/>
        <pt x="125" y="593" on="0"/>
        <pt x="113" y="678" on="0"/>
        <pt x="113" y="729" on="1"/>
        <pt x="113" y="812" on="0"/>
        <pt x="148" y="941" on="0"/>
        <pt x="229" y="1041" on="0"/>
        <pt x="363" y="1115" on="0"/>
        <pt x="461" y="1143" on="1"/>
        <pt x="637" y="997" on="1"/>
        <pt x="813" y="1143" on="1"/>
        <pt x="916" y="1114" on="0"/>
        <pt x="1048" y="1037" on="0"/>
        <pt x="1125" y="931" on="0"/>
        <pt x="1155" y="790" on="0"/>
        <pt x="1155" y="696" on="1"/>
        <pt x="1155" y="0" on="1"/>
        <pt x="987" y="0" on="1"/>
        <pt x="987" y="684" on="1"/>
        <pt x="987" y="755" on="0"/>
        <pt x="972" y="851" on="0"/>
        <pt x="933" y="919" on="0"/>
        <pt x="865" y="966" on="0"/>
        <pt x="813" y="987" on="1"/>
        <pt x="637" y="844" on="1"/>
        <pt x="459" y="987" on="1"/>
        <pt x="409" y="967" on="0"/>
        <pt x="340" y="921" on="0"/>
        <pt x="298" y="861" on="0"/>
        <pt x="279" y="784" on="0"/>
        <pt x="279" y="733" on="1"/>
        <pt x="279" y="638" on="0"/>
        <pt x="317" y="461" on="0"/>
        <pt x="336" y="371" on="1"/>
        <pt x="360" y="454" on="0"/>
        <pt x="418" y="596" on="0"/>
        <pt x="493" y="700" on="0"/>
        <pt x="588" y="760" on="0"/>
        <pt x="649" y="760" on="1"/>
        <pt x="746" y="760" on="0"/>
        <pt x="852" y="659" on="0"/>
        <pt x="852" y="569" on="1"/>
        <pt x="852" y="478" on="0"/>
        <pt x="748" y="379" on="0"/>
        <pt x="649" y="379" on="1"/>
        <pt x="604" y="379" on="0"/>
        <pt x="529" y="413" on="0"/>
      </contour>
      <contour>
        <pt x="744" y="569" on="1"/>
        <pt x="744" y="614" on="0"/>
        <pt x="691" y="663" on="0"/>
        <pt x="647" y="663" on="1"/>
        <pt x="606" y="663" on="0"/>
        <pt x="552" y="614" on="0"/>
        <pt x="552" y="569" on="1"/>
        <pt x="552" y="527" on="0"/>
        <pt x="606" y="476" on="0"/>
        <pt x="647" y="476" on="1"/>
        <pt x="691" y="476" on="0"/>
        <pt x="744" y="527" on="0"/>
      </contour>
    </TTGlyph>
    <TTGlyph name="uni0E06" xMin="57" yMin="-18" xMax="1188" yMax="1141">
      <contour>
        <pt x="355" y="709" on="1"/>
        <pt x="355" y="743" on="0"/>
        <pt x="311" y="783" on="0"/>
        <pt x="276" y="783" on="1"/>
        <pt x="243" y="783" on="0"/>
        <pt x="200" y="743" on="0"/>
        <pt x="200" y="709" on="1"/>
        <pt x="200" y="674" on="0"/>
        <pt x="243" y="632" on="0"/>
        <pt x="276" y="632" on="1"/>
        <pt x="311" y="632" on="0"/>
        <pt x="355" y="674" on="0"/>
      </contour>
      <contour>
        <pt x="359" y="172" on="1"/>
        <pt x="359" y="129" on="0"/>
        <pt x="400" y="86" on="0"/>
        <pt x="432" y="86" on="1"/>
        <pt x="470" y="86" on="0"/>
        <pt x="500" y="133" on="0"/>
        <pt x="500" y="178" on="1"/>
        <pt x="500" y="291" on="1"/>
        <pt x="426" y="280" on="0"/>
        <pt x="359" y="219" on="0"/>
      </contour>
      <contour>
        <pt x="668" y="211" on="1"/>
        <pt x="668" y="154" on="0"/>
        <pt x="646" y="68" on="0"/>
        <pt x="597" y="11" on="0"/>
        <pt x="517" y="-18" on="0"/>
        <pt x="458" y="-18" on="1"/>
        <pt x="350" y="-18" on="0"/>
        <pt x="242" y="82" on="0"/>
        <pt x="242" y="172" on="1"/>
        <pt x="242" y="214" on="0"/>
        <pt x="270" y="288" on="0"/>
        <pt x="332" y="346" on="0"/>
        <pt x="430" y="386" on="0"/>
        <pt x="500" y="394" on="1"/>
        <pt x="500" y="526" on="1"/>
        <pt x="500" y="567" on="0"/>
        <pt x="511" y="650" on="0"/>
        <pt x="549" y="730" on="0"/>
        <pt x="621" y="807" on="0"/>
        <pt x="682" y="841" on="1"/>
        <pt x="682" y="862" on="0"/>
        <pt x="675" y="912" on="0"/>
        <pt x="654" y="959" on="0"/>
        <pt x="613" y="997" on="0"/>
        <pt x="578" y="1005" on="1"/>
        <pt x="434" y="878" on="1"/>
        <pt x="289" y="1007" on="1"/>
        <pt x="252" y="998" on="0"/>
        <pt x="209" y="955" on="0"/>
        <pt x="186" y="901" on="0"/>
        <pt x="180" y="846" on="0"/>
        <pt x="180" y="825" on="1"/>
        <pt x="199" y="848" on="0"/>
        <pt x="262" y="879" on="0"/>
        <pt x="299" y="879" on="1"/>
        <pt x="331" y="879" on="0"/>
        <pt x="390" y="859" on="0"/>
        <pt x="435" y="817" on="0"/>
        <pt x="461" y="753" on="0"/>
        <pt x="461" y="709" on="1"/>
        <pt x="461" y="667" on="0"/>
        <pt x="433" y="604" on="0"/>
        <pt x="385" y="561" on="0"/>
        <pt x="318" y="539" on="0"/>
        <pt x="279" y="539" on="1"/>
        <pt x="222" y="539" on="0"/>
        <pt x="138" y="581" on="0"/>
        <pt x="84" y="653" on="0"/>
        <pt x="57" y="751" on="0"/>
        <pt x="57" y="807" on="1"/>
        <pt x="57" y="864" on="0"/>
        <pt x="84" y="973" on="0"/>
        <pt x="143" y="1064" on="0"/>
        <pt x="235" y="1129" on="0"/>
        <pt x="299" y="1141" on="1"/>
        <pt x="434" y="1018" on="1"/>
        <pt x="569" y="1141" on="1"/>
        <pt x="648" y="1131" on="0"/>
        <pt x="756" y="1074" on="0"/>
        <pt x="822" y="993" on="0"/>
        <pt x="850" y="893" on="0"/>
        <pt x="850" y="839" on="1"/>
        <pt x="791" y="799" on="0"/>
        <pt x="719" y="722" on="0"/>
        <pt x="680" y="644" on="0"/>
        <pt x="668" y="566" on="0"/>
        <pt x="668" y="526" on="1"/>
        <pt x="668" y="388" on="1"/>
        <pt x="770" y="374" on="0"/>
        <pt x="955" y="277" on="0"/>
        <pt x="1020" y="197" on="1"/>
        <pt x="1020" y="1126" on="1"/>
        <pt x="1188" y="1126" on="1"/>
        <pt x="1188" y="0" on="1"/>
        <pt x="1020" y="0" on="1"/>
        <pt x="989" y="50" on="0"/>
        <pt x="909" y="142" on="0"/>
        <pt x="817" y="217" on="0"/>
        <pt x="718" y="269" on="0"/>
        <pt x="668" y="279" on="1"/>
      </contour>
    </TTGlyph>
    <TTGlyph name="uni0E07" xMin="49" yMin="-20" xMax="805" yMax="1137">
      <contour>
        <pt x="588" y="756" on="1"/>
        <pt x="498" y="756" on="0"/>
        <pt x="397" y="855" on="0"/>
        <pt x="397" y="946" on="1"/>
        <pt x="397" y="1036" on="0"/>
        <pt x="503" y="1137" on="0"/>
        <pt x="600" y="1137" on="1"/>
        <pt x="699" y="1137" on="0"/>
        <pt x="805" y="1036" on="0"/>
        <pt x="805" y="946" on="1"/>
        <pt x="805" y="252" on="1"/>
        <pt x="805" y="116" on="0"/>
        <pt x="674" y="-20" on="0"/>
        <pt x="528" y="-20" on="1"/>
        <pt x="452" y="-20" on="0"/>
        <pt x="354" y="18" on="0"/>
        <pt x="286" y="102" on="0"/>
        <pt x="236" y="236" on="0"/>
        <pt x="209" y="332" on="1"/>
        <pt x="183" y="427" on="0"/>
        <pt x="147" y="532" on="0"/>
        <pt x="114" y="583" on="0"/>
        <pt x="77" y="594" on="0"/>
        <pt x="49" y="594" on="1"/>
        <pt x="49" y="737" on="1"/>
        <pt x="100" y="737" on="0"/>
        <pt x="176" y="726" on="0"/>
        <pt x="232" y="697" on="0"/>
        <pt x="274" y="648" on="0"/>
        <pt x="309" y="572" on="0"/>
        <pt x="342" y="466" on="0"/>
        <pt x="361" y="395" on="1"/>
        <pt x="386" y="301" on="0"/>
        <pt x="426" y="190" on="0"/>
        <pt x="465" y="131" on="0"/>
        <pt x="505" y="113" on="0"/>
        <pt x="530" y="113" on="1"/>
        <pt x="581" y="113" on="0"/>
        <pt x="637" y="168" on="0"/>
        <pt x="637" y="236" on="1"/>
        <pt x="637" y="760" on="1"/>
        <pt x="632" y="758" on="0"/>
        <pt x="600" y="756" on="0"/>
      </contour>
      <contour>
        <pt x="505" y="946" on="1"/>
        <pt x="505" y="904" on="0"/>
        <pt x="558" y="853" on="0"/>
        <pt x="602" y="853" on="1"/>
        <pt x="643" y="853" on="0"/>
        <pt x="697" y="904" on="0"/>
        <pt x="697" y="946" on="1"/>
        <pt x="697" y="990" on="0"/>
        <pt x="643" y="1040" on="0"/>
        <pt x="602" y="1040" on="1"/>
        <pt x="558" y="1040" on="0"/>
        <pt x="505" y="990" on="0"/>
      </contour>
    </TTGlyph>
    <TTGlyph name="uni0E08" xMin="94" yMin="-20" xMax="1024" yMax="1147">
      <contour>
        <pt x="762" y="-20" on="1"/>
        <pt x="694" y="-20" on="0"/>
        <pt x="603" y="3" on="0"/>
        <pt x="537" y="60" on="0"/>
        <pt x="486" y="155" on="0"/>
        <pt x="459" y="227" on="1"/>
        <pt x="406" y="367" on="1"/>
        <pt x="389" y="360" on="0"/>
        <pt x="333" y="348" on="0"/>
        <pt x="313" y="348" on="1"/>
        <pt x="214" y="348" on="0"/>
        <pt x="111" y="448" on="0"/>
        <pt x="111" y="539" on="1"/>
        <pt x="111" y="628" on="0"/>
        <pt x="216" y="729" on="0"/>
        <pt x="313" y="729" on="1"/>
        <pt x="360" y="729" on="0"/>
        <pt x="427" y="703" on="0"/>
        <pt x="479" y="648" on="0"/>
        <pt x="522" y="561" on="0"/>
        <pt x="545" y="500" on="1"/>
        <pt x="641" y="246" on="1"/>
        <pt x="667" y="178" on="0"/>
        <pt x="720" y="123" on="0"/>
        <pt x="760" y="123" on="1"/>
        <pt x="802" y="123" on="0"/>
        <pt x="856" y="177" on="0"/>
        <pt x="856" y="246" on="1"/>
        <pt x="856" y="719" on="1"/>
        <pt x="856" y="782" on="0"/>
        <pt x="816" y="888" on="0"/>
        <pt x="737" y="965" on="0"/>
        <pt x="619" y="1008" on="0"/>
        <pt x="541" y="1008" on="1"/>
        <pt x="448" y="1008" on="0"/>
        <pt x="259" y="942" on="0"/>
        <pt x="172" y="884" on="1"/>
        <pt x="94" y="1008" on="1"/>
        <pt x="185" y="1069" on="0"/>
        <pt x="403" y="1147" on="0"/>
        <pt x="541" y="1147" on="1"/>
        <pt x="654" y="1147" on="0"/>
        <pt x="833" y="1088" on="0"/>
        <pt x="958" y="979" on="0"/>
        <pt x="1024" y="826" on="0"/>
        <pt x="1024" y="731" on="1"/>
        <pt x="1024" y="252" on="1"/>
        <pt x="1024" y="184" on="0"/>
        <pt x="997" y="82" on="0"/>
        <pt x="935" y="14" on="0"/>
        <pt x="835" y="-20" on="0"/>
      </contour>
      <contour>
        <pt x="218" y="539" on="1"/>
        <pt x="218" y="496" on="0"/>
        <pt x="271" y="446" on="0"/>
        <pt x="315" y="446" on="1"/>
        <pt x="357" y="446" on="0"/>
        <pt x="410" y="496" on="0"/>
        <pt x="410" y="539" on="1"/>
        <pt x="410" y="583" on="0"/>
        <pt x="357" y="633" on="0"/>
        <pt x="315" y="633" on="1"/>
        <pt x="271" y="633" on="0"/>
        <pt x="218" y="583" on="0"/>
      </contour>
    </TTGlyph>
    <TTGlyph name="uni0E09" xMin="86" yMin="-18" xMax="1282" yMax="1147">
      <contour>
        <pt x="194" y="573" on="1"/>
        <pt x="194" y="531" on="0"/>
        <pt x="247" y="480" on="0"/>
        <pt x="291" y="480" on="1"/>
        <pt x="332" y="480" on="0"/>
        <pt x="386" y="531" on="0"/>
        <pt x="386" y="573" on="1"/>
        <pt x="386" y="617" on="0"/>
        <pt x="332" y="667" on="0"/>
        <pt x="291" y="667" on="1"/>
        <pt x="247" y="667" on="0"/>
        <pt x="194" y="617" on="0"/>
      </contour>
      <contour>
        <pt x="1024" y="394" on="1"/>
        <pt x="1094" y="386" on="0"/>
        <pt x="1192" y="346" on="0"/>
        <pt x="1254" y="288" on="0"/>
        <pt x="1282" y="214" on="0"/>
        <pt x="1282" y="172" on="1"/>
        <pt x="1282" y="82" on="0"/>
        <pt x="1174" y="-18" on="0"/>
        <pt x="1066" y="-18" on="1"/>
        <pt x="1008" y="-18" on="0"/>
        <pt x="927" y="11" on="0"/>
        <pt x="878" y="68" on="0"/>
        <pt x="856" y="154" on="0"/>
        <pt x="856" y="211" on="1"/>
        <pt x="856" y="279" on="1"/>
        <pt x="806" y="269" on="0"/>
        <pt x="703" y="217" on="0"/>
        <pt x="608" y="142" on="0"/>
        <pt x="524" y="50" on="0"/>
        <pt x="494" y="0" on="1"/>
        <pt x="326" y="0" on="1"/>
        <pt x="326" y="386" on="1"/>
        <pt x="321" y="384" on="0"/>
        <pt x="289" y="382" on="0"/>
        <pt x="276" y="382" on="1"/>
        <pt x="187" y="382" on="0"/>
        <pt x="86" y="482" on="0"/>
        <pt x="86" y="573" on="1"/>
        <pt x="86" y="663" on="0"/>
        <pt x="192" y="763" on="0"/>
        <pt x="289" y="763" on="1"/>
        <pt x="388" y="763" on="0"/>
        <pt x="494" y="663" on="0"/>
        <pt x="494" y="573" on="1"/>
        <pt x="494" y="197" on="1"/>
        <pt x="526" y="237" on="0"/>
        <pt x="609" y="301" on="0"/>
        <pt x="704" y="349" on="0"/>
        <pt x="805" y="381" on="0"/>
        <pt x="856" y="388" on="1"/>
        <pt x="856" y="719" on="1"/>
        <pt x="856" y="782" on="0"/>
        <pt x="816" y="888" on="0"/>
        <pt x="737" y="965" on="0"/>
        <pt x="619" y="1008" on="0"/>
        <pt x="541" y="1008" on="1"/>
        <pt x="448" y="1008" on="0"/>
        <pt x="259" y="942" on="0"/>
        <pt x="172" y="884" on="1"/>
        <pt x="94" y="1008" on="1"/>
        <pt x="185" y="1069" on="0"/>
        <pt x="403" y="1147" on="0"/>
        <pt x="541" y="1147" on="1"/>
        <pt x="654" y="1147" on="0"/>
        <pt x="833" y="1088" on="0"/>
        <pt x="958" y="979" on="0"/>
        <pt x="1024" y="826" on="0"/>
        <pt x="1024" y="731" on="1"/>
      </contour>
      <contour>
        <pt x="1165" y="172" on="1"/>
        <pt x="1165" y="219" on="0"/>
        <pt x="1098" y="280" on="0"/>
        <pt x="1024" y="291" on="1"/>
        <pt x="1024" y="178" on="1"/>
        <pt x="1024" y="133" on="0"/>
        <pt x="1054" y="86" on="0"/>
        <pt x="1092" y="86" on="1"/>
        <pt x="1124" y="86" on="0"/>
        <pt x="1165" y="129" on="0"/>
      </contour>
    </TTGlyph>
    <TTGlyph name="uni0E0A" xMin="57" yMin="0" xMax="1404" yMax="1207">
      <contour>
        <pt x="337" y="135" on="1"/>
        <pt x="500" y="135" on="1"/>
        <pt x="500" y="526" on="1"/>
        <pt x="500" y="584" on="0"/>
        <pt x="522" y="678" on="0"/>
        <pt x="567" y="756" on="0"/>
        <pt x="635" y="821" on="0"/>
        <pt x="682" y="852" on="1"/>
        <pt x="682" y="877" on="0"/>
        <pt x="662" y="939" on="0"/>
        <pt x="609" y="993" on="0"/>
        <pt x="518" y="1030" on="0"/>
        <pt x="446" y="1030" on="1"/>
        <pt x="379" y="1030" on="0"/>
        <pt x="279" y="998" on="0"/>
        <pt x="213" y="943" on="0"/>
        <pt x="180" y="868" on="0"/>
        <pt x="180" y="825" on="1"/>
        <pt x="199" y="848" on="0"/>
        <pt x="262" y="879" on="0"/>
        <pt x="299" y="879" on="1"/>
        <pt x="331" y="879" on="0"/>
        <pt x="390" y="858" on="0"/>
        <pt x="435" y="816" on="0"/>
        <pt x="461" y="752" on="0"/>
        <pt x="461" y="709" on="1"/>
        <pt x="461" y="667" on="0"/>
        <pt x="433" y="604" on="0"/>
        <pt x="385" y="561" on="0"/>
        <pt x="318" y="539" on="0"/>
        <pt x="279" y="539" on="1"/>
        <pt x="222" y="539" on="0"/>
        <pt x="138" y="579" on="0"/>
        <pt x="84" y="651" on="0"/>
        <pt x="57" y="751" on="0"/>
        <pt x="57" y="811" on="1"/>
        <pt x="57" y="879" on="0"/>
        <pt x="100" y="1001" on="0"/>
        <pt x="194" y="1093" on="0"/>
        <pt x="342" y="1147" on="0"/>
        <pt x="446" y="1147" on="1"/>
        <pt x="550" y="1147" on="0"/>
        <pt x="702" y="1100" on="0"/>
        <pt x="802" y="1020" on="0"/>
        <pt x="850" y="911" on="0"/>
        <pt x="850" y="850" on="1"/>
        <pt x="799" y="810" on="0"/>
        <pt x="729" y="738" on="0"/>
        <pt x="686" y="663" on="0"/>
        <pt x="668" y="578" on="0"/>
        <pt x="668" y="526" on="1"/>
        <pt x="668" y="135" on="1"/>
        <pt x="776" y="135" on="1"/>
        <pt x="900" y="135" on="0"/>
        <pt x="1020" y="254" on="0"/>
        <pt x="1020" y="389" on="1"/>
        <pt x="1020" y="670" on="1"/>
        <pt x="1020" y="736" on="0"/>
        <pt x="971" y="810" on="0"/>
        <pt x="925" y="828" on="1"/>
        <pt x="925" y="874" on="1"/>
        <pt x="954" y="884" on="0"/>
        <pt x="1005" y="917" on="0"/>
        <pt x="1058" y="973" on="0"/>
        <pt x="1118" y="1055" on="0"/>
        <pt x="1156" y="1114" on="1"/>
        <pt x="1216" y="1207" on="1"/>
        <pt x="1404" y="1207" on="1"/>
        <pt x="1343" y="1117" on="1"/>
        <pt x="1302" y="1057" on="0"/>
        <pt x="1238" y="968" on="0"/>
        <pt x="1177" y="904" on="0"/>
        <pt x="1110" y="862" on="0"/>
        <pt x="1067" y="849" on="1"/>
        <pt x="1127" y="830" on="0"/>
        <pt x="1188" y="738" on="0"/>
        <pt x="1188" y="678" on="1"/>
        <pt x="1188" y="354" on="1"/>
        <pt x="1188" y="275" on="0"/>
        <pt x="1144" y="144" on="0"/>
        <pt x="1057" y="51" on="0"/>
        <pt x="928" y="0" on="0"/>
        <pt x="842" y="0" on="1"/>
        <pt x="337" y="0" on="1"/>
      </contour>
      <contour>
        <pt x="355" y="709" on="1"/>
        <pt x="355" y="743" on="0"/>
        <pt x="311" y="783" on="0"/>
        <pt x="276" y="783" on="1"/>
        <pt x="243" y="783" on="0"/>
        <pt x="200" y="743" on="0"/>
        <pt x="200" y="709" on="1"/>
        <pt x="200" y="674" on="0"/>
        <pt x="243" y="632" on="0"/>
        <pt x="276" y="632" on="1"/>
        <pt x="311" y="632" on="0"/>
        <pt x="355" y="674" on="0"/>
      </contour>
    </TTGlyph>
    <TTGlyph name="uni0E0B" xMin="57" yMin="0" xMax="1404" yMax="1207">
      <contour>
        <pt x="1067" y="849" on="1"/>
        <pt x="1127" y="830" on="0"/>
        <pt x="1188" y="738" on="0"/>
        <pt x="1188" y="678" on="1"/>
        <pt x="1188" y="354" on="1"/>
        <pt x="1188" y="275" on="0"/>
        <pt x="1144" y="144" on="0"/>
        <pt x="1057" y="51" on="0"/>
        <pt x="928" y="0" on="0"/>
        <pt x="842" y="0" on="1"/>
        <pt x="337" y="0" on="1"/>
        <pt x="337" y="135" on="1"/>
        <pt x="500" y="135" on="1"/>
        <pt x="500" y="526" on="1"/>
        <pt x="500" y="567" on="0"/>
        <pt x="511" y="650" on="0"/>
        <pt x="549" y="730" on="0"/>
        <pt x="621" y="806" on="0"/>
        <pt x="682" y="841" on="1"/>
        <pt x="682" y="862" on="0"/>
        <pt x="675" y="912" on="0"/>
        <pt x="654" y="959" on="0"/>
        <pt x="612" y="997" on="0"/>
        <pt x="578" y="1005" on="1"/>
        <pt x="434" y="878" on="1"/>
        <pt x="289" y="1007" on="1"/>
        <pt x="252" y="998" on="0"/>
        <pt x="209" y="955" on="0"/>
        <pt x="186" y="901" on="0"/>
        <pt x="180" y="846" on="0"/>
        <pt x="180" y="825" on="1"/>
        <pt x="199" y="848" on="0"/>
        <pt x="262" y="879" on="0"/>
        <pt x="299" y="879" on="1"/>
        <pt x="331" y="879" on="0"/>
        <pt x="390" y="858" on="0"/>
        <pt x="435" y="816" on="0"/>
        <pt x="461" y="752" on="0"/>
        <pt x="461" y="709" on="1"/>
        <pt x="461" y="667" on="0"/>
        <pt x="433" y="604" on="0"/>
        <pt x="385" y="561" on="0"/>
        <pt x="318" y="539" on="0"/>
        <pt x="279" y="539" on="1"/>
        <pt x="222" y="539" on="0"/>
        <pt x="138" y="581" on="0"/>
        <pt x="84" y="653" on="0"/>
        <pt x="57" y="751" on="0"/>
        <pt x="57" y="807" on="1"/>
        <pt x="57" y="864" on="0"/>
        <pt x="84" y="973" on="0"/>
        <pt x="143" y="1064" on="0"/>
        <pt x="234" y="1129" on="0"/>
        <pt x="299" y="1141" on="1"/>
        <pt x="434" y="1018" on="1"/>
        <pt x="569" y="1141" on="1"/>
        <pt x="648" y="1131" on="0"/>
        <pt x="756" y="1074" on="0"/>
        <pt x="822" y="993" on="0"/>
        <pt x="850" y="893" on="0"/>
        <pt x="850" y="839" on="1"/>
        <pt x="791" y="799" on="0"/>
        <pt x="719" y="722" on="0"/>
        <pt x="680" y="644" on="0"/>
        <pt x="668" y="566" on="0"/>
        <pt x="668" y="526" on="1"/>
        <pt x="668" y="135" on="1"/>
        <pt x="776" y="135" on="1"/>
        <pt x="900" y="135" on="0"/>
        <pt x="1020" y="254" on="0"/>
        <pt x="1020" y="389" on="1"/>
        <pt x="1020" y="670" on="1"/>
        <pt x="1020" y="736" on="0"/>
        <pt x="971" y="810" on="0"/>
        <pt x="925" y="828" on="1"/>
        <pt x="925" y="874" on="1"/>
        <pt x="954" y="884" on="0"/>
        <pt x="1005" y="917" on="0"/>
        <pt x="1058" y="973" on="0"/>
        <pt x="1118" y="1055" on="0"/>
        <pt x="1156" y="1114" on="1"/>
        <pt x="1216" y="1207" on="1"/>
        <pt x="1404" y="1207" on="1"/>
        <pt x="1343" y="1117" on="1"/>
        <pt x="1302" y="1057" on="0"/>
        <pt x="1238" y="968" on="0"/>
        <pt x="1177" y="904" on="0"/>
        <pt x="1110" y="862" on="0"/>
      </contour>
      <contour>
        <pt x="355" y="709" on="1"/>
        <pt x="355" y="743" on="0"/>
        <pt x="311" y="783" on="0"/>
        <pt x="276" y="783" on="1"/>
        <pt x="243" y="783" on="0"/>
        <pt x="200" y="743" on="0"/>
        <pt x="200" y="709" on="1"/>
        <pt x="200" y="674" on="0"/>
        <pt x="243" y="632" on="0"/>
        <pt x="276" y="632" on="1"/>
        <pt x="311" y="632" on="0"/>
        <pt x="355" y="674" on="0"/>
      </contour>
    </TTGlyph>
    <TTGlyph name="uni0E0C" xMin="133" yMin="-18" xMax="1628" yMax="1147">
      <contour>
        <pt x="466" y="172" on="1"/>
        <pt x="466" y="214" on="0"/>
        <pt x="413" y="264" on="0"/>
        <pt x="369" y="264" on="1"/>
        <pt x="327" y="264" on="0"/>
        <pt x="274" y="214" on="0"/>
        <pt x="274" y="172" on="1"/>
        <pt x="274" y="128" on="0"/>
        <pt x="327" y="77" on="0"/>
        <pt x="369" y="77" on="1"/>
        <pt x="413" y="77" on="0"/>
        <pt x="466" y="128" on="0"/>
      </contour>
      <contour>
        <pt x="799" y="172" on="1"/>
        <pt x="799" y="129" on="0"/>
        <pt x="840" y="86" on="0"/>
        <pt x="872" y="86" on="1"/>
        <pt x="910" y="86" on="0"/>
        <pt x="950" y="133" on="0"/>
        <pt x="950" y="178" on="1"/>
        <pt x="950" y="291" on="1"/>
        <pt x="876" y="280" on="0"/>
        <pt x="799" y="219" on="0"/>
      </contour>
      <contour>
        <pt x="305" y="811" on="1"/>
        <pt x="345" y="805" on="0"/>
        <pt x="421" y="777" on="0"/>
        <pt x="486" y="741" on="0"/>
        <pt x="536" y="700" on="0"/>
        <pt x="551" y="682" on="1"/>
        <pt x="551" y="625" on="1"/>
        <pt x="494" y="613" on="0"/>
        <pt x="411" y="577" on="0"/>
        <pt x="359" y="522" on="0"/>
        <pt x="334" y="444" on="0"/>
        <pt x="334" y="391" on="1"/>
        <pt x="334" y="358" on="1"/>
        <pt x="339" y="360" on="0"/>
        <pt x="366" y="362" on="0"/>
        <pt x="379" y="362" on="1"/>
        <pt x="472" y="362" on="0"/>
        <pt x="573" y="263" on="0"/>
        <pt x="573" y="172" on="1"/>
        <pt x="573" y="82" on="0"/>
        <pt x="468" y="-18" on="0"/>
        <pt x="371" y="-18" on="1"/>
        <pt x="272" y="-18" on="0"/>
        <pt x="166" y="82" on="0"/>
        <pt x="166" y="172" on="1"/>
        <pt x="166" y="393" on="1"/>
        <pt x="166" y="446" on="0"/>
        <pt x="190" y="530" on="0"/>
        <pt x="243" y="593" on="0"/>
        <pt x="327" y="636" on="0"/>
        <pt x="387" y="649" on="1"/>
        <pt x="362" y="670" on="0"/>
        <pt x="289" y="700" on="0"/>
        <pt x="214" y="720" on="0"/>
        <pt x="149" y="729" on="0"/>
        <pt x="133" y="729" on="1"/>
        <pt x="137" y="821" on="0"/>
        <pt x="204" y="975" on="0"/>
        <pt x="330" y="1086" on="0"/>
        <pt x="513" y="1147" on="0"/>
        <pt x="631" y="1147" on="1"/>
        <pt x="765" y="1147" on="0"/>
        <pt x="951" y="1080" on="0"/>
        <pt x="1067" y="960" on="0"/>
        <pt x="1118" y="794" on="0"/>
        <pt x="1118" y="696" on="1"/>
        <pt x="1118" y="388" on="1"/>
        <pt x="1220" y="374" on="0"/>
        <pt x="1395" y="277" on="0"/>
        <pt x="1460" y="197" on="1"/>
        <pt x="1460" y="1126" on="1"/>
        <pt x="1628" y="1126" on="1"/>
        <pt x="1628" y="0" on="1"/>
        <pt x="1460" y="0" on="1"/>
        <pt x="1429" y="50" on="0"/>
        <pt x="1352" y="142" on="0"/>
        <pt x="1264" y="217" on="0"/>
        <pt x="1168" y="269" on="0"/>
        <pt x="1118" y="279" on="1"/>
        <pt x="1118" y="211" on="1"/>
        <pt x="1118" y="97" on="0"/>
        <pt x="1015" y="-18" on="0"/>
        <pt x="898" y="-18" on="1"/>
        <pt x="790" y="-18" on="0"/>
        <pt x="682" y="82" on="0"/>
        <pt x="682" y="172" on="1"/>
        <pt x="682" y="214" on="0"/>
        <pt x="713" y="288" on="0"/>
        <pt x="779" y="346" on="0"/>
        <pt x="880" y="386" on="0"/>
        <pt x="950" y="394" on="1"/>
        <pt x="950" y="684" on="1"/>
        <pt x="950" y="760" on="0"/>
        <pt x="913" y="881" on="0"/>
        <pt x="835" y="966" on="0"/>
        <pt x="715" y="1011" on="0"/>
        <pt x="633" y="1011" on="1"/>
        <pt x="553" y="1011" on="0"/>
        <pt x="438" y="976" on="0"/>
        <pt x="359" y="919" on="0"/>
        <pt x="314" y="847" on="0"/>
      </contour>
    </TTGlyph>
    <TTGlyph name="uni0E0D" xMin="133" yMin="-476" xMax="1651" yMax="1147">
      <contour>
        <pt x="466" y="172" on="1"/>
        <pt x="466" y="214" on="0"/>
        <pt x="413" y="264" on="0"/>
        <pt x="369" y="264" on="1"/>
        <pt x="327" y="264" on="0"/>
        <pt x="274" y="214" on="0"/>
        <pt x="274" y="172" on="1"/>
        <pt x="274" y="128" on="0"/>
        <pt x="327" y="77" on="0"/>
        <pt x="369" y="77" on="1"/>
        <pt x="413" y="77" on="0"/>
        <pt x="466" y="128" on="0"/>
      </contour>
      <contour>
        <pt x="950" y="0" on="1"/>
        <pt x="950" y="684" on="1"/>
        <pt x="950" y="760" on="0"/>
        <pt x="912" y="881" on="0"/>
        <pt x="834" y="966" on="0"/>
        <pt x="714" y="1011" on="0"/>
        <pt x="631" y="1011" on="1"/>
        <pt x="552" y="1011" on="0"/>
        <pt x="437" y="976" on="0"/>
        <pt x="359" y="919" on="0"/>
        <pt x="314" y="847" on="0"/>
        <pt x="305" y="811" on="1"/>
        <pt x="345" y="805" on="0"/>
        <pt x="421" y="777" on="0"/>
        <pt x="486" y="741" on="0"/>
        <pt x="536" y="700" on="0"/>
        <pt x="551" y="682" on="1"/>
        <pt x="551" y="625" on="1"/>
        <pt x="494" y="613" on="0"/>
        <pt x="411" y="577" on="0"/>
        <pt x="359" y="522" on="0"/>
        <pt x="334" y="444" on="0"/>
        <pt x="334" y="391" on="1"/>
        <pt x="334" y="358" on="1"/>
        <pt x="339" y="360" on="0"/>
        <pt x="366" y="362" on="0"/>
        <pt x="379" y="362" on="1"/>
        <pt x="472" y="362" on="0"/>
        <pt x="573" y="263" on="0"/>
        <pt x="573" y="172" on="1"/>
        <pt x="573" y="82" on="0"/>
        <pt x="468" y="-18" on="0"/>
        <pt x="371" y="-18" on="1"/>
        <pt x="272" y="-18" on="0"/>
        <pt x="166" y="82" on="0"/>
        <pt x="166" y="172" on="1"/>
        <pt x="166" y="393" on="1"/>
        <pt x="166" y="446" on="0"/>
        <pt x="190" y="530" on="0"/>
        <pt x="243" y="593" on="0"/>
        <pt x="327" y="636" on="0"/>
        <pt x="387" y="649" on="1"/>
        <pt x="362" y="670" on="0"/>
        <pt x="289" y="700" on="0"/>
        <pt x="214" y="720" on="0"/>
        <pt x="149" y="729" on="0"/>
        <pt x="133" y="729" on="1"/>
        <pt x="137" y="821" on="0"/>
        <pt x="204" y="975" on="0"/>
        <pt x="330" y="1086" on="0"/>
        <pt x="513" y="1147" on="0"/>
        <pt x="631" y="1147" on="1"/>
        <pt x="765" y="1147" on="0"/>
        <pt x="951" y="1080" on="0"/>
        <pt x="1067" y="960" on="0"/>
        <pt x="1118" y="794" on="0"/>
        <pt x="1118" y="696" on="1"/>
        <pt x="1118" y="135" on="1"/>
        <pt x="1216" y="135" on="1"/>
        <pt x="1341" y="135" on="0"/>
        <pt x="1460" y="254" on="0"/>
        <pt x="1460" y="389" on="1"/>
        <pt x="1460" y="1126" on="1"/>
        <pt x="1628" y="1126" on="1"/>
        <pt x="1628" y="354" on="1"/>
        <pt x="1628" y="275" on="0"/>
        <pt x="1584" y="144" on="0"/>
        <pt x="1497" y="51" on="0"/>
        <pt x="1368" y="0" on="0"/>
        <pt x="1282" y="0" on="1"/>
      </contour>
      <contour>
        <pt x="1169" y="-476" on="1"/>
        <pt x="1107" y="-476" on="0"/>
        <pt x="1010" y="-446" on="0"/>
        <pt x="944" y="-393" on="0"/>
        <pt x="910" y="-319" on="0"/>
        <pt x="910" y="-275" on="1"/>
        <pt x="910" y="-195" on="0"/>
        <pt x="1011" y="-103" on="0"/>
        <pt x="1097" y="-103" on="1"/>
        <pt x="1185" y="-103" on="0"/>
        <pt x="1282" y="-192" on="0"/>
        <pt x="1282" y="-264" on="1"/>
        <pt x="1282" y="-306" on="0"/>
        <pt x="1253" y="-357" on="0"/>
        <pt x="1238" y="-370" on="1"/>
        <pt x="1288" y="-361" on="0"/>
        <pt x="1368" y="-319" on="0"/>
        <pt x="1432" y="-256" on="0"/>
        <pt x="1484" y="-171" on="0"/>
        <pt x="1506" y="-119" on="1"/>
        <pt x="1651" y="-119" on="1"/>
        <pt x="1612" y="-198" on="0"/>
        <pt x="1524" y="-329" on="0"/>
        <pt x="1410" y="-424" on="0"/>
        <pt x="1264" y="-476" on="0"/>
      </contour>
      <contour>
        <pt x="1011" y="-276" on="1"/>
        <pt x="1011" y="-314" on="0"/>
        <pt x="1058" y="-359" on="0"/>
        <pt x="1097" y="-359" on="1"/>
        <pt x="1133" y="-359" on="0"/>
        <pt x="1181" y="-314" on="0"/>
        <pt x="1181" y="-276" on="1"/>
        <pt x="1181" y="-237" on="0"/>
        <pt x="1133" y="-192" on="0"/>
        <pt x="1097" y="-192" on="1"/>
        <pt x="1058" y="-192" on="0"/>
        <pt x="1011" y="-237" on="0"/>
      </contour>
    </TTGlyph>
    <TTGlyph name="uni0E0D.alt1" xMin="133" yMin="-18" xMax="1628" yMax="1147">
      <contour>
        <pt x="466" y="172" on="1"/>
        <pt x="466" y="214" on="0"/>
        <pt x="413" y="264" on="0"/>
        <pt x="369" y="264" on="1"/>
        <pt x="327" y="264" on="0"/>
        <pt x="274" y="214" on="0"/>
        <pt x="274" y="172" on="1"/>
        <pt x="274" y="128" on="0"/>
        <pt x="327" y="77" on="0"/>
        <pt x="369" y="77" on="1"/>
        <pt x="413" y="77" on="0"/>
        <pt x="466" y="128" on="0"/>
      </contour>
      <contour>
        <pt x="950" y="0" on="1"/>
        <pt x="950" y="684" on="1"/>
        <pt x="950" y="760" on="0"/>
        <pt x="912" y="881" on="0"/>
        <pt x="834" y="966" on="0"/>
        <pt x="714" y="1011" on="0"/>
        <pt x="631" y="1011" on="1"/>
        <pt x="552" y="1011" on="0"/>
        <pt x="437" y="976" on="0"/>
        <pt x="359" y="919" on="0"/>
        <pt x="314" y="847" on="0"/>
        <pt x="305" y="811" on="1"/>
        <pt x="345" y="805" on="0"/>
        <pt x="421" y="777" on="0"/>
        <pt x="486" y="741" on="0"/>
        <pt x="536" y="700" on="0"/>
        <pt x="551" y="682" on="1"/>
        <pt x="551" y="625" on="1"/>
        <pt x="494" y="613" on="0"/>
        <pt x="411" y="577" on="0"/>
        <pt x="359" y="522" on="0"/>
        <pt x="334" y="444" on="0"/>
        <pt x="334" y="391" on="1"/>
        <pt x="334" y="358" on="1"/>
        <pt x="339" y="360" on="0"/>
        <pt x="366" y="362" on="0"/>
        <pt x="379" y="362" on="1"/>
        <pt x="472" y="362" on="0"/>
        <pt x="573" y="263" on="0"/>
        <pt x="573" y="172" on="1"/>
        <pt x="573" y="82" on="0"/>
        <pt x="468" y="-18" on="0"/>
        <pt x="371" y="-18" on="1"/>
        <pt x="272" y="-18" on="0"/>
        <pt x="166" y="82" on="0"/>
        <pt x="166" y="172" on="1"/>
        <pt x="166" y="393" on="1"/>
        <pt x="166" y="446" on="0"/>
        <pt x="190" y="530" on="0"/>
        <pt x="243" y="593" on="0"/>
        <pt x="327" y="636" on="0"/>
        <pt x="387" y="649" on="1"/>
        <pt x="362" y="670" on="0"/>
        <pt x="289" y="700" on="0"/>
        <pt x="214" y="720" on="0"/>
        <pt x="149" y="729" on="0"/>
        <pt x="133" y="729" on="1"/>
        <pt x="137" y="821" on="0"/>
        <pt x="204" y="975" on="0"/>
        <pt x="330" y="1086" on="0"/>
        <pt x="513" y="1147" on="0"/>
        <pt x="631" y="1147" on="1"/>
        <pt x="765" y="1147" on="0"/>
        <pt x="951" y="1080" on="0"/>
        <pt x="1067" y="960" on="0"/>
        <pt x="1118" y="794" on="0"/>
        <pt x="1118" y="696" on="1"/>
        <pt x="1118" y="135" on="1"/>
        <pt x="1216" y="135" on="1"/>
        <pt x="1341" y="135" on="0"/>
        <pt x="1460" y="254" on="0"/>
        <pt x="1460" y="389" on="1"/>
        <pt x="1460" y="1126" on="1"/>
        <pt x="1628" y="1126" on="1"/>
        <pt x="1628" y="354" on="1"/>
        <pt x="1628" y="275" on="0"/>
        <pt x="1584" y="144" on="0"/>
        <pt x="1497" y="51" on="0"/>
        <pt x="1368" y="0" on="0"/>
        <pt x="1282" y="0" on="1"/>
      </contour>
    </TTGlyph>
    <TTGlyph name="uni0E0E" xMin="45" yMin="-520" xMax="1151" yMax="1147">
      <contour>
        <pt x="361" y="811" on="1"/>
        <pt x="409" y="805" on="0"/>
        <pt x="505" y="777" on="0"/>
        <pt x="588" y="741" on="0"/>
        <pt x="652" y="700" on="0"/>
        <pt x="670" y="682" on="1"/>
        <pt x="670" y="625" on="1"/>
        <pt x="612" y="613" on="0"/>
        <pt x="530" y="577" on="0"/>
        <pt x="478" y="522" on="0"/>
        <pt x="453" y="444" on="0"/>
        <pt x="453" y="391" on="1"/>
        <pt x="453" y="172" on="1"/>
        <pt x="453" y="82" on="0"/>
        <pt x="347" y="-18" on="0"/>
        <pt x="248" y="-18" on="1"/>
        <pt x="151" y="-18" on="0"/>
        <pt x="45" y="82" on="0"/>
        <pt x="45" y="172" on="1"/>
        <pt x="45" y="263" on="0"/>
        <pt x="147" y="362" on="0"/>
        <pt x="240" y="362" on="1"/>
        <pt x="252" y="362" on="0"/>
        <pt x="280" y="360" on="0"/>
        <pt x="285" y="358" on="1"/>
        <pt x="285" y="393" on="1"/>
        <pt x="285" y="446" on="0"/>
        <pt x="309" y="530" on="0"/>
        <pt x="361" y="593" on="0"/>
        <pt x="445" y="636" on="0"/>
        <pt x="505" y="649" on="1"/>
        <pt x="474" y="670" on="0"/>
        <pt x="384" y="700" on="0"/>
        <pt x="292" y="720" on="0"/>
        <pt x="211" y="729" on="0"/>
        <pt x="190" y="729" on="1"/>
        <pt x="194" y="821" on="0"/>
        <pt x="254" y="975" on="0"/>
        <pt x="371" y="1086" on="0"/>
        <pt x="546" y="1147" on="0"/>
        <pt x="664" y="1147" on="1"/>
        <pt x="798" y="1147" on="0"/>
        <pt x="984" y="1080" on="0"/>
        <pt x="1100" y="960" on="0"/>
        <pt x="1151" y="794" on="0"/>
        <pt x="1151" y="696" on="1"/>
        <pt x="1151" y="-520" on="1"/>
        <pt x="993" y="-520" on="1"/>
        <pt x="950" y="-466" on="0"/>
        <pt x="830" y="-355" on="0"/>
        <pt x="767" y="-311" on="1"/>
        <pt x="721" y="-387" on="0"/>
        <pt x="596" y="-467" on="0"/>
        <pt x="533" y="-467" on="1"/>
        <pt x="488" y="-467" on="0"/>
        <pt x="418" y="-441" on="0"/>
        <pt x="368" y="-394" on="0"/>
        <pt x="342" y="-329" on="0"/>
        <pt x="342" y="-291" on="1"/>
        <pt x="342" y="-209" on="0"/>
        <pt x="440" y="-109" on="0"/>
        <pt x="533" y="-109" on="1"/>
        <pt x="578" y="-109" on="0"/>
        <pt x="671" y="-139" on="0"/>
        <pt x="706" y="-157" on="1"/>
        <pt x="714" y="-131" on="0"/>
        <pt x="721" y="-76" on="0"/>
        <pt x="723" y="-39" on="1"/>
        <pt x="844" y="-39" on="1"/>
        <pt x="837" y="-138" on="0"/>
        <pt x="809" y="-216" on="1"/>
        <pt x="861" y="-250" on="0"/>
        <pt x="951" y="-324" on="0"/>
        <pt x="983" y="-358" on="1"/>
        <pt x="983" y="684" on="1"/>
        <pt x="983" y="760" on="0"/>
        <pt x="945" y="881" on="0"/>
        <pt x="867" y="966" on="0"/>
        <pt x="747" y="1011" on="0"/>
        <pt x="664" y="1011" on="1"/>
        <pt x="585" y="1011" on="0"/>
        <pt x="477" y="976" on="0"/>
        <pt x="408" y="919" on="0"/>
        <pt x="370" y="847" on="0"/>
      </contour>
      <contour>
        <pt x="153" y="172" on="1"/>
        <pt x="153" y="128" on="0"/>
        <pt x="206" y="77" on="0"/>
        <pt x="250" y="77" on="1"/>
        <pt x="291" y="77" on="0"/>
        <pt x="345" y="128" on="0"/>
        <pt x="345" y="172" on="1"/>
        <pt x="345" y="214" on="0"/>
        <pt x="291" y="264" on="0"/>
        <pt x="250" y="264" on="1"/>
        <pt x="206" y="264" on="0"/>
        <pt x="153" y="214" on="0"/>
      </contour>
      <contour>
        <pt x="532" y="-208" on="1"/>
        <pt x="500" y="-208" on="0"/>
        <pt x="453" y="-243" on="0"/>
        <pt x="453" y="-287" on="1"/>
        <pt x="453" y="-328" on="0"/>
        <pt x="500" y="-367" on="0"/>
        <pt x="532" y="-367" on="1"/>
        <pt x="548" y="-367" on="0"/>
        <pt x="584" y="-356" on="0"/>
        <pt x="621" y="-329" on="0"/>
        <pt x="657" y="-284" on="0"/>
        <pt x="673" y="-251" on="1"/>
        <pt x="631" y="-230" on="0"/>
        <pt x="559" y="-208" on="0"/>
      </contour>
    </TTGlyph>
    <TTGlyph name="uni0E0F" xMin="45" yMin="-520" xMax="1151" yMax="1147">
      <contour>
        <pt x="361" y="811" on="1"/>
        <pt x="409" y="805" on="0"/>
        <pt x="505" y="777" on="0"/>
        <pt x="588" y="741" on="0"/>
        <pt x="652" y="700" on="0"/>
        <pt x="670" y="682" on="1"/>
        <pt x="670" y="625" on="1"/>
        <pt x="612" y="613" on="0"/>
        <pt x="530" y="577" on="0"/>
        <pt x="478" y="522" on="0"/>
        <pt x="453" y="444" on="0"/>
        <pt x="453" y="391" on="1"/>
        <pt x="453" y="172" on="1"/>
        <pt x="453" y="82" on="0"/>
        <pt x="347" y="-18" on="0"/>
        <pt x="248" y="-18" on="1"/>
        <pt x="151" y="-18" on="0"/>
        <pt x="45" y="82" on="0"/>
        <pt x="45" y="172" on="1"/>
        <pt x="45" y="263" on="0"/>
        <pt x="147" y="362" on="0"/>
        <pt x="240" y="362" on="1"/>
        <pt x="252" y="362" on="0"/>
        <pt x="280" y="360" on="0"/>
        <pt x="285" y="358" on="1"/>
        <pt x="285" y="393" on="1"/>
        <pt x="285" y="446" on="0"/>
        <pt x="309" y="530" on="0"/>
        <pt x="361" y="593" on="0"/>
        <pt x="445" y="636" on="0"/>
        <pt x="505" y="649" on="1"/>
        <pt x="474" y="670" on="0"/>
        <pt x="384" y="700" on="0"/>
        <pt x="292" y="720" on="0"/>
        <pt x="211" y="729" on="0"/>
        <pt x="190" y="729" on="1"/>
        <pt x="194" y="821" on="0"/>
        <pt x="254" y="975" on="0"/>
        <pt x="371" y="1086" on="0"/>
        <pt x="546" y="1147" on="0"/>
        <pt x="664" y="1147" on="1"/>
        <pt x="798" y="1147" on="0"/>
        <pt x="984" y="1080" on="0"/>
        <pt x="1100" y="960" on="0"/>
        <pt x="1151" y="794" on="0"/>
        <pt x="1151" y="696" on="1"/>
        <pt x="1151" y="-520" on="1"/>
        <pt x="993" y="-520" on="1"/>
        <pt x="952" y="-469" on="0"/>
        <pt x="851" y="-372" on="0"/>
        <pt x="803" y="-332" on="1"/>
        <pt x="778" y="-380" on="0"/>
        <pt x="692" y="-461" on="0"/>
        <pt x="635" y="-489" on="1"/>
        <pt x="609" y="-451" on="0"/>
        <pt x="551" y="-382" on="0"/>
        <pt x="519" y="-353" on="1"/>
        <pt x="465" y="-415" on="0"/>
        <pt x="343" y="-485" on="0"/>
        <pt x="270" y="-485" on="1"/>
        <pt x="234" y="-485" on="0"/>
        <pt x="169" y="-462" on="0"/>
        <pt x="121" y="-417" on="0"/>
        <pt x="92" y="-351" on="0"/>
        <pt x="92" y="-309" on="1"/>
        <pt x="92" y="-228" on="0"/>
        <pt x="190" y="-127" on="0"/>
        <pt x="283" y="-127" on="1"/>
        <pt x="335" y="-127" on="0"/>
        <pt x="444" y="-170" on="0"/>
        <pt x="492" y="-203" on="1"/>
        <pt x="562" y="-81" on="0"/>
        <pt x="574" y="86" on="1"/>
        <pt x="700" y="86" on="1"/>
        <pt x="693" y="-11" on="0"/>
        <pt x="629" y="-194" on="0"/>
        <pt x="577" y="-272" on="1"/>
        <pt x="598" y="-292" on="0"/>
        <pt x="638" y="-333" on="0"/>
        <pt x="655" y="-352" on="1"/>
        <pt x="687" y="-326" on="0"/>
        <pt x="746" y="-233" on="0"/>
        <pt x="768" y="-174" on="1"/>
        <pt x="796" y="-193" on="0"/>
        <pt x="855" y="-239" on="0"/>
        <pt x="912" y="-288" on="0"/>
        <pt x="963" y="-336" on="0"/>
        <pt x="983" y="-357" on="1"/>
        <pt x="983" y="684" on="1"/>
        <pt x="983" y="760" on="0"/>
        <pt x="945" y="881" on="0"/>
        <pt x="867" y="966" on="0"/>
        <pt x="747" y="1011" on="0"/>
        <pt x="664" y="1011" on="1"/>
        <pt x="585" y="1011" on="0"/>
        <pt x="477" y="976" on="0"/>
        <pt x="408" y="919" on="0"/>
        <pt x="370" y="847" on="0"/>
      </contour>
      <contour>
        <pt x="153" y="172" on="1"/>
        <pt x="153" y="128" on="0"/>
        <pt x="206" y="77" on="0"/>
        <pt x="250" y="77" on="1"/>
        <pt x="291" y="77" on="0"/>
        <pt x="345" y="128" on="0"/>
        <pt x="345" y="172" on="1"/>
        <pt x="345" y="214" on="0"/>
        <pt x="291" y="264" on="0"/>
        <pt x="250" y="264" on="1"/>
        <pt x="206" y="264" on="0"/>
        <pt x="153" y="214" on="0"/>
      </contour>
      <contour>
        <pt x="281" y="-226" on="1"/>
        <pt x="249" y="-226" on="0"/>
        <pt x="202" y="-261" on="0"/>
        <pt x="202" y="-305" on="1"/>
        <pt x="202" y="-346" on="0"/>
        <pt x="249" y="-385" on="0"/>
        <pt x="281" y="-385" on="1"/>
        <pt x="317" y="-385" on="0"/>
        <pt x="406" y="-336" on="0"/>
        <pt x="442" y="-281" on="1"/>
        <pt x="405" y="-255" on="0"/>
        <pt x="321" y="-226" on="0"/>
      </contour>
    </TTGlyph>
    <TTGlyph name="uni0E10" xMin="85" yMin="-520" xMax="1021" yMax="1127">
      <contour>
        <pt x="241" y="411" on="1"/>
        <pt x="241" y="368" on="0"/>
        <pt x="294" y="318" on="0"/>
        <pt x="338" y="318" on="1"/>
        <pt x="380" y="318" on="0"/>
        <pt x="433" y="368" on="0"/>
        <pt x="433" y="411" on="1"/>
        <pt x="433" y="455" on="0"/>
        <pt x="380" y="505" on="0"/>
        <pt x="338" y="505" on="1"/>
        <pt x="294" y="505" on="0"/>
        <pt x="241" y="455" on="0"/>
      </contour>
      <contour>
        <pt x="830" y="450" on="1"/>
        <pt x="830" y="569" on="0"/>
        <pt x="704" y="694" on="0"/>
        <pt x="569" y="694" on="1"/>
        <pt x="107" y="694" on="1"/>
        <pt x="107" y="822" on="0"/>
        <pt x="145" y="989" on="0"/>
        <pt x="234" y="1088" on="0"/>
        <pt x="381" y="1127" on="0"/>
        <pt x="491" y="1127" on="1"/>
        <pt x="1021" y="1127" on="1"/>
        <pt x="1021" y="994" on="1"/>
        <pt x="476" y="994" on="1"/>
        <pt x="433" y="994" on="0"/>
        <pt x="359" y="973" on="0"/>
        <pt x="307" y="932" on="0"/>
        <pt x="277" y="869" on="0"/>
        <pt x="277" y="827" on="1"/>
        <pt x="603" y="827" on="1"/>
        <pt x="710" y="827" on="0"/>
        <pt x="860" y="786" on="0"/>
        <pt x="954" y="693" on="0"/>
        <pt x="998" y="544" on="0"/>
        <pt x="998" y="437" on="1"/>
        <pt x="998" y="252" on="1"/>
        <pt x="998" y="184" on="0"/>
        <pt x="971" y="82" on="0"/>
        <pt x="909" y="14" on="0"/>
        <pt x="809" y="-20" on="0"/>
        <pt x="736" y="-20" on="1"/>
        <pt x="668" y="-20" on="0"/>
        <pt x="580" y="3" on="0"/>
        <pt x="517" y="59" on="0"/>
        <pt x="467" y="153" on="0"/>
        <pt x="436" y="223" on="1"/>
        <pt x="429" y="239" on="1"/>
        <pt x="412" y="232" on="0"/>
        <pt x="356" y="220" on="0"/>
        <pt x="336" y="220" on="1"/>
        <pt x="237" y="220" on="0"/>
        <pt x="134" y="320" on="0"/>
        <pt x="134" y="411" on="1"/>
        <pt x="134" y="500" on="0"/>
        <pt x="239" y="601" on="0"/>
        <pt x="336" y="601" on="1"/>
        <pt x="388" y="601" on="0"/>
        <pt x="459" y="569" on="0"/>
        <pt x="510" y="509" on="0"/>
        <pt x="548" y="424" on="0"/>
        <pt x="568" y="372" on="1"/>
        <pt x="621" y="230" on="1"/>
        <pt x="642" y="174" on="0"/>
        <pt x="695" y="113" on="0"/>
        <pt x="738" y="113" on="1"/>
        <pt x="757" y="113" on="0"/>
        <pt x="791" y="126" on="0"/>
        <pt x="816" y="154" on="0"/>
        <pt x="830" y="202" on="0"/>
        <pt x="830" y="236" on="1"/>
      </contour>
      <contour>
        <pt x="590" y="-108" on="1"/>
        <pt x="579" y="-158" on="0"/>
        <pt x="549" y="-253" on="0"/>
        <pt x="529" y="-297" on="1"/>
        <pt x="548" y="-317" on="0"/>
        <pt x="583" y="-361" on="0"/>
        <pt x="597" y="-381" on="1"/>
        <pt x="616" y="-369" on="0"/>
        <pt x="664" y="-317" on="0"/>
        <pt x="682" y="-292" on="1"/>
        <pt x="729" y="-311" on="0"/>
        <pt x="832" y="-359" on="0"/>
        <pt x="880" y="-390" on="1"/>
        <pt x="880" y="-296" on="1"/>
        <pt x="872" y="-300" on="0"/>
        <pt x="858" y="-300" on="1"/>
        <pt x="800" y="-300" on="0"/>
        <pt x="744" y="-241" on="0"/>
        <pt x="744" y="-187" on="1"/>
        <pt x="744" y="-133" on="0"/>
        <pt x="803" y="-72" on="0"/>
        <pt x="872" y="-72" on="1"/>
        <pt x="935" y="-72" on="0"/>
        <pt x="1007" y="-133" on="0"/>
        <pt x="1007" y="-189" on="1"/>
        <pt x="1007" y="-520" on="1"/>
        <pt x="880" y="-520" on="1"/>
        <pt x="846" y="-490" on="0"/>
        <pt x="757" y="-432" on="0"/>
        <pt x="708" y="-413" on="1"/>
        <pt x="684" y="-441" on="0"/>
        <pt x="611" y="-500" on="0"/>
        <pt x="577" y="-520" on="1"/>
        <pt x="553" y="-486" on="0"/>
        <pt x="507" y="-415" on="0"/>
        <pt x="481" y="-385" on="1"/>
        <pt x="440" y="-443" on="0"/>
        <pt x="330" y="-517" on="0"/>
        <pt x="263" y="-517" on="1"/>
        <pt x="227" y="-517" on="0"/>
        <pt x="162" y="-494" on="0"/>
        <pt x="114" y="-449" on="0"/>
        <pt x="85" y="-383" on="0"/>
        <pt x="85" y="-341" on="1"/>
        <pt x="85" y="-260" on="0"/>
        <pt x="183" y="-159" on="0"/>
        <pt x="276" y="-159" on="1"/>
        <pt x="321" y="-159" on="0"/>
        <pt x="410" y="-193" on="0"/>
        <pt x="446" y="-219" on="1"/>
        <pt x="462" y="-167" on="0"/>
        <pt x="469" y="-108" on="1"/>
      </contour>
      <contour>
        <pt x="819" y="-187" on="1"/>
        <pt x="819" y="-208" on="0"/>
        <pt x="843" y="-232" on="0"/>
        <pt x="866" y="-232" on="1"/>
        <pt x="886" y="-232" on="0"/>
        <pt x="911" y="-208" on="0"/>
        <pt x="911" y="-187" on="1"/>
        <pt x="911" y="-164" on="0"/>
        <pt x="886" y="-140" on="0"/>
        <pt x="866" y="-140" on="1"/>
        <pt x="819" y="-140" on="0"/>
      </contour>
      <contour>
        <pt x="275" y="-258" on="1"/>
        <pt x="243" y="-258" on="0"/>
        <pt x="196" y="-293" on="0"/>
        <pt x="196" y="-337" on="1"/>
        <pt x="196" y="-378" on="0"/>
        <pt x="243" y="-417" on="0"/>
        <pt x="275" y="-417" on="1"/>
        <pt x="307" y="-417" on="0"/>
        <pt x="382" y="-369" on="0"/>
        <pt x="410" y="-312" on="1"/>
        <pt x="380" y="-286" on="0"/>
        <pt x="307" y="-258" on="0"/>
      </contour>
    </TTGlyph>
    <TTGlyph name="uni0E10.alt1" xMin="107" yMin="-20" xMax="1021" yMax="1127">
      <contour>
        <pt x="241" y="411" on="1"/>
        <pt x="241" y="368" on="0"/>
        <pt x="294" y="318" on="0"/>
        <pt x="338" y="318" on="1"/>
        <pt x="380" y="318" on="0"/>
        <pt x="433" y="368" on="0"/>
        <pt x="433" y="411" on="1"/>
        <pt x="433" y="455" on="0"/>
        <pt x="380" y="505" on="0"/>
        <pt x="338" y="505" on="1"/>
        <pt x="294" y="505" on="0"/>
        <pt x="241" y="455" on="0"/>
      </contour>
      <contour>
        <pt x="830" y="450" on="1"/>
        <pt x="830" y="569" on="0"/>
        <pt x="704" y="694" on="0"/>
        <pt x="569" y="694" on="1"/>
        <pt x="107" y="694" on="1"/>
        <pt x="107" y="822" on="0"/>
        <pt x="145" y="989" on="0"/>
        <pt x="234" y="1088" on="0"/>
        <pt x="381" y="1127" on="0"/>
        <pt x="491" y="1127" on="1"/>
        <pt x="1021" y="1127" on="1"/>
        <pt x="1021" y="994" on="1"/>
        <pt x="476" y="994" on="1"/>
        <pt x="433" y="994" on="0"/>
        <pt x="359" y="973" on="0"/>
        <pt x="307" y="932" on="0"/>
        <pt x="277" y="869" on="0"/>
        <pt x="277" y="827" on="1"/>
        <pt x="603" y="827" on="1"/>
        <pt x="710" y="827" on="0"/>
        <pt x="860" y="786" on="0"/>
        <pt x="954" y="693" on="0"/>
        <pt x="998" y="544" on="0"/>
        <pt x="998" y="437" on="1"/>
        <pt x="998" y="252" on="1"/>
        <pt x="998" y="184" on="0"/>
        <pt x="971" y="82" on="0"/>
        <pt x="909" y="14" on="0"/>
        <pt x="809" y="-20" on="0"/>
        <pt x="736" y="-20" on="1"/>
        <pt x="668" y="-20" on="0"/>
        <pt x="580" y="3" on="0"/>
        <pt x="517" y="59" on="0"/>
        <pt x="467" y="153" on="0"/>
        <pt x="436" y="223" on="1"/>
        <pt x="429" y="239" on="1"/>
        <pt x="412" y="232" on="0"/>
        <pt x="356" y="220" on="0"/>
        <pt x="336" y="220" on="1"/>
        <pt x="237" y="220" on="0"/>
        <pt x="134" y="320" on="0"/>
        <pt x="134" y="411" on="1"/>
        <pt x="134" y="500" on="0"/>
        <pt x="239" y="601" on="0"/>
        <pt x="336" y="601" on="1"/>
        <pt x="388" y="601" on="0"/>
        <pt x="459" y="569" on="0"/>
        <pt x="510" y="509" on="0"/>
        <pt x="548" y="424" on="0"/>
        <pt x="568" y="372" on="1"/>
        <pt x="621" y="230" on="1"/>
        <pt x="642" y="174" on="0"/>
        <pt x="695" y="113" on="0"/>
        <pt x="738" y="113" on="1"/>
        <pt x="757" y="113" on="0"/>
        <pt x="791" y="126" on="0"/>
        <pt x="816" y="154" on="0"/>
        <pt x="830" y="202" on="0"/>
        <pt x="830" y="236" on="1"/>
      </contour>
    </TTGlyph>
    <TTGlyph name="uni0E11" xMin="57" yMin="0" xMax="1469" yMax="1147">
      <contour>
        <pt x="355" y="709" on="1"/>
        <pt x="355" y="743" on="0"/>
        <pt x="311" y="783" on="0"/>
        <pt x="276" y="783" on="1"/>
        <pt x="243" y="783" on="0"/>
        <pt x="200" y="743" on="0"/>
        <pt x="200" y="709" on="1"/>
        <pt x="200" y="674" on="0"/>
        <pt x="243" y="632" on="0"/>
        <pt x="276" y="632" on="1"/>
        <pt x="311" y="632" on="0"/>
        <pt x="355" y="674" on="0"/>
      </contour>
      <contour>
        <pt x="751" y="0" on="1"/>
        <pt x="500" y="0" on="1"/>
        <pt x="500" y="526" on="1"/>
        <pt x="500" y="567" on="0"/>
        <pt x="511" y="650" on="0"/>
        <pt x="549" y="730" on="0"/>
        <pt x="621" y="807" on="0"/>
        <pt x="682" y="841" on="1"/>
        <pt x="682" y="862" on="0"/>
        <pt x="675" y="912" on="0"/>
        <pt x="654" y="959" on="0"/>
        <pt x="613" y="997" on="0"/>
        <pt x="578" y="1005" on="1"/>
        <pt x="434" y="878" on="1"/>
        <pt x="289" y="1007" on="1"/>
        <pt x="252" y="998" on="0"/>
        <pt x="209" y="955" on="0"/>
        <pt x="186" y="901" on="0"/>
        <pt x="180" y="846" on="0"/>
        <pt x="180" y="825" on="1"/>
        <pt x="199" y="848" on="0"/>
        <pt x="262" y="879" on="0"/>
        <pt x="299" y="879" on="1"/>
        <pt x="331" y="879" on="0"/>
        <pt x="390" y="859" on="0"/>
        <pt x="435" y="817" on="0"/>
        <pt x="461" y="753" on="0"/>
        <pt x="461" y="709" on="1"/>
        <pt x="461" y="667" on="0"/>
        <pt x="433" y="604" on="0"/>
        <pt x="385" y="561" on="0"/>
        <pt x="318" y="539" on="0"/>
        <pt x="279" y="539" on="1"/>
        <pt x="222" y="539" on="0"/>
        <pt x="138" y="581" on="0"/>
        <pt x="84" y="653" on="0"/>
        <pt x="57" y="751" on="0"/>
        <pt x="57" y="807" on="1"/>
        <pt x="57" y="864" on="0"/>
        <pt x="84" y="973" on="0"/>
        <pt x="143" y="1064" on="0"/>
        <pt x="235" y="1129" on="0"/>
        <pt x="299" y="1141" on="1"/>
        <pt x="434" y="1018" on="1"/>
        <pt x="569" y="1141" on="1"/>
        <pt x="648" y="1131" on="0"/>
        <pt x="756" y="1074" on="0"/>
        <pt x="822" y="993" on="0"/>
        <pt x="850" y="893" on="0"/>
        <pt x="850" y="839" on="1"/>
        <pt x="791" y="799" on="0"/>
        <pt x="719" y="722" on="0"/>
        <pt x="680" y="644" on="0"/>
        <pt x="668" y="566" on="0"/>
        <pt x="668" y="526" on="1"/>
        <pt x="668" y="150" on="1"/>
        <pt x="1037" y="924" on="1"/>
        <pt x="1067" y="989" on="0"/>
        <pt x="1123" y="1075" on="0"/>
        <pt x="1183" y="1126" on="0"/>
        <pt x="1252" y="1147" on="0"/>
        <pt x="1295" y="1147" on="1"/>
        <pt x="1380" y="1147" on="0"/>
        <pt x="1469" y="1029" on="0"/>
        <pt x="1469" y="908" on="1"/>
        <pt x="1469" y="0" on="1"/>
        <pt x="1301" y="0" on="1"/>
        <pt x="1301" y="926" on="1"/>
        <pt x="1301" y="971" on="0"/>
        <pt x="1282" y="1011" on="0"/>
        <pt x="1265" y="1011" on="1"/>
        <pt x="1248" y="1011" on="0"/>
        <pt x="1205" y="953" on="0"/>
        <pt x="1170" y="881" on="1"/>
      </contour>
    </TTGlyph>
    <TTGlyph name="uni0E12" xMin="113" yMin="-18" xMax="1664" yMax="1143">
      <contour>
        <pt x="730" y="589" on="1"/>
        <pt x="730" y="634" on="0"/>
        <pt x="677" y="683" on="0"/>
        <pt x="633" y="683" on="1"/>
        <pt x="592" y="683" on="0"/>
        <pt x="538" y="634" on="0"/>
        <pt x="538" y="589" on="1"/>
        <pt x="538" y="547" on="0"/>
        <pt x="592" y="496" on="0"/>
        <pt x="633" y="496" on="1"/>
        <pt x="677" y="496" on="0"/>
        <pt x="730" y="547" on="0"/>
      </contour>
      <contour>
        <pt x="835" y="172" on="1"/>
        <pt x="835" y="129" on="0"/>
        <pt x="876" y="86" on="0"/>
        <pt x="908" y="86" on="1"/>
        <pt x="946" y="86" on="0"/>
        <pt x="986" y="133" on="0"/>
        <pt x="986" y="178" on="1"/>
        <pt x="986" y="291" on="1"/>
        <pt x="912" y="280" on="0"/>
        <pt x="835" y="219" on="0"/>
      </contour>
      <contour>
        <pt x="1664" y="0" on="1"/>
        <pt x="1486" y="0" on="1"/>
        <pt x="1455" y="50" on="0"/>
        <pt x="1381" y="145" on="0"/>
        <pt x="1297" y="223" on="0"/>
        <pt x="1204" y="279" on="0"/>
        <pt x="1154" y="289" on="1"/>
        <pt x="1154" y="211" on="1"/>
        <pt x="1154" y="97" on="0"/>
        <pt x="1051" y="-18" on="0"/>
        <pt x="934" y="-18" on="1"/>
        <pt x="826" y="-18" on="0"/>
        <pt x="718" y="82" on="0"/>
        <pt x="718" y="172" on="1"/>
        <pt x="718" y="214" on="0"/>
        <pt x="749" y="288" on="0"/>
        <pt x="815" y="346" on="0"/>
        <pt x="916" y="386" on="0"/>
        <pt x="986" y="394" on="1"/>
        <pt x="987" y="684" on="1"/>
        <pt x="987" y="755" on="0"/>
        <pt x="972" y="851" on="0"/>
        <pt x="933" y="919" on="0"/>
        <pt x="865" y="966" on="0"/>
        <pt x="813" y="987" on="1"/>
        <pt x="637" y="844" on="1"/>
        <pt x="459" y="987" on="1"/>
        <pt x="409" y="967" on="0"/>
        <pt x="340" y="921" on="0"/>
        <pt x="298" y="861" on="0"/>
        <pt x="279" y="784" on="0"/>
        <pt x="279" y="733" on="1"/>
        <pt x="279" y="664" on="0"/>
        <pt x="300" y="538" on="0"/>
        <pt x="329" y="402" on="0"/>
        <pt x="356" y="247" on="0"/>
        <pt x="362" y="150" on="1"/>
        <pt x="377" y="165" on="0"/>
        <pt x="424" y="205" on="0"/>
        <pt x="476" y="249" on="0"/>
        <pt x="530" y="296" on="0"/>
        <pt x="575" y="341" on="0"/>
        <pt x="606" y="382" on="0"/>
        <pt x="609" y="399" on="1"/>
        <pt x="524" y="406" on="0"/>
        <pt x="432" y="505" on="0"/>
        <pt x="432" y="589" on="1"/>
        <pt x="432" y="679" on="0"/>
        <pt x="538" y="780" on="0"/>
        <pt x="635" y="780" on="1"/>
        <pt x="735" y="780" on="0"/>
        <pt x="840" y="671" on="0"/>
        <pt x="840" y="568" on="1"/>
        <pt x="840" y="514" on="0"/>
        <pt x="814" y="426" on="0"/>
        <pt x="767" y="350" on="0"/>
        <pt x="702" y="281" on="0"/>
        <pt x="663" y="246" on="1"/>
        <pt x="626" y="213" on="0"/>
        <pt x="537" y="141" on="0"/>
        <pt x="455" y="74" on="0"/>
        <pt x="388" y="18" on="0"/>
        <pt x="372" y="0" on="1"/>
        <pt x="197" y="0" on="1"/>
        <pt x="197" y="119" on="1"/>
        <pt x="197" y="200" on="0"/>
        <pt x="185" y="325" on="0"/>
        <pt x="166" y="427" on="0"/>
        <pt x="144" y="511" on="0"/>
        <pt x="125" y="593" on="0"/>
        <pt x="113" y="678" on="0"/>
        <pt x="113" y="729" on="1"/>
        <pt x="113" y="812" on="0"/>
        <pt x="148" y="941" on="0"/>
        <pt x="229" y="1041" on="0"/>
        <pt x="363" y="1115" on="0"/>
        <pt x="461" y="1143" on="1"/>
        <pt x="637" y="997" on="1"/>
        <pt x="813" y="1143" on="1"/>
        <pt x="916" y="1114" on="0"/>
        <pt x="1049" y="1037" on="0"/>
        <pt x="1125" y="931" on="0"/>
        <pt x="1155" y="790" on="0"/>
        <pt x="1154" y="696" on="1"/>
        <pt x="1154" y="398" on="1"/>
        <pt x="1256" y="384" on="0"/>
        <pt x="1431" y="277" on="0"/>
        <pt x="1496" y="197" on="1"/>
        <pt x="1496" y="1126" on="1"/>
        <pt x="1664" y="1126" on="1"/>
      </contour>
    </TTGlyph>
    <TTGlyph name="uni0E13" xMin="133" yMin="-18" xMax="1907" yMax="1147">
      <contour>
        <pt x="466" y="172" on="1"/>
        <pt x="466" y="214" on="0"/>
        <pt x="413" y="264" on="0"/>
        <pt x="369" y="264" on="1"/>
        <pt x="327" y="264" on="0"/>
        <pt x="274" y="214" on="0"/>
        <pt x="274" y="172" on="1"/>
        <pt x="274" y="128" on="0"/>
        <pt x="327" y="77" on="0"/>
        <pt x="369" y="77" on="1"/>
        <pt x="413" y="77" on="0"/>
        <pt x="466" y="128" on="0"/>
      </contour>
      <contour>
        <pt x="1649" y="1126" on="1"/>
        <pt x="1649" y="394" on="1"/>
        <pt x="1719" y="386" on="0"/>
        <pt x="1817" y="346" on="0"/>
        <pt x="1879" y="288" on="0"/>
        <pt x="1907" y="214" on="0"/>
        <pt x="1907" y="172" on="1"/>
        <pt x="1907" y="82" on="0"/>
        <pt x="1799" y="-18" on="0"/>
        <pt x="1691" y="-18" on="1"/>
        <pt x="1633" y="-18" on="0"/>
        <pt x="1552" y="11" on="0"/>
        <pt x="1503" y="68" on="0"/>
        <pt x="1481" y="154" on="0"/>
        <pt x="1481" y="211" on="1"/>
        <pt x="1481" y="279" on="1"/>
        <pt x="1431" y="269" on="0"/>
        <pt x="1328" y="217" on="0"/>
        <pt x="1233" y="142" on="0"/>
        <pt x="1149" y="50" on="0"/>
        <pt x="1119" y="0" on="1"/>
        <pt x="950" y="0" on="1"/>
        <pt x="950" y="684" on="1"/>
        <pt x="950" y="760" on="0"/>
        <pt x="912" y="881" on="0"/>
        <pt x="834" y="966" on="0"/>
        <pt x="714" y="1011" on="0"/>
        <pt x="631" y="1011" on="1"/>
        <pt x="552" y="1011" on="0"/>
        <pt x="437" y="976" on="0"/>
        <pt x="359" y="919" on="0"/>
        <pt x="314" y="847" on="0"/>
        <pt x="305" y="811" on="1"/>
        <pt x="345" y="805" on="0"/>
        <pt x="421" y="777" on="0"/>
        <pt x="486" y="741" on="0"/>
        <pt x="536" y="700" on="0"/>
        <pt x="551" y="682" on="1"/>
        <pt x="551" y="625" on="1"/>
        <pt x="494" y="613" on="0"/>
        <pt x="411" y="577" on="0"/>
        <pt x="359" y="522" on="0"/>
        <pt x="334" y="444" on="0"/>
        <pt x="334" y="391" on="1"/>
        <pt x="334" y="358" on="1"/>
        <pt x="339" y="360" on="0"/>
        <pt x="366" y="362" on="0"/>
        <pt x="379" y="362" on="1"/>
        <pt x="472" y="362" on="0"/>
        <pt x="573" y="263" on="0"/>
        <pt x="573" y="172" on="1"/>
        <pt x="573" y="82" on="0"/>
        <pt x="468" y="-18" on="0"/>
        <pt x="371" y="-18" on="1"/>
        <pt x="272" y="-18" on="0"/>
        <pt x="166" y="82" on="0"/>
        <pt x="166" y="172" on="1"/>
        <pt x="166" y="393" on="1"/>
        <pt x="166" y="446" on="0"/>
        <pt x="190" y="530" on="0"/>
        <pt x="243" y="593" on="0"/>
        <pt x="327" y="636" on="0"/>
        <pt x="387" y="649" on="1"/>
        <pt x="362" y="670" on="0"/>
        <pt x="289" y="700" on="0"/>
        <pt x="214" y="720" on="0"/>
        <pt x="149" y="729" on="0"/>
        <pt x="133" y="729" on="1"/>
        <pt x="137" y="821" on="0"/>
        <pt x="204" y="975" on="0"/>
        <pt x="330" y="1086" on="0"/>
        <pt x="513" y="1147" on="0"/>
        <pt x="631" y="1147" on="1"/>
        <pt x="765" y="1147" on="0"/>
        <pt x="951" y="1080" on="0"/>
        <pt x="1066" y="960" on="0"/>
        <pt x="1118" y="794" on="0"/>
        <pt x="1118" y="696" on="1"/>
        <pt x="1118" y="197" on="1"/>
        <pt x="1150" y="237" on="0"/>
        <pt x="1234" y="301" on="0"/>
        <pt x="1328" y="349" on="0"/>
        <pt x="1430" y="381" on="0"/>
        <pt x="1481" y="388" on="1"/>
        <pt x="1481" y="1126" on="1"/>
      </contour>
      <contour>
        <pt x="1790" y="172" on="1"/>
        <pt x="1790" y="219" on="0"/>
        <pt x="1723" y="280" on="0"/>
        <pt x="1649" y="291" on="1"/>
        <pt x="1649" y="178" on="1"/>
        <pt x="1649" y="133" on="0"/>
        <pt x="1679" y="86" on="0"/>
        <pt x="1717" y="86" on="1"/>
        <pt x="1749" y="86" on="0"/>
        <pt x="1790" y="129" on="0"/>
      </contour>
    </TTGlyph>
    <TTGlyph name="uni0E14" xMin="113" yMin="0" xMax="1155" yMax="1147">
      <contour>
        <pt x="730" y="569" on="1"/>
        <pt x="730" y="614" on="0"/>
        <pt x="677" y="663" on="0"/>
        <pt x="633" y="663" on="1"/>
        <pt x="592" y="663" on="0"/>
        <pt x="538" y="614" on="0"/>
        <pt x="538" y="569" on="1"/>
        <pt x="538" y="527" on="0"/>
        <pt x="592" y="476" on="0"/>
        <pt x="633" y="476" on="1"/>
        <pt x="677" y="476" on="0"/>
        <pt x="730" y="527" on="0"/>
      </contour>
      <contour>
        <pt x="609" y="379" on="1"/>
        <pt x="524" y="386" on="0"/>
        <pt x="432" y="485" on="0"/>
        <pt x="432" y="569" on="1"/>
        <pt x="432" y="659" on="0"/>
        <pt x="538" y="760" on="0"/>
        <pt x="635" y="760" on="1"/>
        <pt x="735" y="760" on="0"/>
        <pt x="840" y="651" on="0"/>
        <pt x="840" y="548" on="1"/>
        <pt x="840" y="494" on="0"/>
        <pt x="814" y="406" on="0"/>
        <pt x="767" y="330" on="0"/>
        <pt x="702" y="261" on="0"/>
        <pt x="663" y="226" on="1"/>
        <pt x="626" y="193" on="0"/>
        <pt x="537" y="127" on="0"/>
        <pt x="455" y="68" on="0"/>
        <pt x="388" y="18" on="0"/>
        <pt x="372" y="0" on="1"/>
        <pt x="197" y="0" on="1"/>
        <pt x="197" y="119" on="1"/>
        <pt x="197" y="200" on="0"/>
        <pt x="185" y="325" on="0"/>
        <pt x="166" y="427" on="0"/>
        <pt x="144" y="511" on="0"/>
        <pt x="125" y="593" on="0"/>
        <pt x="113" y="678" on="0"/>
        <pt x="113" y="729" on="1"/>
        <pt x="113" y="823" on="0"/>
        <pt x="185" y="977" on="0"/>
        <pt x="321" y="1087" on="0"/>
        <pt x="516" y="1147" on="0"/>
        <pt x="639" y="1147" on="1"/>
        <pt x="779" y="1147" on="0"/>
        <pt x="975" y="1080" on="0"/>
        <pt x="1099" y="960" on="0"/>
        <pt x="1155" y="794" on="0"/>
        <pt x="1155" y="696" on="1"/>
        <pt x="1155" y="0" on="1"/>
        <pt x="987" y="0" on="1"/>
        <pt x="987" y="684" on="1"/>
        <pt x="987" y="760" on="0"/>
        <pt x="944" y="881" on="0"/>
        <pt x="857" y="966" on="0"/>
        <pt x="726" y="1011" on="0"/>
        <pt x="639" y="1011" on="1"/>
        <pt x="555" y="1011" on="0"/>
        <pt x="422" y="972" on="0"/>
        <pt x="329" y="900" on="0"/>
        <pt x="279" y="797" on="0"/>
        <pt x="279" y="733" on="1"/>
        <pt x="279" y="664" on="0"/>
        <pt x="300" y="538" on="0"/>
        <pt x="329" y="402" on="0"/>
        <pt x="356" y="247" on="0"/>
        <pt x="362" y="150" on="1"/>
        <pt x="385" y="173" on="0"/>
        <pt x="464" y="231" on="0"/>
        <pt x="542" y="293" on="0"/>
        <pt x="604" y="354" on="0"/>
      </contour>
    </TTGlyph>
    <TTGlyph name="uni0E15" xMin="113" yMin="0" xMax="1155" yMax="1143">
      <contour>
        <pt x="730" y="589" on="1"/>
        <pt x="730" y="634" on="0"/>
        <pt x="677" y="683" on="0"/>
        <pt x="633" y="683" on="1"/>
        <pt x="592" y="683" on="0"/>
        <pt x="538" y="634" on="0"/>
        <pt x="538" y="589" on="1"/>
        <pt x="538" y="547" on="0"/>
        <pt x="592" y="496" on="0"/>
        <pt x="633" y="496" on="1"/>
        <pt x="677" y="496" on="0"/>
        <pt x="730" y="547" on="0"/>
      </contour>
      <contour>
        <pt x="113" y="729" on="1"/>
        <pt x="113" y="812" on="0"/>
        <pt x="148" y="941" on="0"/>
        <pt x="229" y="1041" on="0"/>
        <pt x="363" y="1115" on="0"/>
        <pt x="461" y="1143" on="1"/>
        <pt x="637" y="997" on="1"/>
        <pt x="813" y="1143" on="1"/>
        <pt x="916" y="1114" on="0"/>
        <pt x="1048" y="1037" on="0"/>
        <pt x="1125" y="931" on="0"/>
        <pt x="1155" y="790" on="0"/>
        <pt x="1155" y="696" on="1"/>
        <pt x="1155" y="0" on="1"/>
        <pt x="987" y="0" on="1"/>
        <pt x="987" y="684" on="1"/>
        <pt x="987" y="755" on="0"/>
        <pt x="972" y="851" on="0"/>
        <pt x="933" y="919" on="0"/>
        <pt x="865" y="966" on="0"/>
        <pt x="813" y="987" on="1"/>
        <pt x="637" y="844" on="1"/>
        <pt x="459" y="987" on="1"/>
        <pt x="409" y="967" on="0"/>
        <pt x="340" y="921" on="0"/>
        <pt x="298" y="861" on="0"/>
        <pt x="279" y="784" on="0"/>
        <pt x="279" y="733" on="1"/>
        <pt x="279" y="664" on="0"/>
        <pt x="300" y="538" on="0"/>
        <pt x="329" y="402" on="0"/>
        <pt x="356" y="247" on="0"/>
        <pt x="362" y="150" on="1"/>
        <pt x="377" y="165" on="0"/>
        <pt x="424" y="205" on="0"/>
        <pt x="476" y="249" on="0"/>
        <pt x="530" y="296" on="0"/>
        <pt x="575" y="341" on="0"/>
        <pt x="606" y="382" on="0"/>
        <pt x="609" y="399" on="1"/>
        <pt x="524" y="406" on="0"/>
        <pt x="432" y="505" on="0"/>
        <pt x="432" y="589" on="1"/>
        <pt x="432" y="679" on="0"/>
        <pt x="538" y="780" on="0"/>
        <pt x="635" y="780" on="1"/>
        <pt x="735" y="780" on="0"/>
        <pt x="840" y="671" on="0"/>
        <pt x="840" y="568" on="1"/>
        <pt x="840" y="514" on="0"/>
        <pt x="814" y="426" on="0"/>
        <pt x="767" y="350" on="0"/>
        <pt x="702" y="281" on="0"/>
        <pt x="663" y="246" on="1"/>
        <pt x="626" y="213" on="0"/>
        <pt x="537" y="141" on="0"/>
        <pt x="455" y="74" on="0"/>
        <pt x="388" y="18" on="0"/>
        <pt x="372" y="0" on="1"/>
        <pt x="197" y="0" on="1"/>
        <pt x="197" y="119" on="1"/>
        <pt x="197" y="200" on="0"/>
        <pt x="185" y="325" on="0"/>
        <pt x="166" y="427" on="0"/>
        <pt x="144" y="511" on="0"/>
        <pt x="125" y="593" on="0"/>
        <pt x="113" y="678" on="0"/>
      </contour>
    </TTGlyph>
    <TTGlyph name="uni0E16" xMin="133" yMin="-18" xMax="1155" yMax="1147">
      <contour>
        <pt x="466" y="172" on="1"/>
        <pt x="466" y="214" on="0"/>
        <pt x="413" y="264" on="0"/>
        <pt x="369" y="264" on="1"/>
        <pt x="327" y="264" on="0"/>
        <pt x="274" y="214" on="0"/>
        <pt x="274" y="172" on="1"/>
        <pt x="274" y="128" on="0"/>
        <pt x="327" y="77" on="0"/>
        <pt x="369" y="77" on="1"/>
        <pt x="413" y="77" on="0"/>
        <pt x="466" y="128" on="0"/>
      </contour>
      <contour>
        <pt x="133" y="729" on="1"/>
        <pt x="137" y="821" on="0"/>
        <pt x="207" y="975" on="0"/>
        <pt x="337" y="1086" on="0"/>
        <pt x="526" y="1147" on="0"/>
        <pt x="649" y="1147" on="1"/>
        <pt x="789" y="1147" on="0"/>
        <pt x="982" y="1080" on="0"/>
        <pt x="1102" y="960" on="0"/>
        <pt x="1155" y="794" on="0"/>
        <pt x="1155" y="696" on="1"/>
        <pt x="1155" y="0" on="1"/>
        <pt x="987" y="0" on="1"/>
        <pt x="987" y="684" on="1"/>
        <pt x="987" y="760" on="0"/>
        <pt x="947" y="881" on="0"/>
        <pt x="864" y="966" on="0"/>
        <pt x="737" y="1011" on="0"/>
        <pt x="649" y="1011" on="1"/>
        <pt x="565" y="1011" on="0"/>
        <pt x="445" y="976" on="0"/>
        <pt x="362" y="919" on="0"/>
        <pt x="315" y="847" on="0"/>
        <pt x="305" y="811" on="1"/>
        <pt x="345" y="805" on="0"/>
        <pt x="421" y="777" on="0"/>
        <pt x="486" y="741" on="0"/>
        <pt x="536" y="700" on="0"/>
        <pt x="551" y="682" on="1"/>
        <pt x="551" y="625" on="1"/>
        <pt x="494" y="613" on="0"/>
        <pt x="411" y="577" on="0"/>
        <pt x="359" y="522" on="0"/>
        <pt x="334" y="444" on="0"/>
        <pt x="334" y="391" on="1"/>
        <pt x="334" y="358" on="1"/>
        <pt x="339" y="360" on="0"/>
        <pt x="371" y="362" on="0"/>
        <pt x="383" y="362" on="1"/>
        <pt x="473" y="362" on="0"/>
        <pt x="573" y="263" on="0"/>
        <pt x="573" y="172" on="1"/>
        <pt x="573" y="82" on="0"/>
        <pt x="468" y="-18" on="0"/>
        <pt x="371" y="-18" on="1"/>
        <pt x="272" y="-18" on="0"/>
        <pt x="166" y="82" on="0"/>
        <pt x="166" y="172" on="1"/>
        <pt x="166" y="393" on="1"/>
        <pt x="166" y="446" on="0"/>
        <pt x="190" y="530" on="0"/>
        <pt x="243" y="593" on="0"/>
        <pt x="327" y="636" on="0"/>
        <pt x="387" y="649" on="1"/>
        <pt x="362" y="670" on="0"/>
        <pt x="289" y="700" on="0"/>
        <pt x="214" y="720" on="0"/>
        <pt x="149" y="729" on="0"/>
      </contour>
    </TTGlyph>
    <TTGlyph name="uni0E17" xMin="45" yMin="0" xMax="1253" yMax="1147">
      <contour>
        <pt x="284" y="0" on="1"/>
        <pt x="284" y="760" on="1"/>
        <pt x="279" y="758" on="0"/>
        <pt x="248" y="756" on="0"/>
        <pt x="235" y="756" on="1"/>
        <pt x="146" y="756" on="0"/>
        <pt x="45" y="855" on="0"/>
        <pt x="45" y="946" on="1"/>
        <pt x="45" y="1036" on="0"/>
        <pt x="151" y="1137" on="0"/>
        <pt x="248" y="1137" on="1"/>
        <pt x="347" y="1137" on="0"/>
        <pt x="452" y="1036" on="0"/>
        <pt x="452" y="946" on="1"/>
        <pt x="452" y="150" on="1"/>
        <pt x="821" y="924" on="1"/>
        <pt x="851" y="989" on="0"/>
        <pt x="907" y="1075" on="0"/>
        <pt x="967" y="1126" on="0"/>
        <pt x="1036" y="1147" on="0"/>
        <pt x="1079" y="1147" on="1"/>
        <pt x="1164" y="1147" on="0"/>
        <pt x="1253" y="1029" on="0"/>
        <pt x="1253" y="908" on="1"/>
        <pt x="1253" y="0" on="1"/>
        <pt x="1085" y="0" on="1"/>
        <pt x="1085" y="925" on="1"/>
        <pt x="1085" y="970" on="0"/>
        <pt x="1066" y="1010" on="0"/>
        <pt x="1049" y="1010" on="1"/>
        <pt x="1032" y="1010" on="0"/>
        <pt x="988" y="953" on="0"/>
        <pt x="954" y="881" on="1"/>
        <pt x="535" y="0" on="1"/>
      </contour>
      <contour>
        <pt x="153" y="946" on="1"/>
        <pt x="153" y="904" on="0"/>
        <pt x="205" y="853" on="0"/>
        <pt x="250" y="853" on="1"/>
        <pt x="291" y="853" on="0"/>
        <pt x="345" y="904" on="0"/>
        <pt x="345" y="946" on="1"/>
        <pt x="345" y="990" on="0"/>
        <pt x="291" y="1040" on="0"/>
        <pt x="250" y="1040" on="1"/>
        <pt x="205" y="1040" on="0"/>
        <pt x="153" y="990" on="0"/>
      </contour>
    </TTGlyph>
    <TTGlyph name="uni0E18" xMin="123" yMin="0" xMax="1037" yMax="1127">
      <contour>
        <pt x="863" y="410" on="1"/>
        <pt x="863" y="529" on="0"/>
        <pt x="737" y="654" on="0"/>
        <pt x="602" y="654" on="1"/>
        <pt x="123" y="654" on="1"/>
        <pt x="123" y="783" on="0"/>
        <pt x="161" y="963" on="0"/>
        <pt x="250" y="1076" on="0"/>
        <pt x="397" y="1127" on="0"/>
        <pt x="507" y="1127" on="1"/>
        <pt x="1037" y="1127" on="1"/>
        <pt x="1037" y="994" on="1"/>
        <pt x="492" y="994" on="1"/>
        <pt x="449" y="994" on="0"/>
        <pt x="375" y="966" on="0"/>
        <pt x="323" y="914" on="0"/>
        <pt x="293" y="837" on="0"/>
        <pt x="293" y="787" on="1"/>
        <pt x="636" y="787" on="1"/>
        <pt x="743" y="787" on="0"/>
        <pt x="893" y="746" on="0"/>
        <pt x="987" y="653" on="0"/>
        <pt x="1031" y="504" on="0"/>
        <pt x="1031" y="397" on="1"/>
        <pt x="1031" y="354" on="1"/>
        <pt x="1031" y="275" on="0"/>
        <pt x="987" y="144" on="0"/>
        <pt x="900" y="51" on="0"/>
        <pt x="770" y="0" on="0"/>
        <pt x="684" y="0" on="1"/>
        <pt x="164" y="0" on="1"/>
        <pt x="164" y="449" on="1"/>
        <pt x="332" y="449" on="1"/>
        <pt x="332" y="144" on="1"/>
        <pt x="619" y="144" on="1"/>
        <pt x="681" y="144" on="0"/>
        <pt x="773" y="166" on="0"/>
        <pt x="833" y="219" on="0"/>
        <pt x="863" y="309" on="0"/>
        <pt x="863" y="377" on="1"/>
      </contour>
    </TTGlyph>
    <TTGlyph name="uni0E19" xMin="45" yMin="-18" xMax="1240" yMax="1137">
      <contour>
        <pt x="153" y="946" on="1"/>
        <pt x="153" y="904" on="0"/>
        <pt x="205" y="853" on="0"/>
        <pt x="250" y="853" on="1"/>
        <pt x="291" y="853" on="0"/>
        <pt x="345" y="904" on="0"/>
        <pt x="345" y="946" on="1"/>
        <pt x="345" y="990" on="0"/>
        <pt x="291" y="1040" on="0"/>
        <pt x="250" y="1040" on="1"/>
        <pt x="205" y="1040" on="0"/>
        <pt x="153" y="990" on="0"/>
      </contour>
      <contour>
        <pt x="982" y="1126" on="1"/>
        <pt x="982" y="394" on="1"/>
        <pt x="1052" y="386" on="0"/>
        <pt x="1150" y="346" on="0"/>
        <pt x="1212" y="288" on="0"/>
        <pt x="1240" y="214" on="0"/>
        <pt x="1240" y="172" on="1"/>
        <pt x="1240" y="82" on="0"/>
        <pt x="1132" y="-18" on="0"/>
        <pt x="1024" y="-18" on="1"/>
        <pt x="966" y="-18" on="0"/>
        <pt x="885" y="11" on="0"/>
        <pt x="836" y="68" on="0"/>
        <pt x="814" y="154" on="0"/>
        <pt x="814" y="211" on="1"/>
        <pt x="814" y="279" on="1"/>
        <pt x="764" y="269" on="0"/>
        <pt x="661" y="217" on="0"/>
        <pt x="566" y="142" on="0"/>
        <pt x="482" y="50" on="0"/>
        <pt x="452" y="0" on="1"/>
        <pt x="284" y="0" on="1"/>
        <pt x="284" y="760" on="1"/>
        <pt x="279" y="758" on="0"/>
        <pt x="248" y="756" on="0"/>
        <pt x="235" y="756" on="1"/>
        <pt x="146" y="756" on="0"/>
        <pt x="45" y="855" on="0"/>
        <pt x="45" y="946" on="1"/>
        <pt x="45" y="1036" on="0"/>
        <pt x="151" y="1137" on="0"/>
        <pt x="248" y="1137" on="1"/>
        <pt x="347" y="1137" on="0"/>
        <pt x="452" y="1036" on="0"/>
        <pt x="452" y="946" on="1"/>
        <pt x="452" y="197" on="1"/>
        <pt x="484" y="237" on="0"/>
        <pt x="567" y="301" on="0"/>
        <pt x="662" y="349" on="0"/>
        <pt x="763" y="381" on="0"/>
        <pt x="814" y="388" on="1"/>
        <pt x="814" y="1126" on="1"/>
      </contour>
      <contour>
        <pt x="1123" y="172" on="1"/>
        <pt x="1123" y="219" on="0"/>
        <pt x="1056" y="280" on="0"/>
        <pt x="982" y="291" on="1"/>
        <pt x="982" y="178" on="1"/>
        <pt x="982" y="133" on="0"/>
        <pt x="1012" y="86" on="0"/>
        <pt x="1050" y="86" on="1"/>
        <pt x="1082" y="86" on="0"/>
        <pt x="1123" y="129" on="0"/>
      </contour>
    </TTGlyph>
    <TTGlyph name="uni0E1A" xMin="45" yMin="0" xMax="1141" yMax="1137">
      <contour>
        <pt x="111" y="135" on="1"/>
        <pt x="284" y="135" on="1"/>
        <pt x="284" y="760" on="1"/>
        <pt x="279" y="758" on="0"/>
        <pt x="248" y="756" on="0"/>
        <pt x="235" y="756" on="1"/>
        <pt x="146" y="756" on="0"/>
        <pt x="45" y="855" on="0"/>
        <pt x="45" y="946" on="1"/>
        <pt x="45" y="1036" on="0"/>
        <pt x="151" y="1137" on="0"/>
        <pt x="248" y="1137" on="1"/>
        <pt x="347" y="1137" on="0"/>
        <pt x="452" y="1036" on="0"/>
        <pt x="452" y="946" on="1"/>
        <pt x="452" y="135" on="1"/>
        <pt x="730" y="135" on="1"/>
        <pt x="855" y="135" on="0"/>
        <pt x="973" y="253" on="0"/>
        <pt x="973" y="389" on="1"/>
        <pt x="973" y="1126" on="1"/>
        <pt x="1141" y="1126" on="1"/>
        <pt x="1141" y="354" on="1"/>
        <pt x="1141" y="275" on="0"/>
        <pt x="1097" y="144" on="0"/>
        <pt x="1010" y="51" on="0"/>
        <pt x="880" y="0" on="0"/>
        <pt x="794" y="0" on="1"/>
        <pt x="111" y="0" on="1"/>
      </contour>
      <contour>
        <pt x="153" y="946" on="1"/>
        <pt x="153" y="904" on="0"/>
        <pt x="205" y="853" on="0"/>
        <pt x="250" y="853" on="1"/>
        <pt x="291" y="853" on="0"/>
        <pt x="345" y="904" on="0"/>
        <pt x="345" y="946" on="1"/>
        <pt x="345" y="990" on="0"/>
        <pt x="291" y="1040" on="0"/>
        <pt x="250" y="1040" on="1"/>
        <pt x="205" y="1040" on="0"/>
        <pt x="153" y="990" on="0"/>
      </contour>
    </TTGlyph>
    <TTGlyph name="uni0E1B" xMin="45" yMin="0" xMax="1141" yMax="1690">
      <contour>
        <pt x="111" y="135" on="1"/>
        <pt x="284" y="135" on="1"/>
        <pt x="284" y="760" on="1"/>
        <pt x="279" y="758" on="0"/>
        <pt x="248" y="756" on="0"/>
        <pt x="235" y="756" on="1"/>
        <pt x="146" y="756" on="0"/>
        <pt x="45" y="855" on="0"/>
        <pt x="45" y="946" on="1"/>
        <pt x="45" y="1036" on="0"/>
        <pt x="151" y="1137" on="0"/>
        <pt x="248" y="1137" on="1"/>
        <pt x="347" y="1137" on="0"/>
        <pt x="452" y="1036" on="0"/>
        <pt x="452" y="946" on="1"/>
        <pt x="452" y="135" on="1"/>
        <pt x="730" y="135" on="1"/>
        <pt x="855" y="135" on="0"/>
        <pt x="973" y="253" on="0"/>
        <pt x="973" y="389" on="1"/>
        <pt x="973" y="1690" on="1"/>
        <pt x="1141" y="1690" on="1"/>
        <pt x="1141" y="354" on="1"/>
        <pt x="1141" y="275" on="0"/>
        <pt x="1097" y="144" on="0"/>
        <pt x="1010" y="51" on="0"/>
        <pt x="880" y="0" on="0"/>
        <pt x="794" y="0" on="1"/>
        <pt x="111" y="0" on="1"/>
      </contour>
      <contour>
        <pt x="153" y="946" on="1"/>
        <pt x="153" y="904" on="0"/>
        <pt x="205" y="853" on="0"/>
        <pt x="250" y="853" on="1"/>
        <pt x="291" y="853" on="0"/>
        <pt x="345" y="904" on="0"/>
        <pt x="345" y="946" on="1"/>
        <pt x="345" y="990" on="0"/>
        <pt x="291" y="1040" on="0"/>
        <pt x="250" y="1040" on="1"/>
        <pt x="205" y="1040" on="0"/>
        <pt x="153" y="990" on="0"/>
      </contour>
    </TTGlyph>
    <TTGlyph name="uni0E1C" xMin="184" yMin="0" xMax="1159" yMax="1137">
      <contour>
        <pt x="184" y="946" on="1"/>
        <pt x="184" y="1036" on="0"/>
        <pt x="290" y="1137" on="0"/>
        <pt x="389" y="1137" on="1"/>
        <pt x="486" y="1137" on="0"/>
        <pt x="592" y="1036" on="0"/>
        <pt x="592" y="946" on="1"/>
        <pt x="592" y="855" on="0"/>
        <pt x="491" y="756" on="0"/>
        <pt x="401" y="756" on="1"/>
        <pt x="389" y="756" on="0"/>
        <pt x="357" y="758" on="0"/>
        <pt x="352" y="760" on="1"/>
        <pt x="352" y="219" on="1"/>
        <pt x="623" y="604" on="1"/>
        <pt x="721" y="604" on="1"/>
        <pt x="991" y="219" on="1"/>
        <pt x="991" y="1126" on="1"/>
        <pt x="1159" y="1126" on="1"/>
        <pt x="1159" y="0" on="1"/>
        <pt x="997" y="0" on="1"/>
        <pt x="672" y="464" on="1"/>
        <pt x="347" y="0" on="1"/>
        <pt x="184" y="0" on="1"/>
      </contour>
      <contour>
        <pt x="484" y="946" on="1"/>
        <pt x="484" y="990" on="0"/>
        <pt x="431" y="1040" on="0"/>
        <pt x="387" y="1040" on="1"/>
        <pt x="346" y="1040" on="0"/>
        <pt x="292" y="990" on="0"/>
        <pt x="292" y="946" on="1"/>
        <pt x="292" y="904" on="0"/>
        <pt x="346" y="853" on="0"/>
        <pt x="387" y="853" on="1"/>
        <pt x="431" y="853" on="0"/>
        <pt x="484" y="904" on="0"/>
      </contour>
    </TTGlyph>
    <TTGlyph name="uni0E1D" xMin="184" yMin="0" xMax="1159" yMax="1690">
      <contour>
        <pt x="184" y="946" on="1"/>
        <pt x="184" y="1036" on="0"/>
        <pt x="290" y="1137" on="0"/>
        <pt x="389" y="1137" on="1"/>
        <pt x="486" y="1137" on="0"/>
        <pt x="592" y="1036" on="0"/>
        <pt x="592" y="946" on="1"/>
        <pt x="592" y="855" on="0"/>
        <pt x="491" y="756" on="0"/>
        <pt x="401" y="756" on="1"/>
        <pt x="389" y="756" on="0"/>
        <pt x="357" y="758" on="0"/>
        <pt x="352" y="760" on="1"/>
        <pt x="352" y="219" on="1"/>
        <pt x="623" y="604" on="1"/>
        <pt x="721" y="604" on="1"/>
        <pt x="991" y="219" on="1"/>
        <pt x="991" y="1690" on="1"/>
        <pt x="1159" y="1690" on="1"/>
        <pt x="1159" y="0" on="1"/>
        <pt x="997" y="0" on="1"/>
        <pt x="672" y="464" on="1"/>
        <pt x="347" y="0" on="1"/>
        <pt x="184" y="0" on="1"/>
      </contour>
      <contour>
        <pt x="484" y="946" on="1"/>
        <pt x="484" y="990" on="0"/>
        <pt x="431" y="1040" on="0"/>
        <pt x="387" y="1040" on="1"/>
        <pt x="346" y="1040" on="0"/>
        <pt x="292" y="990" on="0"/>
        <pt x="292" y="946" on="1"/>
        <pt x="292" y="904" on="0"/>
        <pt x="346" y="853" on="0"/>
        <pt x="387" y="853" on="1"/>
        <pt x="431" y="853" on="0"/>
        <pt x="484" y="904" on="0"/>
      </contour>
    </TTGlyph>
    <TTGlyph name="uni0E1E" xMin="45" yMin="0" xMax="1249" yMax="1137">
      <contour>
        <pt x="284" y="0" on="1"/>
        <pt x="284" y="760" on="1"/>
        <pt x="279" y="758" on="0"/>
        <pt x="248" y="756" on="0"/>
        <pt x="235" y="756" on="1"/>
        <pt x="146" y="756" on="0"/>
        <pt x="45" y="855" on="0"/>
        <pt x="45" y="946" on="1"/>
        <pt x="45" y="1036" on="0"/>
        <pt x="151" y="1137" on="0"/>
        <pt x="248" y="1137" on="1"/>
        <pt x="347" y="1137" on="0"/>
        <pt x="452" y="1036" on="0"/>
        <pt x="452" y="946" on="1"/>
        <pt x="452" y="255" on="1"/>
        <pt x="714" y="1116" on="1"/>
        <pt x="819" y="1116" on="1"/>
        <pt x="1081" y="255" on="1"/>
        <pt x="1081" y="1126" on="1"/>
        <pt x="1249" y="1126" on="1"/>
        <pt x="1249" y="0" on="1"/>
        <pt x="1049" y="0" on="1"/>
        <pt x="767" y="927" on="1"/>
        <pt x="484" y="0" on="1"/>
      </contour>
      <contour>
        <pt x="153" y="946" on="1"/>
        <pt x="153" y="904" on="0"/>
        <pt x="205" y="853" on="0"/>
        <pt x="250" y="853" on="1"/>
        <pt x="291" y="853" on="0"/>
        <pt x="345" y="904" on="0"/>
        <pt x="345" y="946" on="1"/>
        <pt x="345" y="990" on="0"/>
        <pt x="291" y="1040" on="0"/>
        <pt x="250" y="1040" on="1"/>
        <pt x="205" y="1040" on="0"/>
        <pt x="153" y="990" on="0"/>
      </contour>
    </TTGlyph>
    <TTGlyph name="uni0E1F" xMin="45" yMin="0" xMax="1249" yMax="1690">
      <contour>
        <pt x="284" y="0" on="1"/>
        <pt x="284" y="760" on="1"/>
        <pt x="279" y="758" on="0"/>
        <pt x="248" y="756" on="0"/>
        <pt x="235" y="756" on="1"/>
        <pt x="146" y="756" on="0"/>
        <pt x="45" y="855" on="0"/>
        <pt x="45" y="946" on="1"/>
        <pt x="45" y="1036" on="0"/>
        <pt x="151" y="1137" on="0"/>
        <pt x="248" y="1137" on="1"/>
        <pt x="347" y="1137" on="0"/>
        <pt x="452" y="1036" on="0"/>
        <pt x="452" y="946" on="1"/>
        <pt x="452" y="255" on="1"/>
        <pt x="714" y="1116" on="1"/>
        <pt x="819" y="1116" on="1"/>
        <pt x="1081" y="255" on="1"/>
        <pt x="1081" y="1690" on="1"/>
        <pt x="1249" y="1690" on="1"/>
        <pt x="1249" y="0" on="1"/>
        <pt x="1049" y="0" on="1"/>
        <pt x="767" y="927" on="1"/>
        <pt x="484" y="0" on="1"/>
      </contour>
      <contour>
        <pt x="153" y="946" on="1"/>
        <pt x="153" y="904" on="0"/>
        <pt x="205" y="853" on="0"/>
        <pt x="250" y="853" on="1"/>
        <pt x="291" y="853" on="0"/>
        <pt x="345" y="904" on="0"/>
        <pt x="345" y="946" on="1"/>
        <pt x="345" y="990" on="0"/>
        <pt x="291" y="1040" on="0"/>
        <pt x="250" y="1040" on="1"/>
        <pt x="205" y="1040" on="0"/>
        <pt x="153" y="990" on="0"/>
      </contour>
    </TTGlyph>
    <TTGlyph name="uni0E20" xMin="45" yMin="-18" xMax="1151" yMax="1147">
      <contour>
        <pt x="153" y="172" on="1"/>
        <pt x="153" y="128" on="0"/>
        <pt x="206" y="77" on="0"/>
        <pt x="250" y="77" on="1"/>
        <pt x="291" y="77" on="0"/>
        <pt x="345" y="128" on="0"/>
        <pt x="345" y="172" on="1"/>
        <pt x="345" y="214" on="0"/>
        <pt x="291" y="264" on="0"/>
        <pt x="250" y="264" on="1"/>
        <pt x="206" y="264" on="0"/>
        <pt x="153" y="214" on="0"/>
      </contour>
      <contour>
        <pt x="361" y="811" on="1"/>
        <pt x="409" y="805" on="0"/>
        <pt x="505" y="777" on="0"/>
        <pt x="588" y="741" on="0"/>
        <pt x="652" y="700" on="0"/>
        <pt x="670" y="682" on="1"/>
        <pt x="670" y="625" on="1"/>
        <pt x="612" y="613" on="0"/>
        <pt x="530" y="577" on="0"/>
        <pt x="478" y="522" on="0"/>
        <pt x="453" y="444" on="0"/>
        <pt x="453" y="391" on="1"/>
        <pt x="453" y="172" on="1"/>
        <pt x="453" y="82" on="0"/>
        <pt x="347" y="-18" on="0"/>
        <pt x="248" y="-18" on="1"/>
        <pt x="151" y="-18" on="0"/>
        <pt x="45" y="82" on="0"/>
        <pt x="45" y="172" on="1"/>
        <pt x="45" y="263" on="0"/>
        <pt x="147" y="362" on="0"/>
        <pt x="240" y="362" on="1"/>
        <pt x="252" y="362" on="0"/>
        <pt x="280" y="360" on="0"/>
        <pt x="285" y="358" on="1"/>
        <pt x="285" y="393" on="1"/>
        <pt x="285" y="446" on="0"/>
        <pt x="309" y="530" on="0"/>
        <pt x="361" y="593" on="0"/>
        <pt x="445" y="636" on="0"/>
        <pt x="505" y="649" on="1"/>
        <pt x="474" y="670" on="0"/>
        <pt x="384" y="700" on="0"/>
        <pt x="292" y="720" on="0"/>
        <pt x="211" y="729" on="0"/>
        <pt x="190" y="729" on="1"/>
        <pt x="194" y="821" on="0"/>
        <pt x="254" y="975" on="0"/>
        <pt x="371" y="1086" on="0"/>
        <pt x="546" y="1147" on="0"/>
        <pt x="664" y="1147" on="1"/>
        <pt x="798" y="1147" on="0"/>
        <pt x="984" y="1080" on="0"/>
        <pt x="1100" y="960" on="0"/>
        <pt x="1151" y="794" on="0"/>
        <pt x="1151" y="696" on="1"/>
        <pt x="1151" y="0" on="1"/>
        <pt x="983" y="0" on="1"/>
        <pt x="983" y="684" on="1"/>
        <pt x="983" y="760" on="0"/>
        <pt x="945" y="881" on="0"/>
        <pt x="867" y="966" on="0"/>
        <pt x="747" y="1011" on="0"/>
        <pt x="664" y="1011" on="1"/>
        <pt x="585" y="1011" on="0"/>
        <pt x="477" y="976" on="0"/>
        <pt x="408" y="919" on="0"/>
        <pt x="370" y="847" on="0"/>
      </contour>
    </TTGlyph>
    <TTGlyph name="uni0E21" xMin="75" yMin="-18" xMax="1041" yMax="1137">
      <contour>
        <pt x="212" y="946" on="1"/>
        <pt x="212" y="904" on="0"/>
        <pt x="264" y="853" on="0"/>
        <pt x="309" y="853" on="1"/>
        <pt x="350" y="853" on="0"/>
        <pt x="404" y="904" on="0"/>
        <pt x="404" y="946" on="1"/>
        <pt x="404" y="990" on="0"/>
        <pt x="350" y="1040" on="0"/>
        <pt x="309" y="1040" on="1"/>
        <pt x="264" y="1040" on="0"/>
        <pt x="212" y="990" on="0"/>
      </contour>
      <contour>
        <pt x="1041" y="1126" on="1"/>
        <pt x="1041" y="0" on="1"/>
        <pt x="873" y="0" on="1"/>
        <pt x="843" y="50" on="0"/>
        <pt x="759" y="142" on="0"/>
        <pt x="664" y="217" on="0"/>
        <pt x="561" y="269" on="0"/>
        <pt x="511" y="279" on="1"/>
        <pt x="511" y="211" on="1"/>
        <pt x="511" y="97" on="0"/>
        <pt x="408" y="-18" on="0"/>
        <pt x="291" y="-18" on="1"/>
        <pt x="183" y="-18" on="0"/>
        <pt x="75" y="82" on="0"/>
        <pt x="75" y="172" on="1"/>
        <pt x="75" y="214" on="0"/>
        <pt x="106" y="288" on="0"/>
        <pt x="172" y="346" on="0"/>
        <pt x="273" y="386" on="0"/>
        <pt x="343" y="394" on="1"/>
        <pt x="343" y="760" on="1"/>
        <pt x="338" y="758" on="0"/>
        <pt x="307" y="756" on="0"/>
        <pt x="294" y="756" on="1"/>
        <pt x="205" y="756" on="0"/>
        <pt x="104" y="855" on="0"/>
        <pt x="104" y="946" on="1"/>
        <pt x="104" y="1036" on="0"/>
        <pt x="210" y="1137" on="0"/>
        <pt x="307" y="1137" on="1"/>
        <pt x="406" y="1137" on="0"/>
        <pt x="511" y="1036" on="0"/>
        <pt x="511" y="946" on="1"/>
        <pt x="511" y="388" on="1"/>
        <pt x="562" y="381" on="0"/>
        <pt x="663" y="349" on="0"/>
        <pt x="758" y="301" on="0"/>
        <pt x="841" y="237" on="0"/>
        <pt x="873" y="197" on="1"/>
        <pt x="873" y="1126" on="1"/>
      </contour>
      <contour>
        <pt x="192" y="172" on="1"/>
        <pt x="192" y="129" on="0"/>
        <pt x="233" y="86" on="0"/>
        <pt x="265" y="86" on="1"/>
        <pt x="303" y="86" on="0"/>
        <pt x="343" y="133" on="0"/>
        <pt x="343" y="178" on="1"/>
        <pt x="343" y="291" on="1"/>
        <pt x="269" y="280" on="0"/>
        <pt x="192" y="219" on="0"/>
      </contour>
    </TTGlyph>
    <TTGlyph name="uni0E22" xMin="163" yMin="0" xMax="1138" yMax="1137">
      <contour>
        <pt x="331" y="135" on="1"/>
        <pt x="727" y="135" on="1"/>
        <pt x="852" y="135" on="0"/>
        <pt x="970" y="253" on="0"/>
        <pt x="970" y="389" on="1"/>
        <pt x="970" y="1126" on="1"/>
        <pt x="1138" y="1126" on="1"/>
        <pt x="1138" y="354" on="1"/>
        <pt x="1138" y="275" on="0"/>
        <pt x="1094" y="144" on="0"/>
        <pt x="1007" y="51" on="0"/>
        <pt x="877" y="0" on="0"/>
        <pt x="791" y="0" on="1"/>
        <pt x="163" y="0" on="1"/>
        <pt x="163" y="311" on="1"/>
        <pt x="163" y="358" on="0"/>
        <pt x="196" y="431" on="0"/>
        <pt x="251" y="484" on="0"/>
        <pt x="321" y="518" on="0"/>
        <pt x="358" y="525" on="1"/>
        <pt x="321" y="532" on="0"/>
        <pt x="251" y="569" on="0"/>
        <pt x="196" y="626" on="0"/>
        <pt x="163" y="703" on="0"/>
        <pt x="163" y="750" on="1"/>
        <pt x="163" y="946" on="1"/>
        <pt x="163" y="1036" on="0"/>
        <pt x="269" y="1137" on="0"/>
        <pt x="368" y="1137" on="1"/>
        <pt x="465" y="1137" on="0"/>
        <pt x="571" y="1036" on="0"/>
        <pt x="571" y="946" on="1"/>
        <pt x="571" y="855" on="0"/>
        <pt x="470" y="756" on="0"/>
        <pt x="380" y="756" on="1"/>
        <pt x="368" y="756" on="0"/>
        <pt x="336" y="758" on="0"/>
        <pt x="331" y="760" on="1"/>
        <pt x="331" y="739" on="1"/>
        <pt x="331" y="696" on="0"/>
        <pt x="368" y="637" on="0"/>
        <pt x="427" y="600" on="0"/>
        <pt x="500" y="580" on="0"/>
        <pt x="536" y="576" on="1"/>
        <pt x="536" y="475" on="1"/>
        <pt x="500" y="471" on="0"/>
        <pt x="427" y="449" on="0"/>
        <pt x="368" y="409" on="0"/>
        <pt x="331" y="350" on="0"/>
        <pt x="331" y="309" on="1"/>
      </contour>
      <contour>
        <pt x="463" y="946" on="1"/>
        <pt x="463" y="990" on="0"/>
        <pt x="410" y="1040" on="0"/>
        <pt x="366" y="1040" on="1"/>
        <pt x="325" y="1040" on="0"/>
        <pt x="271" y="990" on="0"/>
        <pt x="271" y="946" on="1"/>
        <pt x="271" y="904" on="0"/>
        <pt x="325" y="853" on="0"/>
        <pt x="366" y="853" on="1"/>
        <pt x="410" y="853" on="0"/>
        <pt x="463" y="904" on="0"/>
      </contour>
    </TTGlyph>
    <TTGlyph name="uni0E23" xMin="75" yMin="-18" xMax="989" yMax="1127">
      <contour>
        <pt x="561" y="172" on="1"/>
        <pt x="561" y="128" on="0"/>
        <pt x="614" y="77" on="0"/>
        <pt x="658" y="77" on="1"/>
        <pt x="699" y="77" on="0"/>
        <pt x="753" y="128" on="0"/>
        <pt x="753" y="172" on="1"/>
        <pt x="753" y="214" on="0"/>
        <pt x="699" y="264" on="0"/>
        <pt x="658" y="264" on="1"/>
        <pt x="614" y="264" on="0"/>
        <pt x="561" y="214" on="0"/>
      </contour>
      <contour>
        <pt x="693" y="450" on="1"/>
        <pt x="693" y="569" on="0"/>
        <pt x="567" y="694" on="0"/>
        <pt x="432" y="694" on="1"/>
        <pt x="75" y="694" on="1"/>
        <pt x="75" y="822" on="0"/>
        <pt x="113" y="989" on="0"/>
        <pt x="202" y="1088" on="0"/>
        <pt x="349" y="1127" on="0"/>
        <pt x="459" y="1127" on="1"/>
        <pt x="989" y="1127" on="1"/>
        <pt x="989" y="994" on="1"/>
        <pt x="444" y="994" on="1"/>
        <pt x="401" y="994" on="0"/>
        <pt x="327" y="973" on="0"/>
        <pt x="275" y="932" on="0"/>
        <pt x="245" y="869" on="0"/>
        <pt x="245" y="827" on="1"/>
        <pt x="466" y="827" on="1"/>
        <pt x="573" y="827" on="0"/>
        <pt x="723" y="786" on="0"/>
        <pt x="817" y="693" on="0"/>
        <pt x="861" y="544" on="0"/>
        <pt x="861" y="437" on="1"/>
        <pt x="861" y="172" on="1"/>
        <pt x="861" y="82" on="0"/>
        <pt x="755" y="-18" on="0"/>
        <pt x="657" y="-18" on="1"/>
        <pt x="560" y="-18" on="0"/>
        <pt x="453" y="82" on="0"/>
        <pt x="453" y="172" on="1"/>
        <pt x="453" y="263" on="0"/>
        <pt x="554" y="363" on="0"/>
        <pt x="643" y="363" on="1"/>
        <pt x="656" y="363" on="0"/>
        <pt x="688" y="361" on="0"/>
        <pt x="693" y="359" on="1"/>
      </contour>
    </TTGlyph>
    <TTGlyph name="uni0E24" xMin="133" yMin="-520" xMax="1155" yMax="1147">
      <contour>
        <pt x="466" y="172" on="1"/>
        <pt x="466" y="214" on="0"/>
        <pt x="413" y="264" on="0"/>
        <pt x="369" y="264" on="1"/>
        <pt x="327" y="264" on="0"/>
        <pt x="274" y="214" on="0"/>
        <pt x="274" y="172" on="1"/>
        <pt x="274" y="128" on="0"/>
        <pt x="327" y="77" on="0"/>
        <pt x="369" y="77" on="1"/>
        <pt x="413" y="77" on="0"/>
        <pt x="466" y="128" on="0"/>
      </contour>
      <contour>
        <pt x="133" y="729" on="1"/>
        <pt x="137" y="821" on="0"/>
        <pt x="207" y="975" on="0"/>
        <pt x="337" y="1086" on="0"/>
        <pt x="526" y="1147" on="0"/>
        <pt x="649" y="1147" on="1"/>
        <pt x="789" y="1147" on="0"/>
        <pt x="982" y="1080" on="0"/>
        <pt x="1102" y="960" on="0"/>
        <pt x="1155" y="794" on="0"/>
        <pt x="1155" y="696" on="1"/>
        <pt x="1155" y="-520" on="1"/>
        <pt x="987" y="-520" on="1"/>
        <pt x="987" y="684" on="1"/>
        <pt x="987" y="760" on="0"/>
        <pt x="947" y="881" on="0"/>
        <pt x="864" y="966" on="0"/>
        <pt x="737" y="1011" on="0"/>
        <pt x="649" y="1011" on="1"/>
        <pt x="565" y="1011" on="0"/>
        <pt x="445" y="976" on="0"/>
        <pt x="362" y="919" on="0"/>
        <pt x="315" y="847" on="0"/>
        <pt x="305" y="811" on="1"/>
        <pt x="345" y="805" on="0"/>
        <pt x="421" y="777" on="0"/>
        <pt x="486" y="741" on="0"/>
        <pt x="536" y="700" on="0"/>
        <pt x="551" y="682" on="1"/>
        <pt x="551" y="625" on="1"/>
        <pt x="494" y="613" on="0"/>
        <pt x="411" y="577" on="0"/>
        <pt x="359" y="522" on="0"/>
        <pt x="334" y="444" on="0"/>
        <pt x="334" y="391" on="1"/>
        <pt x="334" y="358" on="1"/>
        <pt x="339" y="360" on="0"/>
        <pt x="371" y="362" on="0"/>
        <pt x="383" y="362" on="1"/>
        <pt x="473" y="362" on="0"/>
        <pt x="573" y="263" on="0"/>
        <pt x="573" y="172" on="1"/>
        <pt x="573" y="82" on="0"/>
        <pt x="468" y="-18" on="0"/>
        <pt x="371" y="-18" on="1"/>
        <pt x="272" y="-18" on="0"/>
        <pt x="166" y="82" on="0"/>
        <pt x="166" y="172" on="1"/>
        <pt x="166" y="393" on="1"/>
        <pt x="166" y="446" on="0"/>
        <pt x="190" y="530" on="0"/>
        <pt x="243" y="593" on="0"/>
        <pt x="327" y="636" on="0"/>
        <pt x="387" y="649" on="1"/>
        <pt x="362" y="670" on="0"/>
        <pt x="289" y="700" on="0"/>
        <pt x="214" y="720" on="0"/>
        <pt x="149" y="729" on="0"/>
      </contour>
    </TTGlyph>
    <TTGlyph name="uni0E25" xMin="110" yMin="-18" xMax="1120" yMax="1147">
      <contour>
        <pt x="443" y="172" on="1"/>
        <pt x="443" y="214" on="0"/>
        <pt x="390" y="264" on="0"/>
        <pt x="346" y="264" on="1"/>
        <pt x="304" y="264" on="0"/>
        <pt x="251" y="214" on="0"/>
        <pt x="251" y="172" on="1"/>
        <pt x="251" y="128" on="0"/>
        <pt x="304" y="77" on="0"/>
        <pt x="346" y="77" on="1"/>
        <pt x="390" y="77" on="0"/>
        <pt x="443" y="128" on="0"/>
      </contour>
      <contour>
        <pt x="1120" y="0" on="1"/>
        <pt x="960" y="0" on="1"/>
        <pt x="923" y="111" on="0"/>
        <pt x="822" y="306" on="0"/>
        <pt x="703" y="451" on="0"/>
        <pt x="569" y="535" on="0"/>
        <pt x="498" y="535" on="1"/>
        <pt x="457" y="535" on="0"/>
        <pt x="388" y="517" on="0"/>
        <pt x="339" y="481" on="0"/>
        <pt x="311" y="427" on="0"/>
        <pt x="311" y="391" on="1"/>
        <pt x="311" y="358" on="1"/>
        <pt x="316" y="360" on="0"/>
        <pt x="348" y="362" on="0"/>
        <pt x="360" y="362" on="1"/>
        <pt x="450" y="362" on="0"/>
        <pt x="550" y="263" on="0"/>
        <pt x="550" y="172" on="1"/>
        <pt x="550" y="82" on="0"/>
        <pt x="445" y="-18" on="0"/>
        <pt x="348" y="-18" on="1"/>
        <pt x="249" y="-18" on="0"/>
        <pt x="143" y="82" on="0"/>
        <pt x="143" y="172" on="1"/>
        <pt x="143" y="393" on="1"/>
        <pt x="143" y="454" on="0"/>
        <pt x="180" y="556" on="0"/>
        <pt x="258" y="631" on="0"/>
        <pt x="379" y="673" on="0"/>
        <pt x="463" y="673" on="1"/>
        <pt x="555" y="673" on="0"/>
        <pt x="711" y="603" on="0"/>
        <pt x="835" y="491" on="0"/>
        <pt x="926" y="349" on="0"/>
        <pt x="952" y="277" on="1"/>
        <pt x="952" y="665" on="1"/>
        <pt x="952" y="752" on="0"/>
        <pt x="901" y="881" on="0"/>
        <pt x="809" y="967" on="0"/>
        <pt x="679" y="1009" on="0"/>
        <pt x="601" y="1009" on="1"/>
        <pt x="475" y="1009" on="0"/>
        <pt x="275" y="943" on="0"/>
        <pt x="188" y="885" on="1"/>
        <pt x="110" y="1008" on="1"/>
        <pt x="202" y="1072" on="0"/>
        <pt x="442" y="1147" on="0"/>
        <pt x="600" y="1147" on="1"/>
        <pt x="727" y="1147" on="0"/>
        <pt x="921" y="1083" on="0"/>
        <pt x="1053" y="962" on="0"/>
        <pt x="1120" y="787" on="0"/>
        <pt x="1120" y="676" on="1"/>
      </contour>
    </TTGlyph>
    <TTGlyph name="uni0E26" xMin="45" yMin="-520" xMax="1151" yMax="1147">
      <contour>
        <pt x="153" y="172" on="1"/>
        <pt x="153" y="128" on="0"/>
        <pt x="206" y="77" on="0"/>
        <pt x="250" y="77" on="1"/>
        <pt x="291" y="77" on="0"/>
        <pt x="345" y="128" on="0"/>
        <pt x="345" y="172" on="1"/>
        <pt x="345" y="214" on="0"/>
        <pt x="291" y="264" on="0"/>
        <pt x="250" y="264" on="1"/>
        <pt x="206" y="264" on="0"/>
        <pt x="153" y="214" on="0"/>
      </contour>
      <contour>
        <pt x="371" y="811" on="1"/>
        <pt x="419" y="805" on="0"/>
        <pt x="511" y="777" on="0"/>
        <pt x="590" y="741" on="0"/>
        <pt x="652" y="700" on="0"/>
        <pt x="670" y="682" on="1"/>
        <pt x="670" y="625" on="1"/>
        <pt x="612" y="613" on="0"/>
        <pt x="530" y="577" on="0"/>
        <pt x="478" y="522" on="0"/>
        <pt x="453" y="444" on="0"/>
        <pt x="453" y="391" on="1"/>
        <pt x="453" y="172" on="1"/>
        <pt x="453" y="82" on="0"/>
        <pt x="347" y="-18" on="0"/>
        <pt x="248" y="-18" on="1"/>
        <pt x="151" y="-18" on="0"/>
        <pt x="45" y="82" on="0"/>
        <pt x="45" y="172" on="1"/>
        <pt x="45" y="263" on="0"/>
        <pt x="147" y="362" on="0"/>
        <pt x="240" y="362" on="1"/>
        <pt x="252" y="362" on="0"/>
        <pt x="280" y="360" on="0"/>
        <pt x="285" y="358" on="1"/>
        <pt x="285" y="393" on="1"/>
        <pt x="285" y="446" on="0"/>
        <pt x="303" y="530" on="0"/>
        <pt x="348" y="593" on="0"/>
        <pt x="425" y="636" on="0"/>
        <pt x="485" y="649" on="1"/>
        <pt x="454" y="670" on="0"/>
        <pt x="370" y="700" on="0"/>
        <pt x="285" y="720" on="0"/>
        <pt x="211" y="729" on="0"/>
        <pt x="190" y="729" on="1"/>
        <pt x="194" y="821" on="0"/>
        <pt x="254" y="975" on="0"/>
        <pt x="370" y="1086" on="0"/>
        <pt x="545" y="1147" on="0"/>
        <pt x="663" y="1147" on="1"/>
        <pt x="798" y="1147" on="0"/>
        <pt x="984" y="1080" on="0"/>
        <pt x="1099" y="960" on="0"/>
        <pt x="1151" y="794" on="0"/>
        <pt x="1151" y="696" on="1"/>
        <pt x="1151" y="-520" on="1"/>
        <pt x="983" y="-520" on="1"/>
        <pt x="983" y="684" on="1"/>
        <pt x="983" y="836" on="0"/>
        <pt x="830" y="1001" on="0"/>
        <pt x="663" y="1001" on="1"/>
        <pt x="584" y="1001" on="0"/>
        <pt x="480" y="969" on="0"/>
        <pt x="414" y="915" on="0"/>
        <pt x="380" y="847" on="0"/>
      </contour>
    </TTGlyph>
    <TTGlyph name="uni0E27" xMin="0" yMin="-18" xMax="830" yMax="1147">
      <contour>
        <pt x="530" y="172" on="1"/>
        <pt x="530" y="128" on="0"/>
        <pt x="583" y="77" on="0"/>
        <pt x="627" y="77" on="1"/>
        <pt x="668" y="77" on="0"/>
        <pt x="722" y="128" on="0"/>
        <pt x="722" y="172" on="1"/>
        <pt x="722" y="214" on="0"/>
        <pt x="668" y="264" on="0"/>
        <pt x="627" y="264" on="1"/>
        <pt x="583" y="264" on="0"/>
        <pt x="530" y="214" on="0"/>
      </contour>
      <contour>
        <pt x="422" y="172" on="1"/>
        <pt x="422" y="263" on="0"/>
        <pt x="523" y="363" on="0"/>
        <pt x="612" y="363" on="1"/>
        <pt x="625" y="363" on="0"/>
        <pt x="657" y="361" on="0"/>
        <pt x="662" y="359" on="1"/>
        <pt x="662" y="719" on="1"/>
        <pt x="662" y="782" on="0"/>
        <pt x="632" y="888" on="0"/>
        <pt x="571" y="966" on="0"/>
        <pt x="478" y="1009" on="0"/>
        <pt x="415" y="1009" on="1"/>
        <pt x="329" y="1009" on="0"/>
        <pt x="158" y="947" on="0"/>
        <pt x="80" y="891" on="1"/>
        <pt x="0" y="1008" on="1"/>
        <pt x="85" y="1070" on="0"/>
        <pt x="289" y="1147" on="0"/>
        <pt x="414" y="1147" on="1"/>
        <pt x="514" y="1147" on="0"/>
        <pt x="669" y="1089" on="0"/>
        <pt x="775" y="981" on="0"/>
        <pt x="830" y="827" on="0"/>
        <pt x="830" y="731" on="1"/>
        <pt x="830" y="172" on="1"/>
        <pt x="830" y="82" on="0"/>
        <pt x="724" y="-18" on="0"/>
        <pt x="625" y="-18" on="1"/>
        <pt x="528" y="-18" on="0"/>
        <pt x="422" y="82" on="0"/>
      </contour>
    </TTGlyph>
    <TTGlyph name="uni0E28" xMin="113" yMin="0" xMax="1384" yMax="1207">
      <contour>
        <pt x="1125" y="877" on="1"/>
        <pt x="1139" y="840" on="0"/>
        <pt x="1155" y="744" on="0"/>
        <pt x="1155" y="696" on="1"/>
        <pt x="1155" y="0" on="1"/>
        <pt x="987" y="0" on="1"/>
        <pt x="987" y="684" on="1"/>
        <pt x="987" y="709" on="0"/>
        <pt x="982" y="755" on="0"/>
        <pt x="977" y="777" on="1"/>
        <pt x="902" y="741" on="0"/>
        <pt x="803" y="705" on="1"/>
        <pt x="852" y="654" on="0"/>
        <pt x="852" y="569" on="1"/>
        <pt x="852" y="478" on="0"/>
        <pt x="748" y="379" on="0"/>
        <pt x="649" y="379" on="1"/>
        <pt x="604" y="379" on="0"/>
        <pt x="529" y="413" on="0"/>
        <pt x="510" y="436" on="1"/>
        <pt x="500" y="425" on="0"/>
        <pt x="453" y="368" on="0"/>
        <pt x="404" y="275" on="0"/>
        <pt x="366" y="146" on="0"/>
        <pt x="365" y="65" on="1"/>
        <pt x="365" y="41" on="1"/>
        <pt x="365" y="0" on="1"/>
        <pt x="197" y="0" on="1"/>
        <pt x="197" y="119" on="1"/>
        <pt x="197" y="200" on="0"/>
        <pt x="185" y="325" on="0"/>
        <pt x="166" y="427" on="0"/>
        <pt x="144" y="511" on="0"/>
        <pt x="125" y="593" on="0"/>
        <pt x="113" y="678" on="0"/>
        <pt x="113" y="729" on="1"/>
        <pt x="113" y="823" on="0"/>
        <pt x="185" y="977" on="0"/>
        <pt x="321" y="1087" on="0"/>
        <pt x="516" y="1147" on="0"/>
        <pt x="639" y="1147" on="1"/>
        <pt x="792" y="1147" on="0"/>
        <pt x="996" y="1068" on="0"/>
        <pt x="1057" y="998" on="1"/>
        <pt x="1082" y="1021" on="0"/>
        <pt x="1155" y="1119" on="0"/>
        <pt x="1196" y="1207" on="1"/>
        <pt x="1384" y="1207" on="1"/>
        <pt x="1355" y="1144" on="0"/>
        <pt x="1287" y="1037" on="0"/>
        <pt x="1217" y="953" on="0"/>
        <pt x="1151" y="893" on="0"/>
      </contour>
      <contour>
        <pt x="938" y="876" on="1"/>
        <pt x="897" y="941" on="0"/>
        <pt x="748" y="1011" on="0"/>
        <pt x="639" y="1011" on="1"/>
        <pt x="555" y="1011" on="0"/>
        <pt x="422" y="972" on="0"/>
        <pt x="329" y="900" on="0"/>
        <pt x="279" y="797" on="0"/>
        <pt x="279" y="733" on="1"/>
        <pt x="279" y="686" on="0"/>
        <pt x="289" y="599" on="0"/>
        <pt x="306" y="510" on="0"/>
        <pt x="326" y="418" on="0"/>
        <pt x="335" y="367" on="1"/>
        <pt x="359" y="450" on="0"/>
        <pt x="417" y="594" on="0"/>
        <pt x="492" y="700" on="0"/>
        <pt x="587" y="760" on="0"/>
        <pt x="649" y="760" on="1"/>
        <pt x="661" y="760" on="0"/>
        <pt x="683" y="758" on="0"/>
        <pt x="694" y="756" on="1"/>
        <pt x="772" y="788" on="0"/>
        <pt x="893" y="846" on="0"/>
      </contour>
      <contour>
        <pt x="744" y="569" on="1"/>
        <pt x="744" y="614" on="0"/>
        <pt x="691" y="663" on="0"/>
        <pt x="647" y="663" on="1"/>
        <pt x="606" y="663" on="0"/>
        <pt x="552" y="614" on="0"/>
        <pt x="552" y="569" on="1"/>
        <pt x="552" y="527" on="0"/>
        <pt x="606" y="476" on="0"/>
        <pt x="647" y="476" on="1"/>
        <pt x="691" y="476" on="0"/>
        <pt x="744" y="527" on="0"/>
      </contour>
    </TTGlyph>
    <TTGlyph name="uni0E29" xMin="45" yMin="0" xMax="1392" yMax="1137">
      <contour>
        <pt x="773" y="395" on="1"/>
        <pt x="707" y="395" on="0"/>
        <pt x="613" y="425" on="0"/>
        <pt x="553" y="478" on="0"/>
        <pt x="525" y="552" on="0"/>
        <pt x="525" y="596" on="1"/>
        <pt x="525" y="676" on="0"/>
        <pt x="626" y="768" on="0"/>
        <pt x="712" y="768" on="1"/>
        <pt x="800" y="768" on="0"/>
        <pt x="897" y="679" on="0"/>
        <pt x="897" y="607" on="1"/>
        <pt x="897" y="565" on="0"/>
        <pt x="868" y="514" on="0"/>
        <pt x="853" y="501" on="1"/>
        <pt x="913" y="514" on="0"/>
        <pt x="973" y="545" on="1"/>
        <pt x="973" y="1126" on="1"/>
        <pt x="1141" y="1126" on="1"/>
        <pt x="1141" y="680" on="1"/>
        <pt x="1204" y="758" on="0"/>
        <pt x="1235" y="863" on="1"/>
        <pt x="1392" y="863" on="1"/>
        <pt x="1352" y="755" on="0"/>
        <pt x="1225" y="580" on="0"/>
        <pt x="1141" y="517" on="1"/>
        <pt x="1141" y="354" on="1"/>
        <pt x="1141" y="275" on="0"/>
        <pt x="1097" y="144" on="0"/>
        <pt x="1010" y="51" on="0"/>
        <pt x="880" y="0" on="0"/>
        <pt x="794" y="0" on="1"/>
        <pt x="111" y="0" on="1"/>
        <pt x="111" y="135" on="1"/>
        <pt x="284" y="135" on="1"/>
        <pt x="284" y="760" on="1"/>
        <pt x="279" y="758" on="0"/>
        <pt x="248" y="756" on="0"/>
        <pt x="235" y="756" on="1"/>
        <pt x="146" y="756" on="0"/>
        <pt x="45" y="855" on="0"/>
        <pt x="45" y="946" on="1"/>
        <pt x="45" y="1036" on="0"/>
        <pt x="151" y="1137" on="0"/>
        <pt x="248" y="1137" on="1"/>
        <pt x="347" y="1137" on="0"/>
        <pt x="452" y="1036" on="0"/>
        <pt x="452" y="946" on="1"/>
        <pt x="452" y="135" on="1"/>
        <pt x="730" y="135" on="1"/>
        <pt x="855" y="135" on="0"/>
        <pt x="973" y="253" on="0"/>
        <pt x="973" y="389" on="1"/>
        <pt x="973" y="428" on="1"/>
        <pt x="879" y="395" on="0"/>
      </contour>
      <contour>
        <pt x="153" y="946" on="1"/>
        <pt x="153" y="904" on="0"/>
        <pt x="205" y="853" on="0"/>
        <pt x="250" y="853" on="1"/>
        <pt x="291" y="853" on="0"/>
        <pt x="345" y="904" on="0"/>
        <pt x="345" y="946" on="1"/>
        <pt x="345" y="990" on="0"/>
        <pt x="291" y="1040" on="0"/>
        <pt x="250" y="1040" on="1"/>
        <pt x="205" y="1040" on="0"/>
        <pt x="153" y="990" on="0"/>
      </contour>
      <contour>
        <pt x="634" y="595" on="1"/>
        <pt x="634" y="561" on="0"/>
        <pt x="677" y="520" on="0"/>
        <pt x="712" y="520" on="1"/>
        <pt x="745" y="520" on="0"/>
        <pt x="788" y="561" on="0"/>
        <pt x="788" y="595" on="1"/>
        <pt x="788" y="630" on="0"/>
        <pt x="745" y="671" on="0"/>
        <pt x="712" y="671" on="1"/>
        <pt x="677" y="671" on="0"/>
        <pt x="634" y="630" on="0"/>
      </contour>
    </TTGlyph>
    <TTGlyph name="uni0E2A" xMin="110" yMin="-18" xMax="1224" yMax="1207">
      <contour>
        <pt x="1120" y="0" on="1"/>
        <pt x="960" y="0" on="1"/>
        <pt x="923" y="111" on="0"/>
        <pt x="822" y="306" on="0"/>
        <pt x="703" y="451" on="0"/>
        <pt x="569" y="535" on="0"/>
        <pt x="498" y="535" on="1"/>
        <pt x="457" y="535" on="0"/>
        <pt x="388" y="517" on="0"/>
        <pt x="339" y="481" on="0"/>
        <pt x="311" y="427" on="0"/>
        <pt x="311" y="391" on="1"/>
        <pt x="311" y="358" on="1"/>
        <pt x="316" y="360" on="0"/>
        <pt x="348" y="362" on="0"/>
        <pt x="360" y="362" on="1"/>
        <pt x="450" y="362" on="0"/>
        <pt x="550" y="263" on="0"/>
        <pt x="550" y="172" on="1"/>
        <pt x="550" y="82" on="0"/>
        <pt x="445" y="-18" on="0"/>
        <pt x="348" y="-18" on="1"/>
        <pt x="249" y="-18" on="0"/>
        <pt x="143" y="82" on="0"/>
        <pt x="143" y="172" on="1"/>
        <pt x="143" y="393" on="1"/>
        <pt x="143" y="454" on="0"/>
        <pt x="180" y="556" on="0"/>
        <pt x="258" y="631" on="0"/>
        <pt x="379" y="673" on="0"/>
        <pt x="463" y="673" on="1"/>
        <pt x="483" y="673" on="0"/>
        <pt x="522" y="669" on="0"/>
        <pt x="541" y="666" on="1"/>
        <pt x="670" y="711" on="0"/>
        <pt x="853" y="797" on="0"/>
        <pt x="913" y="845" on="1"/>
        <pt x="871" y="928" on="0"/>
        <pt x="710" y="1009" on="0"/>
        <pt x="601" y="1009" on="1"/>
        <pt x="475" y="1009" on="0"/>
        <pt x="275" y="943" on="0"/>
        <pt x="188" y="885" on="1"/>
        <pt x="110" y="1008" on="1"/>
        <pt x="202" y="1072" on="0"/>
        <pt x="442" y="1147" on="0"/>
        <pt x="600" y="1147" on="1"/>
        <pt x="747" y="1147" on="0"/>
        <pt x="959" y="1063" on="0"/>
        <pt x="1024" y="983" on="1"/>
        <pt x="1056" y="1054" on="0"/>
        <pt x="1056" y="1152" on="1"/>
        <pt x="1056" y="1207" on="1"/>
        <pt x="1224" y="1207" on="1"/>
        <pt x="1224" y="1164" on="1"/>
        <pt x="1224" y="1071" on="0"/>
        <pt x="1169" y="911" on="0"/>
        <pt x="1098" y="840" on="1"/>
        <pt x="1109" y="803" on="0"/>
        <pt x="1120" y="721" on="0"/>
        <pt x="1120" y="676" on="1"/>
      </contour>
      <contour>
        <pt x="677" y="616" on="1"/>
        <pt x="727" y="588" on="0"/>
        <pt x="811" y="512" on="0"/>
        <pt x="881" y="423" on="0"/>
        <pt x="934" y="326" on="0"/>
        <pt x="952" y="277" on="1"/>
        <pt x="952" y="665" on="1"/>
        <pt x="952" y="682" on="0"/>
        <pt x="950" y="714" on="0"/>
        <pt x="948" y="730" on="1"/>
        <pt x="894" y="699" on="0"/>
        <pt x="759" y="643" on="0"/>
      </contour>
      <contour>
        <pt x="443" y="172" on="1"/>
        <pt x="443" y="214" on="0"/>
        <pt x="390" y="264" on="0"/>
        <pt x="346" y="264" on="1"/>
        <pt x="304" y="264" on="0"/>
        <pt x="251" y="214" on="0"/>
        <pt x="251" y="172" on="1"/>
        <pt x="251" y="128" on="0"/>
        <pt x="304" y="77" on="0"/>
        <pt x="346" y="77" on="1"/>
        <pt x="390" y="77" on="0"/>
        <pt x="443" y="128" on="0"/>
      </contour>
    </TTGlyph>
    <TTGlyph name="uni0E2B" xMin="45" yMin="0" xMax="1147" yMax="1137">
      <contour>
        <pt x="153" y="946" on="1"/>
        <pt x="153" y="904" on="0"/>
        <pt x="205" y="853" on="0"/>
        <pt x="250" y="853" on="1"/>
        <pt x="291" y="853" on="0"/>
        <pt x="345" y="904" on="0"/>
        <pt x="345" y="946" on="1"/>
        <pt x="345" y="990" on="0"/>
        <pt x="291" y="1040" on="0"/>
        <pt x="250" y="1040" on="1"/>
        <pt x="205" y="1040" on="0"/>
        <pt x="153" y="990" on="0"/>
      </contour>
      <contour>
        <pt x="1146" y="0" on="1"/>
        <pt x="978" y="0" on="1"/>
        <pt x="978" y="501" on="1"/>
        <pt x="978" y="573" on="0"/>
        <pt x="953" y="669" on="0"/>
        <pt x="936" y="683" on="1"/>
        <pt x="864" y="621" on="0"/>
        <pt x="721" y="480" on="0"/>
        <pt x="593" y="313" on="0"/>
        <pt x="487" y="117" on="0"/>
        <pt x="452" y="0" on="1"/>
        <pt x="284" y="0" on="1"/>
        <pt x="284" y="760" on="1"/>
        <pt x="279" y="758" on="0"/>
        <pt x="248" y="756" on="0"/>
        <pt x="235" y="756" on="1"/>
        <pt x="146" y="756" on="0"/>
        <pt x="45" y="855" on="0"/>
        <pt x="45" y="946" on="1"/>
        <pt x="45" y="1036" on="0"/>
        <pt x="151" y="1137" on="0"/>
        <pt x="248" y="1137" on="1"/>
        <pt x="347" y="1137" on="0"/>
        <pt x="452" y="1036" on="0"/>
        <pt x="452" y="946" on="1"/>
        <pt x="452" y="308" on="1"/>
        <pt x="483" y="370" on="0"/>
        <pt x="576" y="497" on="0"/>
        <pt x="685" y="614" on="0"/>
        <pt x="802" y="718" on="0"/>
        <pt x="856" y="757" on="1"/>
        <pt x="833" y="774" on="0"/>
        <pt x="790" y="815" on="0"/>
        <pt x="757" y="864" on="0"/>
        <pt x="737" y="920" on="0"/>
        <pt x="737" y="952" on="1"/>
        <pt x="737" y="997" on="0"/>
        <pt x="766" y="1066" on="0"/>
        <pt x="819" y="1113" on="0"/>
        <pt x="894" y="1137" on="0"/>
        <pt x="940" y="1137" on="1"/>
        <pt x="985" y="1137" on="0"/>
        <pt x="1061" y="1114" on="0"/>
        <pt x="1116" y="1068" on="0"/>
        <pt x="1147" y="1000" on="0"/>
        <pt x="1147" y="955" on="1"/>
        <pt x="1147" y="898" on="0"/>
        <pt x="1090" y="812" on="0"/>
        <pt x="1043" y="774" on="1"/>
        <pt x="1076" y="744" on="0"/>
        <pt x="1117" y="683" on="0"/>
        <pt x="1139" y="616" on="0"/>
        <pt x="1146" y="542" on="0"/>
        <pt x="1146" y="500" on="1"/>
      </contour>
      <contour>
        <pt x="1017" y="952" on="1"/>
        <pt x="1017" y="991" on="0"/>
        <pt x="976" y="1034" on="0"/>
        <pt x="940" y="1034" on="1"/>
        <pt x="902" y="1034" on="0"/>
        <pt x="864" y="990" on="0"/>
        <pt x="864" y="954" on="1"/>
        <pt x="864" y="936" on="0"/>
        <pt x="878" y="903" on="0"/>
        <pt x="902" y="875" on="0"/>
        <pt x="933" y="852" on="0"/>
        <pt x="949" y="843" on="1"/>
        <pt x="975" y="861" on="0"/>
        <pt x="1017" y="913" on="0"/>
      </contour>
    </TTGlyph>
    <TTGlyph name="uni0E2C" xMin="45" yMin="0" xMax="1557" yMax="1440">
      <contour>
        <pt x="284" y="0" on="1"/>
        <pt x="284" y="760" on="1"/>
        <pt x="279" y="758" on="0"/>
        <pt x="248" y="756" on="0"/>
        <pt x="235" y="756" on="1"/>
        <pt x="146" y="756" on="0"/>
        <pt x="45" y="855" on="0"/>
        <pt x="45" y="946" on="1"/>
        <pt x="45" y="1036" on="0"/>
        <pt x="151" y="1137" on="0"/>
        <pt x="248" y="1137" on="1"/>
        <pt x="347" y="1137" on="0"/>
        <pt x="452" y="1036" on="0"/>
        <pt x="452" y="946" on="1"/>
        <pt x="452" y="255" on="1"/>
        <pt x="714" y="1116" on="1"/>
        <pt x="819" y="1116" on="1"/>
        <pt x="1081" y="255" on="1"/>
        <pt x="1081" y="1070" on="1"/>
        <pt x="981" y="1083" on="0"/>
        <pt x="876" y="1190" on="0"/>
        <pt x="876" y="1268" on="1"/>
        <pt x="876" y="1348" on="0"/>
        <pt x="977" y="1440" on="0"/>
        <pt x="1063" y="1440" on="1"/>
        <pt x="1151" y="1440" on="0"/>
        <pt x="1248" y="1351" on="0"/>
        <pt x="1248" y="1279" on="1"/>
        <pt x="1248" y="1237" on="0"/>
        <pt x="1219" y="1186" on="0"/>
        <pt x="1204" y="1173" on="1"/>
        <pt x="1245" y="1190" on="0"/>
        <pt x="1311" y="1233" on="0"/>
        <pt x="1362" y="1293" on="0"/>
        <pt x="1399" y="1372" on="0"/>
        <pt x="1410" y="1424" on="1"/>
        <pt x="1557" y="1424" on="1"/>
        <pt x="1542" y="1357" on="0"/>
        <pt x="1490" y="1243" on="0"/>
        <pt x="1415" y="1155" on="0"/>
        <pt x="1314" y="1093" on="0"/>
        <pt x="1249" y="1079" on="1"/>
        <pt x="1249" y="0" on="1"/>
        <pt x="1049" y="0" on="1"/>
        <pt x="767" y="927" on="1"/>
        <pt x="484" y="0" on="1"/>
      </contour>
      <contour>
        <pt x="153" y="946" on="1"/>
        <pt x="153" y="904" on="0"/>
        <pt x="205" y="853" on="0"/>
        <pt x="250" y="853" on="1"/>
        <pt x="291" y="853" on="0"/>
        <pt x="345" y="904" on="0"/>
        <pt x="345" y="946" on="1"/>
        <pt x="345" y="990" on="0"/>
        <pt x="291" y="1040" on="0"/>
        <pt x="250" y="1040" on="1"/>
        <pt x="205" y="1040" on="0"/>
        <pt x="153" y="990" on="0"/>
      </contour>
      <contour>
        <pt x="985" y="1267" on="1"/>
        <pt x="985" y="1233" on="0"/>
        <pt x="1028" y="1192" on="0"/>
        <pt x="1063" y="1192" on="1"/>
        <pt x="1096" y="1192" on="0"/>
        <pt x="1139" y="1233" on="0"/>
        <pt x="1139" y="1267" on="1"/>
        <pt x="1139" y="1302" on="0"/>
        <pt x="1096" y="1343" on="0"/>
        <pt x="1063" y="1343" on="1"/>
        <pt x="1028" y="1343" on="0"/>
        <pt x="985" y="1302" on="0"/>
      </contour>
    </TTGlyph>
    <TTGlyph name="uni0E2D" xMin="115" yMin="0" xMax="1045" yMax="1147">
      <contour>
        <pt x="464" y="558" on="1"/>
        <pt x="464" y="602" on="0"/>
        <pt x="411" y="652" on="0"/>
        <pt x="367" y="652" on="1"/>
        <pt x="325" y="652" on="0"/>
        <pt x="272" y="602" on="0"/>
        <pt x="272" y="558" on="1"/>
        <pt x="272" y="516" on="0"/>
        <pt x="325" y="465" on="0"/>
        <pt x="367" y="465" on="1"/>
        <pt x="411" y="465" on="0"/>
        <pt x="464" y="516" on="0"/>
      </contour>
      <contour>
        <pt x="1045" y="272" on="1"/>
        <pt x="1045" y="204" on="0"/>
        <pt x="1018" y="102" on="0"/>
        <pt x="956" y="34" on="0"/>
        <pt x="856" y="0" on="0"/>
        <pt x="783" y="0" on="1"/>
        <pt x="426" y="0" on="1"/>
        <pt x="353" y="0" on="0"/>
        <pt x="253" y="34" on="0"/>
        <pt x="191" y="102" on="0"/>
        <pt x="164" y="204" on="0"/>
        <pt x="164" y="272" on="1"/>
        <pt x="164" y="558" on="1"/>
        <pt x="164" y="648" on="0"/>
        <pt x="270" y="748" on="0"/>
        <pt x="369" y="748" on="1"/>
        <pt x="466" y="748" on="0"/>
        <pt x="571" y="648" on="0"/>
        <pt x="571" y="558" on="1"/>
        <pt x="571" y="467" on="0"/>
        <pt x="471" y="368" on="0"/>
        <pt x="381" y="368" on="1"/>
        <pt x="369" y="368" on="0"/>
        <pt x="337" y="370" on="0"/>
        <pt x="332" y="372" on="1"/>
        <pt x="332" y="258" on="1"/>
        <pt x="332" y="189" on="0"/>
        <pt x="376" y="135" on="0"/>
        <pt x="418" y="135" on="1"/>
        <pt x="791" y="135" on="1"/>
        <pt x="833" y="135" on="0"/>
        <pt x="877" y="189" on="0"/>
        <pt x="877" y="258" on="1"/>
        <pt x="877" y="719" on="1"/>
        <pt x="877" y="782" on="0"/>
        <pt x="837" y="888" on="0"/>
        <pt x="758" y="965" on="0"/>
        <pt x="640" y="1008" on="0"/>
        <pt x="562" y="1008" on="1"/>
        <pt x="469" y="1008" on="0"/>
        <pt x="280" y="942" on="0"/>
        <pt x="193" y="884" on="1"/>
        <pt x="115" y="1008" on="1"/>
        <pt x="206" y="1069" on="0"/>
        <pt x="424" y="1147" on="0"/>
        <pt x="562" y="1147" on="1"/>
        <pt x="675" y="1147" on="0"/>
        <pt x="854" y="1088" on="0"/>
        <pt x="979" y="979" on="0"/>
        <pt x="1045" y="826" on="0"/>
        <pt x="1045" y="731" on="1"/>
      </contour>
    </TTGlyph>
    <TTGlyph name="uni0E2E" xMin="125" yMin="0" xMax="1130" yMax="1207">
      <contour>
        <pt x="1026" y="272" on="1"/>
        <pt x="1026" y="204" on="0"/>
        <pt x="999" y="102" on="0"/>
        <pt x="937" y="34" on="0"/>
        <pt x="837" y="0" on="0"/>
        <pt x="764" y="0" on="1"/>
        <pt x="407" y="0" on="1"/>
        <pt x="334" y="0" on="0"/>
        <pt x="234" y="34" on="0"/>
        <pt x="172" y="102" on="0"/>
        <pt x="145" y="204" on="0"/>
        <pt x="145" y="272" on="1"/>
        <pt x="145" y="465" on="1"/>
        <pt x="145" y="555" on="0"/>
        <pt x="251" y="655" on="0"/>
        <pt x="350" y="655" on="1"/>
        <pt x="447" y="655" on="0"/>
        <pt x="552" y="555" on="0"/>
        <pt x="552" y="465" on="1"/>
        <pt x="552" y="374" on="0"/>
        <pt x="452" y="275" on="0"/>
        <pt x="362" y="275" on="1"/>
        <pt x="350" y="275" on="0"/>
        <pt x="318" y="277" on="0"/>
        <pt x="313" y="279" on="1"/>
        <pt x="313" y="258" on="1"/>
        <pt x="313" y="189" on="0"/>
        <pt x="357" y="135" on="0"/>
        <pt x="399" y="135" on="1"/>
        <pt x="772" y="135" on="1"/>
        <pt x="814" y="135" on="0"/>
        <pt x="858" y="189" on="0"/>
        <pt x="858" y="258" on="1"/>
        <pt x="858" y="776" on="1"/>
        <pt x="858" y="784" on="0"/>
        <pt x="857" y="797" on="0"/>
        <pt x="856" y="804" on="1"/>
        <pt x="795" y="771" on="0"/>
        <pt x="643" y="734" on="0"/>
        <pt x="548" y="734" on="1"/>
        <pt x="334" y="734" on="0"/>
        <pt x="125" y="832" on="0"/>
        <pt x="125" y="935" on="1"/>
        <pt x="125" y="1039" on="0"/>
        <pt x="323" y="1147" on="0"/>
        <pt x="538" y="1147" on="1"/>
        <pt x="660" y="1147" on="0"/>
        <pt x="850" y="1099" on="0"/>
        <pt x="914" y="1047" on="1"/>
        <pt x="949" y="1116" on="0"/>
        <pt x="962" y="1207" on="1"/>
        <pt x="1130" y="1207" on="1"/>
        <pt x="1110" y="1128" on="0"/>
        <pt x="1049" y="986" on="0"/>
        <pt x="1002" y="927" on="1"/>
        <pt x="1013" y="897" on="0"/>
        <pt x="1026" y="828" on="0"/>
        <pt x="1026" y="788" on="1"/>
      </contour>
      <contour>
        <pt x="538" y="1035" on="1"/>
        <pt x="471" y="1035" on="0"/>
        <pt x="380" y="1019" on="0"/>
        <pt x="324" y="992" on="0"/>
        <pt x="299" y="957" on="0"/>
        <pt x="299" y="937" on="1"/>
        <pt x="299" y="916" on="0"/>
        <pt x="324" y="884" on="0"/>
        <pt x="383" y="862" on="0"/>
        <pt x="479" y="850" on="0"/>
        <pt x="551" y="850" on="1"/>
        <pt x="716" y="850" on="0"/>
        <pt x="816" y="927" on="1"/>
        <pt x="743" y="1035" on="0"/>
      </contour>
      <contour>
        <pt x="445" y="465" on="1"/>
        <pt x="445" y="509" on="0"/>
        <pt x="392" y="559" on="0"/>
        <pt x="348" y="559" on="1"/>
        <pt x="306" y="559" on="0"/>
        <pt x="253" y="509" on="0"/>
        <pt x="253" y="465" on="1"/>
        <pt x="253" y="423" on="0"/>
        <pt x="306" y="372" on="0"/>
        <pt x="348" y="372" on="1"/>
        <pt x="392" y="372" on="0"/>
        <pt x="445" y="423" on="0"/>
      </contour>
    </TTGlyph>
    <TTGlyph name="uni0E2F" xMin="37" yMin="0" xMax="923" yMax="1126">
      <contour>
        <pt x="755" y="0" on="1"/>
        <pt x="755" y="850" on="1"/>
        <pt x="673" y="756" on="0"/>
        <pt x="447" y="651" on="0"/>
        <pt x="305" y="651" on="1"/>
        <pt x="239" y="651" on="0"/>
        <pt x="139" y="683" on="0"/>
        <pt x="72" y="739" on="0"/>
        <pt x="37" y="815" on="0"/>
        <pt x="37" y="859" on="1"/>
        <pt x="37" y="939" on="0"/>
        <pt x="138" y="1031" on="0"/>
        <pt x="224" y="1031" on="1"/>
        <pt x="312" y="1031" on="0"/>
        <pt x="409" y="942" on="0"/>
        <pt x="409" y="870" on="1"/>
        <pt x="409" y="828" on="0"/>
        <pt x="380" y="767" on="0"/>
        <pt x="365" y="754" on="1"/>
        <pt x="508" y="784" on="0"/>
        <pt x="711" y="975" on="0"/>
        <pt x="755" y="1126" on="1"/>
        <pt x="923" y="1126" on="1"/>
        <pt x="923" y="0" on="1"/>
      </contour>
      <contour>
        <pt x="146" y="858" on="1"/>
        <pt x="146" y="824" on="0"/>
        <pt x="189" y="783" on="0"/>
        <pt x="224" y="783" on="1"/>
        <pt x="257" y="783" on="0"/>
        <pt x="300" y="824" on="0"/>
        <pt x="300" y="858" on="1"/>
        <pt x="300" y="893" on="0"/>
        <pt x="257" y="934" on="0"/>
        <pt x="224" y="934" on="1"/>
        <pt x="189" y="934" on="0"/>
        <pt x="146" y="893" on="0"/>
      </contour>
    </TTGlyph>
    <TTGlyph name="uni0E30" xMin="77" yMin="101" xMax="944" yMax="1070">
      <contour>
        <pt x="345" y="595" on="1"/>
        <pt x="279" y="595" on="0"/>
        <pt x="179" y="627" on="0"/>
        <pt x="112" y="683" on="0"/>
        <pt x="77" y="759" on="0"/>
        <pt x="77" y="803" on="1"/>
        <pt x="77" y="883" on="0"/>
        <pt x="178" y="975" on="0"/>
        <pt x="264" y="975" on="1"/>
        <pt x="352" y="975" on="0"/>
        <pt x="449" y="886" on="0"/>
        <pt x="449" y="814" on="1"/>
        <pt x="449" y="772" on="0"/>
        <pt x="420" y="711" on="0"/>
        <pt x="405" y="698" on="1"/>
        <pt x="548" y="728" on="0"/>
        <pt x="741" y="919" on="0"/>
        <pt x="785" y="1070" on="1"/>
        <pt x="944" y="1070" on="1"/>
        <pt x="913" y="966" on="0"/>
        <pt x="804" y="792" on="0"/>
        <pt x="652" y="666" on="0"/>
        <pt x="459" y="595" on="0"/>
      </contour>
      <contour>
        <pt x="186" y="802" on="1"/>
        <pt x="186" y="768" on="0"/>
        <pt x="229" y="727" on="0"/>
        <pt x="264" y="727" on="1"/>
        <pt x="297" y="727" on="0"/>
        <pt x="340" y="768" on="0"/>
        <pt x="340" y="802" on="1"/>
        <pt x="340" y="837" on="0"/>
        <pt x="297" y="878" on="0"/>
        <pt x="264" y="878" on="1"/>
        <pt x="229" y="878" on="0"/>
        <pt x="186" y="837" on="0"/>
      </contour>
      <contour>
        <pt x="345" y="101" on="1"/>
        <pt x="279" y="101" on="0"/>
        <pt x="179" y="133" on="0"/>
        <pt x="112" y="189" on="0"/>
        <pt x="77" y="265" on="0"/>
        <pt x="77" y="309" on="1"/>
        <pt x="77" y="389" on="0"/>
        <pt x="178" y="481" on="0"/>
        <pt x="264" y="481" on="1"/>
        <pt x="352" y="481" on="0"/>
        <pt x="449" y="392" on="0"/>
        <pt x="449" y="320" on="1"/>
        <pt x="449" y="278" on="0"/>
        <pt x="420" y="217" on="0"/>
        <pt x="405" y="204" on="1"/>
        <pt x="548" y="234" on="0"/>
        <pt x="741" y="425" on="0"/>
        <pt x="785" y="576" on="1"/>
        <pt x="944" y="576" on="1"/>
        <pt x="913" y="472" on="0"/>
        <pt x="804" y="298" on="0"/>
        <pt x="652" y="172" on="0"/>
        <pt x="459" y="101" on="0"/>
      </contour>
      <contour>
        <pt x="186" y="308" on="1"/>
        <pt x="186" y="274" on="0"/>
        <pt x="229" y="233" on="0"/>
        <pt x="264" y="233" on="1"/>
        <pt x="297" y="233" on="0"/>
        <pt x="340" y="274" on="0"/>
        <pt x="340" y="308" on="1"/>
        <pt x="340" y="343" on="0"/>
        <pt x="297" y="384" on="0"/>
        <pt x="264" y="384" on="1"/>
        <pt x="229" y="384" on="0"/>
        <pt x="186" y="343" on="0"/>
      </contour>
    </TTGlyph>
    <TTGlyph name="uni0E31" xMin="-649" yMin="1223" xMax="32" yMax="1596">
      <contour>
        <pt x="-390" y="1223" on="1"/>
        <pt x="-452" y="1223" on="0"/>
        <pt x="-549" y="1253" on="0"/>
        <pt x="-615" y="1306" on="0"/>
        <pt x="-649" y="1380" on="0"/>
        <pt x="-649" y="1424" on="1"/>
        <pt x="-649" y="1504" on="0"/>
        <pt x="-548" y="1596" on="0"/>
        <pt x="-462" y="1596" on="1"/>
        <pt x="-374" y="1596" on="0"/>
        <pt x="-277" y="1507" on="0"/>
        <pt x="-277" y="1435" on="1"/>
        <pt x="-277" y="1393" on="0"/>
        <pt x="-306" y="1342" on="0"/>
        <pt x="-321" y="1329" on="1"/>
        <pt x="-281" y="1346" on="0"/>
        <pt x="-214" y="1389" on="0"/>
        <pt x="-163" y="1449" on="0"/>
        <pt x="-126" y="1528" on="0"/>
        <pt x="-115" y="1580" on="1"/>
        <pt x="32" y="1580" on="1"/>
        <pt x="14" y="1500" on="0"/>
        <pt x="-53" y="1368" on="0"/>
        <pt x="-156" y="1274" on="0"/>
        <pt x="-297" y="1223" on="0"/>
      </contour>
      <contour>
        <pt x="-540" y="1423" on="1"/>
        <pt x="-540" y="1389" on="0"/>
        <pt x="-497" y="1348" on="0"/>
        <pt x="-462" y="1348" on="1"/>
        <pt x="-429" y="1348" on="0"/>
        <pt x="-386" y="1389" on="0"/>
        <pt x="-386" y="1423" on="1"/>
        <pt x="-386" y="1458" on="0"/>
        <pt x="-429" y="1499" on="0"/>
        <pt x="-462" y="1499" on="1"/>
        <pt x="-497" y="1499" on="0"/>
        <pt x="-540" y="1458" on="0"/>
      </contour>
    </TTGlyph>
    <TTGlyph name="uni0E32" xMin="0" yMin="0" xMax="830" yMax="1147">
      <contour>
        <pt x="830" y="0" on="1"/>
        <pt x="662" y="0" on="1"/>
        <pt x="662" y="729" on="1"/>
        <pt x="662" y="792" on="0"/>
        <pt x="632" y="895" on="0"/>
        <pt x="571" y="969" on="0"/>
        <pt x="478" y="1009" on="0"/>
        <pt x="415" y="1009" on="1"/>
        <pt x="329" y="1009" on="0"/>
        <pt x="155" y="941" on="0"/>
        <pt x="77" y="885" on="1"/>
        <pt x="0" y="1008" on="1"/>
        <pt x="85" y="1070" on="0"/>
        <pt x="289" y="1147" on="0"/>
        <pt x="414" y="1147" on="1"/>
        <pt x="514" y="1147" on="0"/>
        <pt x="669" y="1089" on="0"/>
        <pt x="775" y="981" on="0"/>
        <pt x="830" y="827" on="0"/>
        <pt x="830" y="731" on="1"/>
      </contour>
    </TTGlyph>
    <TTGlyph name="uni0E33" xMin="-461" yMin="0" xMax="830" yMax="1574">
      <component glyphName="uni0E32" x="0" y="0" flags="0x204"/>
      <component glyphName="uni0E4D" x="0" y="0" flags="0x4"/>
    </TTGlyph>
    <TTGlyph name="uni0E34" xMin="-1050" yMin="1206" xMax="-184" yMax="1622">
      <contour>
        <pt x="-184" y="1206" on="1"/>
        <pt x="-295" y="1229" on="0"/>
        <pt x="-503" y="1265" on="0"/>
        <pt x="-712" y="1290" on="0"/>
        <pt x="-929" y="1303" on="0"/>
        <pt x="-1050" y="1303" on="1"/>
        <pt x="-1034" y="1375" on="0"/>
        <pt x="-966" y="1493" on="0"/>
        <pt x="-866" y="1576" on="0"/>
        <pt x="-737" y="1622" on="0"/>
        <pt x="-659" y="1622" on="1"/>
        <pt x="-573" y="1622" on="0"/>
        <pt x="-420" y="1572" on="0"/>
        <pt x="-296" y="1470" on="0"/>
        <pt x="-206" y="1313" on="0"/>
      </contour>
      <contour>
        <pt x="-662" y="1522" on="1"/>
        <pt x="-756" y="1522" on="0"/>
        <pt x="-876" y="1461" on="0"/>
        <pt x="-905" y="1395" on="1"/>
        <pt x="-744" y="1395" on="0"/>
        <pt x="-440" y="1350" on="0"/>
        <pt x="-312" y="1320" on="1"/>
        <pt x="-333" y="1366" on="0"/>
        <pt x="-402" y="1440" on="0"/>
        <pt x="-493" y="1493" on="0"/>
        <pt x="-602" y="1522" on="0"/>
      </contour>
    </TTGlyph>
    <TTGlyph name="uni0E35" xMin="-1050" yMin="1206" xMax="-184" yMax="1692">
      <contour>
        <pt x="-184" y="1206" on="1"/>
        <pt x="-295" y="1229" on="0"/>
        <pt x="-503" y="1265" on="0"/>
        <pt x="-712" y="1290" on="0"/>
        <pt x="-929" y="1303" on="0"/>
        <pt x="-1050" y="1303" on="1"/>
        <pt x="-1034" y="1375" on="0"/>
        <pt x="-966" y="1493" on="0"/>
        <pt x="-866" y="1576" on="0"/>
        <pt x="-737" y="1622" on="0"/>
        <pt x="-659" y="1622" on="1"/>
        <pt x="-562" y="1622" on="0"/>
        <pt x="-395" y="1560" on="0"/>
        <pt x="-329" y="1495" on="1"/>
        <pt x="-329" y="1692" on="1"/>
        <pt x="-219" y="1692" on="1"/>
        <pt x="-219" y="1324" on="1"/>
        <pt x="-208" y="1297" on="0"/>
        <pt x="-191" y="1238" on="0"/>
      </contour>
      <contour>
        <pt x="-662" y="1522" on="1"/>
        <pt x="-756" y="1522" on="0"/>
        <pt x="-876" y="1461" on="0"/>
        <pt x="-905" y="1395" on="1"/>
        <pt x="-744" y="1395" on="0"/>
        <pt x="-440" y="1350" on="0"/>
        <pt x="-312" y="1320" on="1"/>
        <pt x="-333" y="1366" on="0"/>
        <pt x="-402" y="1440" on="0"/>
        <pt x="-493" y="1493" on="0"/>
        <pt x="-602" y="1522" on="0"/>
      </contour>
    </TTGlyph>
    <TTGlyph name="uni0E36" xMin="-1050" yMin="1206" xMax="-86" yMax="1677">
      <contour>
        <pt x="-184" y="1206" on="1"/>
        <pt x="-295" y="1229" on="0"/>
        <pt x="-503" y="1265" on="0"/>
        <pt x="-712" y="1290" on="0"/>
        <pt x="-929" y="1303" on="0"/>
        <pt x="-1050" y="1303" on="1"/>
        <pt x="-1034" y="1375" on="0"/>
        <pt x="-966" y="1493" on="0"/>
        <pt x="-866" y="1576" on="0"/>
        <pt x="-737" y="1622" on="0"/>
        <pt x="-659" y="1622" on="1"/>
        <pt x="-591" y="1622" on="0"/>
        <pt x="-467" y="1592" on="0"/>
        <pt x="-413" y="1560" on="1"/>
        <pt x="-396" y="1611" on="0"/>
        <pt x="-310" y="1677" on="0"/>
        <pt x="-253" y="1677" on="1"/>
        <pt x="-219" y="1677" on="0"/>
        <pt x="-158" y="1651" on="0"/>
        <pt x="-112" y="1605" on="0"/>
        <pt x="-86" y="1544" on="0"/>
        <pt x="-86" y="1509" on="1"/>
        <pt x="-86" y="1478" on="0"/>
        <pt x="-108" y="1422" on="0"/>
        <pt x="-145" y="1377" on="0"/>
        <pt x="-197" y="1348" on="0"/>
        <pt x="-227" y="1343" on="1"/>
        <pt x="-213" y="1312" on="0"/>
        <pt x="-192" y="1244" on="0"/>
      </contour>
      <contour>
        <pt x="-662" y="1522" on="1"/>
        <pt x="-756" y="1522" on="0"/>
        <pt x="-876" y="1461" on="0"/>
        <pt x="-905" y="1395" on="1"/>
        <pt x="-744" y="1395" on="0"/>
        <pt x="-440" y="1350" on="0"/>
        <pt x="-312" y="1320" on="1"/>
        <pt x="-333" y="1366" on="0"/>
        <pt x="-402" y="1440" on="0"/>
        <pt x="-493" y="1493" on="0"/>
        <pt x="-602" y="1522" on="0"/>
      </contour>
      <contour>
        <pt x="-326" y="1509" on="1"/>
        <pt x="-326" y="1479" on="0"/>
        <pt x="-282" y="1437" on="0"/>
        <pt x="-251" y="1437" on="1"/>
        <pt x="-222" y="1437" on="0"/>
        <pt x="-179" y="1479" on="0"/>
        <pt x="-179" y="1509" on="1"/>
        <pt x="-179" y="1540" on="0"/>
        <pt x="-222" y="1584" on="0"/>
        <pt x="-251" y="1584" on="1"/>
        <pt x="-282" y="1584" on="0"/>
        <pt x="-326" y="1540" on="0"/>
      </contour>
    </TTGlyph>
    <TTGlyph name="uni0E37" xMin="-1050" yMin="1206" xMax="-184" yMax="1692">
      <contour>
        <pt x="-184" y="1206" on="1"/>
        <pt x="-295" y="1229" on="0"/>
        <pt x="-503" y="1265" on="0"/>
        <pt x="-712" y="1290" on="0"/>
        <pt x="-929" y="1303" on="0"/>
        <pt x="-1050" y="1303" on="1"/>
        <pt x="-1034" y="1375" on="0"/>
        <pt x="-966" y="1493" on="0"/>
        <pt x="-866" y="1576" on="0"/>
        <pt x="-737" y="1622" on="0"/>
        <pt x="-659" y="1622" on="1"/>
        <pt x="-597" y="1622" on="0"/>
        <pt x="-536" y="1608" on="1"/>
        <pt x="-536" y="1692" on="1"/>
        <pt x="-426" y="1692" on="1"/>
        <pt x="-426" y="1567" on="1"/>
        <pt x="-370" y="1537" on="0"/>
        <pt x="-325" y="1490" on="1"/>
        <pt x="-325" y="1692" on="1"/>
        <pt x="-215" y="1692" on="1"/>
        <pt x="-215" y="1313" on="1"/>
        <pt x="-205" y="1288" on="0"/>
        <pt x="-190" y="1235" on="0"/>
      </contour>
      <contour>
        <pt x="-662" y="1522" on="1"/>
        <pt x="-756" y="1522" on="0"/>
        <pt x="-876" y="1461" on="0"/>
        <pt x="-905" y="1395" on="1"/>
        <pt x="-744" y="1395" on="0"/>
        <pt x="-440" y="1350" on="0"/>
        <pt x="-312" y="1320" on="1"/>
        <pt x="-333" y="1366" on="0"/>
        <pt x="-402" y="1440" on="0"/>
        <pt x="-493" y="1493" on="0"/>
        <pt x="-602" y="1522" on="0"/>
      </contour>
    </TTGlyph>
    <TTGlyph name="uni0E38" xMin="-443" yMin="-520" xMax="-180" yMax="-102">
      <contour>
        <pt x="-307" y="-520" on="1"/>
        <pt x="-307" y="-326" on="1"/>
        <pt x="-315" y="-330" on="0"/>
        <pt x="-329" y="-330" on="1"/>
        <pt x="-387" y="-330" on="0"/>
        <pt x="-443" y="-271" on="0"/>
        <pt x="-443" y="-217" on="1"/>
        <pt x="-443" y="-163" on="0"/>
        <pt x="-384" y="-102" on="0"/>
        <pt x="-315" y="-102" on="1"/>
        <pt x="-252" y="-102" on="0"/>
        <pt x="-180" y="-163" on="0"/>
        <pt x="-180" y="-219" on="1"/>
        <pt x="-180" y="-520" on="1"/>
      </contour>
      <contour>
        <pt x="-368" y="-217" on="1"/>
        <pt x="-368" y="-238" on="0"/>
        <pt x="-344" y="-262" on="0"/>
        <pt x="-321" y="-262" on="1"/>
        <pt x="-301" y="-262" on="0"/>
        <pt x="-276" y="-238" on="0"/>
        <pt x="-276" y="-217" on="1"/>
        <pt x="-276" y="-194" on="0"/>
        <pt x="-301" y="-170" on="0"/>
        <pt x="-321" y="-170" on="1"/>
        <pt x="-368" y="-170" on="0"/>
      </contour>
    </TTGlyph>
    <TTGlyph name="uni0E39" xMin="-747" yMin="-524" xMax="-180" yMax="-102">
      <contour>
        <pt x="-611" y="-524" on="1"/>
        <pt x="-611" y="-326" on="1"/>
        <pt x="-619" y="-330" on="0"/>
        <pt x="-633" y="-330" on="1"/>
        <pt x="-691" y="-330" on="0"/>
        <pt x="-747" y="-271" on="0"/>
        <pt x="-747" y="-217" on="1"/>
        <pt x="-747" y="-163" on="0"/>
        <pt x="-688" y="-102" on="0"/>
        <pt x="-619" y="-102" on="1"/>
        <pt x="-556" y="-102" on="0"/>
        <pt x="-484" y="-163" on="0"/>
        <pt x="-484" y="-219" on="1"/>
        <pt x="-484" y="-393" on="1"/>
        <pt x="-307" y="-393" on="1"/>
        <pt x="-307" y="-117" on="1"/>
        <pt x="-180" y="-117" on="1"/>
        <pt x="-180" y="-524" on="1"/>
      </contour>
      <contour>
        <pt x="-672" y="-217" on="1"/>
        <pt x="-672" y="-238" on="0"/>
        <pt x="-648" y="-262" on="0"/>
        <pt x="-625" y="-262" on="1"/>
        <pt x="-605" y="-262" on="0"/>
        <pt x="-580" y="-238" on="0"/>
        <pt x="-580" y="-217" on="1"/>
        <pt x="-580" y="-194" on="0"/>
        <pt x="-605" y="-170" on="0"/>
        <pt x="-625" y="-170" on="1"/>
        <pt x="-672" y="-170" on="0"/>
      </contour>
    </TTGlyph>
    <TTGlyph name="uni0E3A" xMin="-375" yMin="-327" xMax="-165" yMax="-117">
      <contour>
        <pt x="-375" y="-222" on="1"/>
        <pt x="-375" y="-200" on="0"/>
        <pt x="-359" y="-162" on="0"/>
        <pt x="-330" y="-134" on="0"/>
        <pt x="-292" y="-117" on="0"/>
        <pt x="-270" y="-117" on="1"/>
        <pt x="-248" y="-117" on="0"/>
        <pt x="-210" y="-134" on="0"/>
        <pt x="-182" y="-162" on="0"/>
        <pt x="-165" y="-200" on="0"/>
        <pt x="-165" y="-222" on="1"/>
        <pt x="-165" y="-244" on="0"/>
        <pt x="-182" y="-282" on="0"/>
        <pt x="-210" y="-311" on="0"/>
        <pt x="-248" y="-327" on="0"/>
        <pt x="-270" y="-327" on="1"/>
        <pt x="-292" y="-327" on="0"/>
        <pt x="-330" y="-311" on="0"/>
        <pt x="-359" y="-282" on="0"/>
        <pt x="-375" y="-244" on="0"/>
      </contour>
    </TTGlyph>
    <TTGlyph name="uni0E3F" xMin="145" yMin="-168" xMax="1045" yMax="1599">
      <contour>
        <pt x="628" y="1599" on="1"/>
        <pt x="628" y="1456" on="1"/>
        <pt x="723" y="1447" on="0"/>
        <pt x="864" y="1397" on="0"/>
        <pt x="957" y="1309" on="0"/>
        <pt x="1004" y="1180" on="0"/>
        <pt x="1004" y="1092" on="1"/>
        <pt x="1004" y="1030" on="0"/>
        <pt x="965" y="922" on="0"/>
        <pt x="891" y="840" on="0"/>
        <pt x="782" y="785" on="0"/>
        <pt x="713" y="776" on="1"/>
        <pt x="713" y="766" on="1"/>
        <pt x="782" y="754" on="0"/>
        <pt x="903" y="709" on="0"/>
        <pt x="993" y="630" on="0"/>
        <pt x="1045" y="510" on="0"/>
        <pt x="1045" y="424" on="1"/>
        <pt x="1045" y="330" on="0"/>
        <pt x="989" y="179" on="0"/>
        <pt x="883" y="71" on="0"/>
        <pt x="727" y="7" on="0"/>
        <pt x="628" y="1" on="1"/>
        <pt x="628" y="-168" on="1"/>
        <pt x="488" y="-168" on="1"/>
        <pt x="488" y="0" on="1"/>
        <pt x="145" y="0" on="1"/>
        <pt x="145" y="1462" on="1"/>
        <pt x="488" y="1462" on="1"/>
        <pt x="488" y="1599" on="1"/>
      </contour>
      <contour>
        <pt x="859" y="432" on="1"/>
        <pt x="859" y="480" on="0"/>
        <pt x="835" y="564" on="0"/>
        <pt x="781" y="628" on="0"/>
        <pt x="693" y="673" on="0"/>
        <pt x="628" y="682" on="1"/>
        <pt x="628" y="160" on="1"/>
        <pt x="692" y="169" on="0"/>
        <pt x="780" y="216" on="0"/>
        <pt x="835" y="286" on="0"/>
        <pt x="859" y="378" on="0"/>
      </contour>
      <contour>
        <pt x="321" y="155" on="1"/>
        <pt x="488" y="155" on="1"/>
        <pt x="488" y="688" on="1"/>
        <pt x="321" y="688" on="1"/>
      </contour>
      <contour>
        <pt x="321" y="840" on="1"/>
        <pt x="488" y="840" on="1"/>
        <pt x="488" y="1306" on="1"/>
        <pt x="321" y="1306" on="1"/>
      </contour>
      <contour>
        <pt x="824" y="1079" on="1"/>
        <pt x="824" y="1174" on="0"/>
        <pt x="729" y="1279" on="0"/>
        <pt x="628" y="1297" on="1"/>
        <pt x="628" y="847" on="1"/>
        <pt x="736" y="865" on="0"/>
        <pt x="824" y="982" on="0"/>
      </contour>
    </TTGlyph>
    <TTGlyph name="uni0E40" xMin="184" yMin="-18" xMax="591" yMax="1125">
      <contour>
        <pt x="352" y="1125" on="1"/>
        <pt x="352" y="359" on="1"/>
        <pt x="357" y="361" on="0"/>
        <pt x="388" y="363" on="0"/>
        <pt x="401" y="363" on="1"/>
        <pt x="490" y="363" on="0"/>
        <pt x="591" y="264" on="0"/>
        <pt x="591" y="173" on="1"/>
        <pt x="591" y="83" on="0"/>
        <pt x="485" y="-18" on="0"/>
        <pt x="388" y="-18" on="1"/>
        <pt x="289" y="-18" on="0"/>
        <pt x="184" y="83" on="0"/>
        <pt x="184" y="173" on="1"/>
        <pt x="184" y="1125" on="1"/>
      </contour>
      <contour>
        <pt x="483" y="173" on="1"/>
        <pt x="483" y="215" on="0"/>
        <pt x="431" y="265" on="0"/>
        <pt x="386" y="265" on="1"/>
        <pt x="345" y="265" on="0"/>
        <pt x="291" y="215" on="0"/>
        <pt x="291" y="173" on="1"/>
        <pt x="291" y="129" on="0"/>
        <pt x="345" y="78" on="0"/>
        <pt x="386" y="78" on="1"/>
        <pt x="431" y="78" on="0"/>
        <pt x="483" y="129" on="0"/>
      </contour>
    </TTGlyph>
    <TTGlyph name="uni0E41" xMin="184" yMin="-18" xMax="1129" yMax="1125">
      <component glyphName="uni0E40" x="0" y="0" flags="0x4"/>
      <component glyphName="uni0E40" x="538" y="0" flags="0x4"/>
    </TTGlyph>
    <TTGlyph name="uni0E42" xMin="24" yMin="-18" xMax="904" yMax="2043">
      <contour>
        <pt x="730" y="173" on="1"/>
        <pt x="730" y="215" on="0"/>
        <pt x="678" y="265" on="0"/>
        <pt x="633" y="265" on="1"/>
        <pt x="592" y="265" on="0"/>
        <pt x="538" y="215" on="0"/>
        <pt x="538" y="173" on="1"/>
        <pt x="538" y="129" on="0"/>
        <pt x="592" y="78" on="0"/>
        <pt x="633" y="78" on="1"/>
        <pt x="678" y="78" on="0"/>
        <pt x="730" y="129" on="0"/>
      </contour>
      <contour>
        <pt x="431" y="1366" on="1"/>
        <pt x="431" y="1485" on="0"/>
        <pt x="305" y="1610" on="0"/>
        <pt x="170" y="1610" on="1"/>
        <pt x="24" y="1610" on="1"/>
        <pt x="24" y="1738" on="0"/>
        <pt x="65" y="1905" on="0"/>
        <pt x="158" y="2004" on="0"/>
        <pt x="308" y="2043" on="0"/>
        <pt x="418" y="2043" on="1"/>
        <pt x="904" y="2043" on="1"/>
        <pt x="904" y="1910" on="1"/>
        <pt x="403" y="1910" on="1"/>
        <pt x="360" y="1910" on="0"/>
        <pt x="283" y="1889" on="0"/>
        <pt x="227" y="1848" on="0"/>
        <pt x="194" y="1785" on="0"/>
        <pt x="194" y="1743" on="1"/>
        <pt x="204" y="1743" on="1"/>
        <pt x="311" y="1743" on="0"/>
        <pt x="461" y="1702" on="0"/>
        <pt x="555" y="1609" on="0"/>
        <pt x="599" y="1460" on="0"/>
        <pt x="599" y="1353" on="1"/>
        <pt x="599" y="359" on="1"/>
        <pt x="604" y="361" on="0"/>
        <pt x="635" y="363" on="0"/>
        <pt x="648" y="363" on="1"/>
        <pt x="737" y="363" on="0"/>
        <pt x="838" y="264" on="0"/>
        <pt x="838" y="173" on="1"/>
        <pt x="838" y="83" on="0"/>
        <pt x="732" y="-18" on="0"/>
        <pt x="635" y="-18" on="1"/>
        <pt x="536" y="-18" on="0"/>
        <pt x="431" y="83" on="0"/>
        <pt x="431" y="173" on="1"/>
      </contour>
    </TTGlyph>
    <TTGlyph name="uni0E43" xMin="34" yMin="-18" xMax="884" yMax="2065">
      <contour>
        <pt x="332" y="1627" on="1"/>
        <pt x="332" y="1661" on="0"/>
        <pt x="288" y="1701" on="0"/>
        <pt x="253" y="1701" on="1"/>
        <pt x="220" y="1701" on="0"/>
        <pt x="177" y="1661" on="0"/>
        <pt x="177" y="1627" on="1"/>
        <pt x="177" y="1592" on="0"/>
        <pt x="220" y="1550" on="0"/>
        <pt x="253" y="1550" on="1"/>
        <pt x="288" y="1550" on="0"/>
        <pt x="332" y="1592" on="0"/>
      </contour>
      <contour>
        <pt x="884" y="173" on="1"/>
        <pt x="884" y="83" on="0"/>
        <pt x="778" y="-18" on="0"/>
        <pt x="681" y="-18" on="1"/>
        <pt x="582" y="-18" on="0"/>
        <pt x="477" y="83" on="0"/>
        <pt x="477" y="173" on="1"/>
        <pt x="477" y="1444" on="1"/>
        <pt x="477" y="1503" on="0"/>
        <pt x="496" y="1596" on="0"/>
        <pt x="537" y="1674" on="0"/>
        <pt x="602" y="1739" on="0"/>
        <pt x="649" y="1770" on="1"/>
        <pt x="649" y="1796" on="0"/>
        <pt x="632" y="1858" on="0"/>
        <pt x="583" y="1912" on="0"/>
        <pt x="495" y="1948" on="0"/>
        <pt x="423" y="1948" on="1"/>
        <pt x="356" y="1948" on="0"/>
        <pt x="256" y="1916" on="0"/>
        <pt x="190" y="1861" on="0"/>
        <pt x="157" y="1786" on="0"/>
        <pt x="157" y="1743" on="1"/>
        <pt x="176" y="1766" on="0"/>
        <pt x="239" y="1797" on="0"/>
        <pt x="276" y="1797" on="1"/>
        <pt x="308" y="1797" on="0"/>
        <pt x="367" y="1777" on="0"/>
        <pt x="412" y="1735" on="0"/>
        <pt x="438" y="1671" on="0"/>
        <pt x="438" y="1627" on="1"/>
        <pt x="438" y="1585" on="0"/>
        <pt x="410" y="1522" on="0"/>
        <pt x="362" y="1479" on="0"/>
        <pt x="295" y="1457" on="0"/>
        <pt x="256" y="1457" on="1"/>
        <pt x="199" y="1457" on="0"/>
        <pt x="115" y="1497" on="0"/>
        <pt x="61" y="1569" on="0"/>
        <pt x="34" y="1669" on="0"/>
        <pt x="34" y="1729" on="1"/>
        <pt x="34" y="1797" on="0"/>
        <pt x="77" y="1919" on="0"/>
        <pt x="171" y="2011" on="0"/>
        <pt x="319" y="2065" on="0"/>
        <pt x="423" y="2065" on="1"/>
        <pt x="527" y="2065" on="0"/>
        <pt x="679" y="2018" on="0"/>
        <pt x="779" y="1938" on="0"/>
        <pt x="827" y="1830" on="0"/>
        <pt x="827" y="1768" on="1"/>
        <pt x="776" y="1728" on="0"/>
        <pt x="706" y="1656" on="0"/>
        <pt x="663" y="1581" on="0"/>
        <pt x="645" y="1497" on="0"/>
        <pt x="645" y="1444" on="1"/>
        <pt x="645" y="359" on="1"/>
        <pt x="650" y="361" on="0"/>
        <pt x="681" y="363" on="0"/>
        <pt x="694" y="363" on="1"/>
        <pt x="783" y="363" on="0"/>
        <pt x="884" y="264" on="0"/>
      </contour>
      <contour>
        <pt x="776" y="173" on="1"/>
        <pt x="776" y="215" on="0"/>
        <pt x="724" y="265" on="0"/>
        <pt x="679" y="265" on="1"/>
        <pt x="638" y="265" on="0"/>
        <pt x="584" y="215" on="0"/>
        <pt x="584" y="173" on="1"/>
        <pt x="584" y="129" on="0"/>
        <pt x="638" y="78" on="0"/>
        <pt x="679" y="78" on="1"/>
        <pt x="724" y="78" on="0"/>
        <pt x="776" y="129" on="0"/>
      </contour>
    </TTGlyph>
    <TTGlyph name="uni0E44" xMin="35" yMin="-18" xMax="960" yMax="2065">
      <contour>
        <pt x="243" y="1689" on="1"/>
        <pt x="304" y="1819" on="1"/>
        <pt x="334" y="1884" on="0"/>
        <pt x="389" y="1977" on="0"/>
        <pt x="447" y="2037" on="0"/>
        <pt x="514" y="2065" on="0"/>
        <pt x="557" y="2065" on="1"/>
        <pt x="633" y="2065" on="0"/>
        <pt x="721" y="1954" on="0"/>
        <pt x="721" y="1826" on="1"/>
        <pt x="721" y="359" on="1"/>
        <pt x="726" y="361" on="0"/>
        <pt x="757" y="363" on="0"/>
        <pt x="770" y="363" on="1"/>
        <pt x="859" y="363" on="0"/>
        <pt x="960" y="264" on="0"/>
        <pt x="960" y="173" on="1"/>
        <pt x="960" y="83" on="0"/>
        <pt x="854" y="-18" on="0"/>
        <pt x="757" y="-18" on="1"/>
        <pt x="658" y="-18" on="0"/>
        <pt x="553" y="83" on="0"/>
        <pt x="553" y="173" on="1"/>
        <pt x="553" y="1833" on="1"/>
        <pt x="553" y="1888" on="0"/>
        <pt x="538" y="1931" on="0"/>
        <pt x="521" y="1931" on="1"/>
        <pt x="513" y="1931" on="0"/>
        <pt x="496" y="1924" on="0"/>
        <pt x="475" y="1900" on="0"/>
        <pt x="449" y="1856" on="0"/>
        <pt x="432" y="1819" on="1"/>
        <pt x="255" y="1461" on="1"/>
        <pt x="132" y="1461" on="1"/>
        <pt x="35" y="2065" on="1"/>
        <pt x="190" y="2065" on="1"/>
      </contour>
      <contour>
        <pt x="852" y="173" on="1"/>
        <pt x="852" y="215" on="0"/>
        <pt x="800" y="265" on="0"/>
        <pt x="755" y="265" on="1"/>
        <pt x="714" y="265" on="0"/>
        <pt x="660" y="215" on="0"/>
        <pt x="660" y="173" on="1"/>
        <pt x="660" y="129" on="0"/>
        <pt x="714" y="78" on="0"/>
        <pt x="755" y="78" on="1"/>
        <pt x="800" y="78" on="0"/>
        <pt x="852" y="129" on="0"/>
      </contour>
    </TTGlyph>
    <TTGlyph name="uni0E45" xMin="0" yMin="-520" xMax="830" yMax="1147">
      <contour>
        <pt x="830" y="-520" on="1"/>
        <pt x="662" y="-520" on="1"/>
        <pt x="662" y="729" on="1"/>
        <pt x="662" y="792" on="0"/>
        <pt x="632" y="895" on="0"/>
        <pt x="571" y="969" on="0"/>
        <pt x="478" y="1009" on="0"/>
        <pt x="415" y="1009" on="1"/>
        <pt x="329" y="1009" on="0"/>
        <pt x="155" y="941" on="0"/>
        <pt x="77" y="885" on="1"/>
        <pt x="0" y="1008" on="1"/>
        <pt x="85" y="1070" on="0"/>
        <pt x="289" y="1147" on="0"/>
        <pt x="414" y="1147" on="1"/>
        <pt x="514" y="1147" on="0"/>
        <pt x="669" y="1089" on="0"/>
        <pt x="775" y="981" on="0"/>
        <pt x="830" y="827" on="0"/>
        <pt x="830" y="731" on="1"/>
      </contour>
    </TTGlyph>
    <TTGlyph name="uni0E46" xMin="57" yMin="-520" xMax="850" yMax="1141">
      <contour>
        <pt x="355" y="709" on="1"/>
        <pt x="355" y="743" on="0"/>
        <pt x="311" y="783" on="0"/>
        <pt x="276" y="783" on="1"/>
        <pt x="243" y="783" on="0"/>
        <pt x="200" y="743" on="0"/>
        <pt x="200" y="709" on="1"/>
        <pt x="200" y="674" on="0"/>
        <pt x="243" y="632" on="0"/>
        <pt x="276" y="632" on="1"/>
        <pt x="311" y="632" on="0"/>
        <pt x="355" y="674" on="0"/>
      </contour>
      <contour>
        <pt x="682" y="831" on="1"/>
        <pt x="682" y="852" on="0"/>
        <pt x="675" y="905" on="0"/>
        <pt x="654" y="956" on="0"/>
        <pt x="613" y="997" on="0"/>
        <pt x="578" y="1005" on="1"/>
        <pt x="434" y="878" on="1"/>
        <pt x="289" y="1007" on="1"/>
        <pt x="252" y="998" on="0"/>
        <pt x="209" y="955" on="0"/>
        <pt x="186" y="901" on="0"/>
        <pt x="180" y="846" on="0"/>
        <pt x="180" y="825" on="1"/>
        <pt x="199" y="848" on="0"/>
        <pt x="262" y="879" on="0"/>
        <pt x="299" y="879" on="1"/>
        <pt x="331" y="879" on="0"/>
        <pt x="390" y="859" on="0"/>
        <pt x="435" y="817" on="0"/>
        <pt x="461" y="753" on="0"/>
        <pt x="461" y="709" on="1"/>
        <pt x="461" y="667" on="0"/>
        <pt x="433" y="604" on="0"/>
        <pt x="385" y="561" on="0"/>
        <pt x="318" y="539" on="0"/>
        <pt x="279" y="539" on="1"/>
        <pt x="222" y="539" on="0"/>
        <pt x="138" y="581" on="0"/>
        <pt x="84" y="653" on="0"/>
        <pt x="57" y="751" on="0"/>
        <pt x="57" y="807" on="1"/>
        <pt x="57" y="864" on="0"/>
        <pt x="84" y="973" on="0"/>
        <pt x="143" y="1064" on="0"/>
        <pt x="235" y="1129" on="0"/>
        <pt x="299" y="1141" on="1"/>
        <pt x="434" y="1018" on="1"/>
        <pt x="569" y="1141" on="1"/>
        <pt x="648" y="1131" on="0"/>
        <pt x="756" y="1071" on="0"/>
        <pt x="822" y="986" on="0"/>
        <pt x="850" y="883" on="0"/>
        <pt x="850" y="829" on="1"/>
        <pt x="850" y="-520" on="1"/>
        <pt x="682" y="-520" on="1"/>
      </contour>
    </TTGlyph>
    <TTGlyph name="uni0E47" xMin="-861" yMin="1221" xMax="-112" yMax="1695">
      <contour>
        <pt x="-230" y="1342" on="1"/>
        <pt x="-279" y="1342" on="0"/>
        <pt x="-326" y="1399" on="0"/>
        <pt x="-326" y="1435" on="1"/>
        <pt x="-326" y="1470" on="0"/>
        <pt x="-280" y="1524" on="0"/>
        <pt x="-232" y="1524" on="1"/>
        <pt x="-123" y="1524" on="0"/>
        <pt x="-123" y="1401" on="1"/>
        <pt x="-123" y="1369" on="0"/>
        <pt x="-142" y="1304" on="0"/>
        <pt x="-181" y="1253" on="0"/>
        <pt x="-242" y="1221" on="0"/>
        <pt x="-283" y="1221" on="1"/>
        <pt x="-327" y="1221" on="0"/>
        <pt x="-402" y="1254" on="0"/>
        <pt x="-465" y="1298" on="0"/>
        <pt x="-516" y="1340" on="0"/>
        <pt x="-536" y="1349" on="1"/>
        <pt x="-559" y="1315" on="0"/>
        <pt x="-613" y="1249" on="0"/>
        <pt x="-639" y="1221" on="1"/>
        <pt x="-689" y="1227" on="0"/>
        <pt x="-771" y="1262" on="0"/>
        <pt x="-829" y="1320" on="0"/>
        <pt x="-861" y="1401" on="0"/>
        <pt x="-861" y="1453" on="1"/>
        <pt x="-861" y="1558" on="0"/>
        <pt x="-732" y="1661" on="0"/>
        <pt x="-623" y="1661" on="1"/>
        <pt x="-349" y="1661" on="1"/>
        <pt x="-312" y="1661" on="0"/>
        <pt x="-241" y="1665" on="0"/>
        <pt x="-178" y="1674" on="0"/>
        <pt x="-127" y="1687" on="0"/>
        <pt x="-112" y="1695" on="1"/>
        <pt x="-112" y="1596" on="1"/>
        <pt x="-144" y="1576" on="0"/>
        <pt x="-246" y="1563" on="0"/>
        <pt x="-307" y="1563" on="1"/>
        <pt x="-622" y="1563" on="1"/>
        <pt x="-655" y="1563" on="0"/>
        <pt x="-700" y="1544" on="0"/>
        <pt x="-727" y="1514" on="0"/>
        <pt x="-739" y="1474" on="0"/>
        <pt x="-739" y="1453" on="1"/>
        <pt x="-739" y="1357" on="0"/>
        <pt x="-666" y="1334" on="1"/>
        <pt x="-641" y="1353" on="0"/>
        <pt x="-590" y="1425" on="0"/>
        <pt x="-566" y="1465" on="1"/>
        <pt x="-527" y="1455" on="0"/>
        <pt x="-453" y="1407" on="0"/>
        <pt x="-384" y="1357" on="0"/>
        <pt x="-321" y="1320" on="0"/>
        <pt x="-292" y="1320" on="1"/>
        <pt x="-266" y="1320" on="0"/>
        <pt x="-235" y="1336" on="0"/>
      </contour>
      <contour>
        <pt x="-265" y="1433" on="1"/>
        <pt x="-265" y="1416" on="0"/>
        <pt x="-244" y="1396" on="0"/>
        <pt x="-226" y="1396" on="1"/>
        <pt x="-210" y="1396" on="0"/>
        <pt x="-189" y="1416" on="0"/>
        <pt x="-189" y="1433" on="1"/>
        <pt x="-189" y="1451" on="0"/>
        <pt x="-210" y="1472" on="0"/>
        <pt x="-226" y="1472" on="1"/>
        <pt x="-244" y="1472" on="0"/>
        <pt x="-265" y="1451" on="0"/>
      </contour>
    </TTGlyph>
    <TTGlyph name="uni0E48" xMin="-334" yMin="1221" xMax="-200" yMax="1583">
      <contour>
        <pt x="-334" y="1583" on="1"/>
        <pt x="-200" y="1583" on="1"/>
        <pt x="-200" y="1221" on="1"/>
        <pt x="-334" y="1221" on="1"/>
      </contour>
    </TTGlyph>
    <TTGlyph name="uni0E48.small" xMin="-342" yMin="1776" xMax="-208" yMax="2138">
      <contour>
        <pt x="-342" y="2138" on="1"/>
        <pt x="-208" y="2138" on="1"/>
        <pt x="-208" y="1776" on="1"/>
        <pt x="-342" y="1776" on="1"/>
      </contour>
    </TTGlyph>
    <TTGlyph name="uni0E49" xMin="-734" yMin="1221" xMax="-87" yMax="1661">
      <contour>
        <pt x="-441" y="1503" on="1"/>
        <pt x="-441" y="1441" on="0"/>
        <pt x="-498" y="1348" on="0"/>
        <pt x="-549" y="1317" on="1"/>
        <pt x="-444" y="1318" on="0"/>
        <pt x="-313" y="1356" on="0"/>
        <pt x="-240" y="1439" on="0"/>
        <pt x="-215" y="1569" on="0"/>
        <pt x="-215" y="1661" on="1"/>
        <pt x="-87" y="1661" on="1"/>
        <pt x="-87" y="1550" on="0"/>
        <pt x="-114" y="1384" on="0"/>
        <pt x="-207" y="1275" on="0"/>
        <pt x="-388" y="1221" on="0"/>
        <pt x="-542" y="1221" on="1"/>
        <pt x="-653" y="1221" on="1"/>
        <pt x="-653" y="1319" on="1"/>
        <pt x="-634" y="1332" on="0"/>
        <pt x="-591" y="1365" on="0"/>
        <pt x="-554" y="1401" on="0"/>
        <pt x="-530" y="1437" on="0"/>
        <pt x="-530" y="1453" on="1"/>
        <pt x="-544" y="1435" on="0"/>
        <pt x="-589" y="1413" on="0"/>
        <pt x="-617" y="1413" on="1"/>
        <pt x="-641" y="1413" on="0"/>
        <pt x="-683" y="1428" on="0"/>
        <pt x="-715" y="1458" on="0"/>
        <pt x="-734" y="1504" on="0"/>
        <pt x="-734" y="1536" on="1"/>
        <pt x="-734" y="1597" on="0"/>
        <pt x="-659" y="1661" on="0"/>
        <pt x="-602" y="1661" on="1"/>
        <pt x="-560" y="1661" on="0"/>
        <pt x="-499" y="1636" on="0"/>
        <pt x="-460" y="1593" on="0"/>
        <pt x="-441" y="1535" on="0"/>
      </contour>
      <contour>
        <pt x="-653" y="1538" on="1"/>
        <pt x="-653" y="1516" on="0"/>
        <pt x="-622" y="1487" on="0"/>
        <pt x="-601" y="1487" on="1"/>
        <pt x="-580" y="1487" on="0"/>
        <pt x="-550" y="1516" on="0"/>
        <pt x="-550" y="1538" on="1"/>
        <pt x="-550" y="1560" on="0"/>
        <pt x="-580" y="1590" on="0"/>
        <pt x="-601" y="1590" on="1"/>
        <pt x="-622" y="1590" on="0"/>
        <pt x="-653" y="1560" on="0"/>
      </contour>
    </TTGlyph>
    <TTGlyph name="uni0E49.small" xMin="-701" yMin="1775" xMax="-77" yMax="2163">
      <contour>
        <pt x="-417" y="2028" on="1"/>
        <pt x="-417" y="2003" on="0"/>
        <pt x="-439" y="1955" on="0"/>
        <pt x="-471" y="1913" on="0"/>
        <pt x="-506" y="1881" on="0"/>
        <pt x="-519" y="1871" on="1"/>
        <pt x="-421" y="1872" on="0"/>
        <pt x="-305" y="1904" on="0"/>
        <pt x="-243" y="1974" on="0"/>
        <pt x="-225" y="2084" on="0"/>
        <pt x="-225" y="2163" on="1"/>
        <pt x="-77" y="2163" on="1"/>
        <pt x="-77" y="2066" on="0"/>
        <pt x="-106" y="1923" on="0"/>
        <pt x="-197" y="1826" on="0"/>
        <pt x="-369" y="1775" on="0"/>
        <pt x="-512" y="1775" on="1"/>
        <pt x="-623" y="1775" on="1"/>
        <pt x="-623" y="1873" on="1"/>
        <pt x="-604" y="1882" on="0"/>
        <pt x="-567" y="1907" on="0"/>
        <pt x="-537" y="1934" on="0"/>
        <pt x="-519" y="1966" on="0"/>
        <pt x="-519" y="1983" on="1"/>
        <pt x="-539" y="1969" on="0"/>
        <pt x="-584" y="1953" on="0"/>
        <pt x="-612" y="1953" on="1"/>
        <pt x="-653" y="1953" on="0"/>
        <pt x="-701" y="2009" on="0"/>
        <pt x="-701" y="2057" on="1"/>
        <pt x="-701" y="2106" on="0"/>
        <pt x="-644" y="2163" on="0"/>
        <pt x="-576" y="2163" on="1"/>
        <pt x="-534" y="2163" on="0"/>
        <pt x="-473" y="2141" on="0"/>
        <pt x="-435" y="2103" on="0"/>
        <pt x="-417" y="2054" on="0"/>
      </contour>
      <contour>
        <pt x="-622" y="2058" on="1"/>
        <pt x="-622" y="2039" on="0"/>
        <pt x="-599" y="2017" on="0"/>
        <pt x="-579" y="2017" on="1"/>
        <pt x="-561" y="2017" on="0"/>
        <pt x="-538" y="2039" on="0"/>
        <pt x="-538" y="2058" on="1"/>
        <pt x="-538" y="2078" on="0"/>
        <pt x="-561" y="2101" on="0"/>
        <pt x="-579" y="2101" on="1"/>
        <pt x="-622" y="2101" on="0"/>
      </contour>
    </TTGlyph>
    <TTGlyph name="uni0E4A" xMin="-888" yMin="1221" xMax="-87" yMax="1661">
      <contour>
        <pt x="-341" y="1445" on="1"/>
        <pt x="-341" y="1403" on="0"/>
        <pt x="-362" y="1332" on="0"/>
        <pt x="-369" y="1317" on="1"/>
        <pt x="-332" y="1327" on="0"/>
        <pt x="-274" y="1372" on="0"/>
        <pt x="-235" y="1453" on="0"/>
        <pt x="-215" y="1575" on="0"/>
        <pt x="-215" y="1661" on="1"/>
        <pt x="-87" y="1661" on="1"/>
        <pt x="-87" y="1550" on="0"/>
        <pt x="-120" y="1384" on="0"/>
        <pt x="-210" y="1275" on="0"/>
        <pt x="-368" y="1221" on="0"/>
        <pt x="-493" y="1221" on="1"/>
        <pt x="-480" y="1246" on="0"/>
        <pt x="-461" y="1301" on="0"/>
        <pt x="-448" y="1355" on="0"/>
        <pt x="-442" y="1405" on="0"/>
        <pt x="-442" y="1424" on="1"/>
        <pt x="-442" y="1439" on="0"/>
        <pt x="-447" y="1479" on="0"/>
        <pt x="-462" y="1518" on="0"/>
        <pt x="-488" y="1548" on="0"/>
        <pt x="-508" y="1553" on="1"/>
        <pt x="-613" y="1461" on="1"/>
        <pt x="-720" y="1555" on="1"/>
        <pt x="-747" y="1549" on="0"/>
        <pt x="-778" y="1519" on="0"/>
        <pt x="-795" y="1483" on="0"/>
        <pt x="-799" y="1445" on="0"/>
        <pt x="-799" y="1429" on="1"/>
        <pt x="-785" y="1447" on="0"/>
        <pt x="-739" y="1469" on="0"/>
        <pt x="-712" y="1469" on="1"/>
        <pt x="-688" y="1469" on="0"/>
        <pt x="-646" y="1454" on="0"/>
        <pt x="-614" y="1423" on="0"/>
        <pt x="-595" y="1377" on="0"/>
        <pt x="-595" y="1346" on="1"/>
        <pt x="-595" y="1285" on="0"/>
        <pt x="-670" y="1221" on="0"/>
        <pt x="-727" y="1221" on="1"/>
        <pt x="-769" y="1221" on="0"/>
        <pt x="-829" y="1253" on="0"/>
        <pt x="-869" y="1308" on="0"/>
        <pt x="-888" y="1381" on="0"/>
        <pt x="-888" y="1422" on="1"/>
        <pt x="-888" y="1463" on="0"/>
        <pt x="-868" y="1541" on="0"/>
        <pt x="-826" y="1605" on="0"/>
        <pt x="-759" y="1652" on="0"/>
        <pt x="-712" y="1661" on="1"/>
        <pt x="-613" y="1571" on="1"/>
        <pt x="-515" y="1661" on="1"/>
        <pt x="-474" y="1652" on="0"/>
        <pt x="-410" y="1610" on="0"/>
        <pt x="-365" y="1552" on="0"/>
        <pt x="-341" y="1483" on="0"/>
      </contour>
      <contour>
        <pt x="-676" y="1346" on="1"/>
        <pt x="-676" y="1368" on="0"/>
        <pt x="-706" y="1394" on="0"/>
        <pt x="-729" y="1394" on="1"/>
        <pt x="-750" y="1394" on="0"/>
        <pt x="-779" y="1368" on="0"/>
        <pt x="-779" y="1346" on="1"/>
        <pt x="-779" y="1322" on="0"/>
        <pt x="-750" y="1294" on="0"/>
        <pt x="-729" y="1294" on="1"/>
        <pt x="-706" y="1294" on="0"/>
        <pt x="-676" y="1322" on="0"/>
      </contour>
    </TTGlyph>
    <TTGlyph name="uni0E4A.small" xMin="-868" yMin="1770" xMax="-77" yMax="2163">
      <contour>
        <pt x="-351" y="1980" on="1"/>
        <pt x="-351" y="1944" on="0"/>
        <pt x="-372" y="1884" on="0"/>
        <pt x="-379" y="1871" on="1"/>
        <pt x="-342" y="1879" on="0"/>
        <pt x="-284" y="1918" on="0"/>
        <pt x="-245" y="1986" on="0"/>
        <pt x="-225" y="2089" on="0"/>
        <pt x="-225" y="2163" on="1"/>
        <pt x="-77" y="2163" on="1"/>
        <pt x="-77" y="2064" on="0"/>
        <pt x="-116" y="1919" on="0"/>
        <pt x="-214" y="1823" on="0"/>
        <pt x="-378" y="1775" on="0"/>
        <pt x="-503" y="1775" on="1"/>
        <pt x="-490" y="1798" on="0"/>
        <pt x="-471" y="1849" on="0"/>
        <pt x="-458" y="1899" on="0"/>
        <pt x="-452" y="1945" on="0"/>
        <pt x="-452" y="1963" on="1"/>
        <pt x="-452" y="1981" on="0"/>
        <pt x="-457" y="2020" on="0"/>
        <pt x="-472" y="2054" on="0"/>
        <pt x="-498" y="2080" on="0"/>
        <pt x="-518" y="2085" on="1"/>
        <pt x="-608" y="2015" on="1"/>
        <pt x="-700" y="2087" on="1"/>
        <pt x="-727" y="2082" on="0"/>
        <pt x="-758" y="2055" on="0"/>
        <pt x="-775" y="2021" on="0"/>
        <pt x="-779" y="1984" on="0"/>
        <pt x="-779" y="1968" on="1"/>
        <pt x="-765" y="1986" on="0"/>
        <pt x="-719" y="2008" on="0"/>
        <pt x="-692" y="2008" on="1"/>
        <pt x="-668" y="2008" on="0"/>
        <pt x="-626" y="1994" on="0"/>
        <pt x="-594" y="1964" on="0"/>
        <pt x="-575" y="1920" on="0"/>
        <pt x="-575" y="1890" on="1"/>
        <pt x="-575" y="1831" on="0"/>
        <pt x="-650" y="1770" on="0"/>
        <pt x="-707" y="1770" on="1"/>
        <pt x="-749" y="1770" on="0"/>
        <pt x="-809" y="1798" on="0"/>
        <pt x="-849" y="1848" on="0"/>
        <pt x="-868" y="1912" on="0"/>
        <pt x="-868" y="1949" on="1"/>
        <pt x="-868" y="1986" on="0"/>
        <pt x="-848" y="2056" on="0"/>
        <pt x="-806" y="2112" on="0"/>
        <pt x="-739" y="2155" on="0"/>
        <pt x="-692" y="2163" on="1"/>
        <pt x="-608" y="2098" on="1"/>
        <pt x="-525" y="2163" on="1"/>
        <pt x="-481" y="2155" on="0"/>
        <pt x="-416" y="2119" on="0"/>
        <pt x="-372" y="2070" on="0"/>
        <pt x="-351" y="2011" on="0"/>
      </contour>
      <contour>
        <pt x="-656" y="1892" on="1"/>
        <pt x="-656" y="1913" on="0"/>
        <pt x="-686" y="1938" on="0"/>
        <pt x="-709" y="1938" on="1"/>
        <pt x="-730" y="1938" on="0"/>
        <pt x="-759" y="1913" on="0"/>
        <pt x="-759" y="1892" on="1"/>
        <pt x="-759" y="1870" on="0"/>
        <pt x="-730" y="1843" on="0"/>
        <pt x="-709" y="1843" on="1"/>
        <pt x="-686" y="1843" on="0"/>
        <pt x="-656" y="1870" on="0"/>
      </contour>
    </TTGlyph>
    <TTGlyph name="uni0E4B" xMin="-448" yMin="1221" xMax="-86" yMax="1583">
      <contour>
        <pt x="-448" y="1352" on="1"/>
        <pt x="-448" y="1452" on="1"/>
        <pt x="-317" y="1452" on="1"/>
        <pt x="-317" y="1583" on="1"/>
        <pt x="-217" y="1583" on="1"/>
        <pt x="-217" y="1452" on="1"/>
        <pt x="-86" y="1452" on="1"/>
        <pt x="-86" y="1352" on="1"/>
        <pt x="-217" y="1352" on="1"/>
        <pt x="-217" y="1221" on="1"/>
        <pt x="-317" y="1221" on="1"/>
        <pt x="-317" y="1352" on="1"/>
      </contour>
    </TTGlyph>
    <TTGlyph name="uni0E4B.small" xMin="-456" yMin="1775" xMax="-94" yMax="2137">
      <contour>
        <pt x="-456" y="1906" on="1"/>
        <pt x="-456" y="2006" on="1"/>
        <pt x="-325" y="2006" on="1"/>
        <pt x="-325" y="2137" on="1"/>
        <pt x="-225" y="2137" on="1"/>
        <pt x="-225" y="2006" on="1"/>
        <pt x="-94" y="2006" on="1"/>
        <pt x="-94" y="1906" on="1"/>
        <pt x="-225" y="1906" on="1"/>
        <pt x="-225" y="1775" on="1"/>
        <pt x="-325" y="1775" on="1"/>
        <pt x="-325" y="1906" on="1"/>
      </contour>
    </TTGlyph>
    <TTGlyph name="uni0E4C" xMin="-833" yMin="1223" xMax="-18" yMax="1744">
      <contour>
        <pt x="-461" y="1384" on="1"/>
        <pt x="-461" y="1312" on="0"/>
        <pt x="-558" y="1223" on="0"/>
        <pt x="-646" y="1223" on="1"/>
        <pt x="-732" y="1223" on="0"/>
        <pt x="-833" y="1315" on="0"/>
        <pt x="-833" y="1395" on="1"/>
        <pt x="-833" y="1439" on="0"/>
        <pt x="-802" y="1505" on="0"/>
        <pt x="-732" y="1553" on="0"/>
        <pt x="-616" y="1583" on="0"/>
        <pt x="-532" y="1590" on="1"/>
        <pt x="-421" y="1600" on="0"/>
        <pt x="-282" y="1625" on="0"/>
        <pt x="-203" y="1661" on="0"/>
        <pt x="-171" y="1711" on="0"/>
        <pt x="-165" y="1744" on="1"/>
        <pt x="-18" y="1744" on="1"/>
        <pt x="-27" y="1690" on="0"/>
        <pt x="-62" y="1610" on="0"/>
        <pt x="-130" y="1556" on="0"/>
        <pt x="-237" y="1523" on="0"/>
        <pt x="-319" y="1515" on="1"/>
        <pt x="-366" y="1511" on="0"/>
        <pt x="-431" y="1504" on="0"/>
        <pt x="-473" y="1498" on="0"/>
        <pt x="-498" y="1493" on="0"/>
        <pt x="-505" y="1490" on="1"/>
        <pt x="-490" y="1477" on="0"/>
        <pt x="-461" y="1426" on="0"/>
      </contour>
      <contour>
        <pt x="-732" y="1396" on="1"/>
        <pt x="-732" y="1357" on="0"/>
        <pt x="-685" y="1312" on="0"/>
        <pt x="-646" y="1312" on="1"/>
        <pt x="-610" y="1312" on="0"/>
        <pt x="-562" y="1357" on="0"/>
        <pt x="-562" y="1396" on="1"/>
        <pt x="-562" y="1434" on="0"/>
        <pt x="-610" y="1479" on="0"/>
        <pt x="-646" y="1479" on="1"/>
        <pt x="-685" y="1479" on="0"/>
        <pt x="-732" y="1434" on="0"/>
      </contour>
    </TTGlyph>
    <TTGlyph name="uni0E4C.small" xMin="-810" yMin="1764" xMax="5" yMax="2163">
      <contour>
        <pt x="-438" y="1917" on="1"/>
        <pt x="-438" y="1849" on="0"/>
        <pt x="-535" y="1764" on="0"/>
        <pt x="-623" y="1764" on="1"/>
        <pt x="-709" y="1764" on="0"/>
        <pt x="-810" y="1856" on="0"/>
        <pt x="-810" y="1936" on="1"/>
        <pt x="-810" y="1980" on="0"/>
        <pt x="-779" y="2046" on="0"/>
        <pt x="-709" y="2094" on="0"/>
        <pt x="-593" y="2105" on="0"/>
        <pt x="-509" y="2107" on="1"/>
        <pt x="-398" y="2111" on="0"/>
        <pt x="-259" y="2120" on="0"/>
        <pt x="-180" y="2133" on="0"/>
        <pt x="-148" y="2151" on="0"/>
        <pt x="-142" y="2163" on="1"/>
        <pt x="5" y="2163" on="1"/>
        <pt x="-4" y="2132" on="0"/>
        <pt x="-39" y="2086" on="0"/>
        <pt x="-107" y="2056" on="0"/>
        <pt x="-214" y="2037" on="0"/>
        <pt x="-296" y="2032" on="1"/>
        <pt x="-343" y="2030" on="0"/>
        <pt x="-408" y="2026" on="0"/>
        <pt x="-450" y="2022" on="0"/>
        <pt x="-475" y="2020" on="0"/>
        <pt x="-482" y="2018" on="1"/>
        <pt x="-467" y="2006" on="0"/>
        <pt x="-438" y="1957" on="0"/>
      </contour>
      <contour>
        <pt x="-709" y="1937" on="1"/>
        <pt x="-709" y="1898" on="0"/>
        <pt x="-662" y="1853" on="0"/>
        <pt x="-623" y="1853" on="1"/>
        <pt x="-587" y="1853" on="0"/>
        <pt x="-539" y="1898" on="0"/>
        <pt x="-539" y="1937" on="1"/>
        <pt x="-539" y="1975" on="0"/>
        <pt x="-587" y="2020" on="0"/>
        <pt x="-623" y="2020" on="1"/>
        <pt x="-662" y="2020" on="0"/>
        <pt x="-709" y="1975" on="0"/>
      </contour>
    </TTGlyph>
    <TTGlyph name="uni0E4D" xMin="-461" yMin="1230" xMax="-93" yMax="1574">
      <contour>
        <pt x="-461" y="1402" on="1"/>
        <pt x="-461" y="1483" on="0"/>
        <pt x="-366" y="1574" on="0"/>
        <pt x="-278" y="1574" on="1"/>
        <pt x="-189" y="1574" on="0"/>
        <pt x="-93" y="1483" on="0"/>
        <pt x="-93" y="1402" on="1"/>
        <pt x="-93" y="1321" on="0"/>
        <pt x="-189" y="1230" on="0"/>
        <pt x="-278" y="1230" on="1"/>
        <pt x="-366" y="1230" on="0"/>
        <pt x="-461" y="1321" on="0"/>
      </contour>
      <contour>
        <pt x="-363" y="1402" on="1"/>
        <pt x="-363" y="1364" on="0"/>
        <pt x="-315" y="1318" on="0"/>
        <pt x="-276" y="1318" on="1"/>
        <pt x="-240" y="1318" on="0"/>
        <pt x="-191" y="1364" on="0"/>
        <pt x="-191" y="1402" on="1"/>
        <pt x="-191" y="1441" on="0"/>
        <pt x="-240" y="1487" on="0"/>
        <pt x="-276" y="1487" on="1"/>
        <pt x="-315" y="1487" on="0"/>
        <pt x="-363" y="1441" on="0"/>
      </contour>
    </TTGlyph>
    <TTGlyph name="uni0E4E" xMin="-495" yMin="1222" xMax="-86" yMax="1698">
      <contour>
        <pt x="-194" y="1424" on="1"/>
        <pt x="-236" y="1424" on="0"/>
        <pt x="-305" y="1421" on="0"/>
        <pt x="-355" y="1410" on="0"/>
        <pt x="-383" y="1387" on="0"/>
        <pt x="-383" y="1367" on="1"/>
        <pt x="-383" y="1341" on="0"/>
        <pt x="-334" y="1312" on="0"/>
        <pt x="-284" y="1312" on="1"/>
        <pt x="-240" y="1312" on="0"/>
        <pt x="-161" y="1329" on="0"/>
        <pt x="-137" y="1339" on="1"/>
        <pt x="-137" y="1246" on="1"/>
        <pt x="-159" y="1238" on="0"/>
        <pt x="-238" y="1222" on="0"/>
        <pt x="-286" y="1222" on="1"/>
        <pt x="-386" y="1222" on="0"/>
        <pt x="-495" y="1295" on="0"/>
        <pt x="-495" y="1360" on="1"/>
        <pt x="-495" y="1410" on="0"/>
        <pt x="-408" y="1472" on="0"/>
        <pt x="-331" y="1472" on="1"/>
        <pt x="-344" y="1476" on="0"/>
        <pt x="-376" y="1493" on="0"/>
        <pt x="-403" y="1519" on="0"/>
        <pt x="-422" y="1554" on="0"/>
        <pt x="-422" y="1577" on="1"/>
        <pt x="-422" y="1611" on="0"/>
        <pt x="-389" y="1657" on="0"/>
        <pt x="-335" y="1686" on="0"/>
        <pt x="-265" y="1698" on="0"/>
        <pt x="-229" y="1698" on="1"/>
        <pt x="-194" y="1698" on="0"/>
        <pt x="-114" y="1682" on="0"/>
        <pt x="-86" y="1668" on="1"/>
        <pt x="-120" y="1583" on="1"/>
        <pt x="-135" y="1591" on="0"/>
        <pt x="-190" y="1607" on="0"/>
        <pt x="-228" y="1607" on="1"/>
        <pt x="-272" y="1607" on="0"/>
        <pt x="-317" y="1578" on="0"/>
        <pt x="-317" y="1559" on="1"/>
        <pt x="-317" y="1527" on="0"/>
        <pt x="-253" y="1510" on="0"/>
        <pt x="-194" y="1510" on="1"/>
      </contour>
    </TTGlyph>
    <TTGlyph name="uni0E4F" xMin="75" yMin="-20" xMax="1243" yMax="1148">
      <contour>
        <pt x="75" y="564" on="1"/>
        <pt x="75" y="685" on="0"/>
        <pt x="167" y="897" on="0"/>
        <pt x="326" y="1056" on="0"/>
        <pt x="538" y="1148" on="0"/>
        <pt x="659" y="1148" on="1"/>
        <pt x="780" y="1148" on="0"/>
        <pt x="992" y="1056" on="0"/>
        <pt x="1151" y="897" on="0"/>
        <pt x="1243" y="685" on="0"/>
        <pt x="1243" y="564" on="1"/>
        <pt x="1243" y="443" on="0"/>
        <pt x="1151" y="231" on="0"/>
        <pt x="992" y="72" on="0"/>
        <pt x="780" y="-20" on="0"/>
        <pt x="659" y="-20" on="1"/>
        <pt x="538" y="-20" on="0"/>
        <pt x="326" y="72" on="0"/>
        <pt x="167" y="231" on="0"/>
        <pt x="75" y="443" on="0"/>
      </contour>
      <contour>
        <pt x="219" y="564" on="1"/>
        <pt x="219" y="473" on="0"/>
        <pt x="288" y="313" on="0"/>
        <pt x="408" y="193" on="0"/>
        <pt x="568" y="124" on="0"/>
        <pt x="659" y="124" on="1"/>
        <pt x="750" y="124" on="0"/>
        <pt x="910" y="193" on="0"/>
        <pt x="1030" y="313" on="0"/>
        <pt x="1099" y="473" on="0"/>
        <pt x="1099" y="564" on="1"/>
        <pt x="1099" y="655" on="0"/>
        <pt x="1030" y="815" on="0"/>
        <pt x="910" y="935" on="0"/>
        <pt x="750" y="1004" on="0"/>
        <pt x="659" y="1004" on="1"/>
        <pt x="568" y="1004" on="0"/>
        <pt x="408" y="935" on="0"/>
        <pt x="288" y="815" on="0"/>
        <pt x="219" y="655" on="0"/>
      </contour>
      <contour>
        <pt x="457" y="564" on="1"/>
        <pt x="457" y="606" on="0"/>
        <pt x="489" y="680" on="0"/>
        <pt x="543" y="735" on="0"/>
        <pt x="617" y="767" on="0"/>
        <pt x="659" y="767" on="1"/>
        <pt x="701" y="767" on="0"/>
        <pt x="775" y="735" on="0"/>
        <pt x="830" y="680" on="0"/>
        <pt x="862" y="606" on="0"/>
        <pt x="862" y="564" on="1"/>
        <pt x="862" y="522" on="0"/>
        <pt x="830" y="448" on="0"/>
        <pt x="775" y="394" on="0"/>
        <pt x="701" y="362" on="0"/>
        <pt x="659" y="362" on="1"/>
        <pt x="617" y="362" on="0"/>
        <pt x="543" y="394" on="0"/>
        <pt x="489" y="448" on="0"/>
        <pt x="457" y="522" on="0"/>
      </contour>
    </TTGlyph>
    <TTGlyph name="uni0E50" xMin="131" yMin="-20" xMax="1228" yMax="930">
      <contour>
        <pt x="678" y="113" on="1"/>
        <pt x="761" y="113" on="0"/>
        <pt x="902" y="158" on="0"/>
        <pt x="1005" y="246" on="0"/>
        <pt x="1063" y="374" on="0"/>
        <pt x="1063" y="457" on="1"/>
        <pt x="1063" y="540" on="0"/>
        <pt x="1005" y="667" on="0"/>
        <pt x="902" y="753" on="0"/>
        <pt x="761" y="798" on="0"/>
        <pt x="678" y="798" on="1"/>
        <pt x="597" y="798" on="0"/>
        <pt x="457" y="753" on="0"/>
        <pt x="354" y="667" on="0"/>
        <pt x="296" y="540" on="0"/>
        <pt x="296" y="457" on="1"/>
        <pt x="296" y="374" on="0"/>
        <pt x="354" y="246" on="0"/>
        <pt x="457" y="158" on="0"/>
        <pt x="597" y="113" on="0"/>
      </contour>
      <contour>
        <pt x="678" y="-20" on="1"/>
        <pt x="554" y="-20" on="0"/>
        <pt x="352" y="45" on="0"/>
        <pt x="209" y="168" on="0"/>
        <pt x="131" y="344" on="0"/>
        <pt x="131" y="455" on="1"/>
        <pt x="131" y="568" on="0"/>
        <pt x="209" y="744" on="0"/>
        <pt x="353" y="866" on="0"/>
        <pt x="555" y="930" on="0"/>
        <pt x="678" y="930" on="1"/>
        <pt x="803" y="930" on="0"/>
        <pt x="1006" y="866" on="0"/>
        <pt x="1150" y="744" on="0"/>
        <pt x="1228" y="568" on="0"/>
        <pt x="1228" y="455" on="1"/>
        <pt x="1228" y="344" on="0"/>
        <pt x="1150" y="168" on="0"/>
        <pt x="1006" y="45" on="0"/>
        <pt x="803" y="-20" on="0"/>
      </contour>
    </TTGlyph>
    <TTGlyph name="uni0E51" xMin="132" yMin="-18" xMax="1228" yMax="930">
      <contour>
        <pt x="569" y="420" on="1"/>
        <pt x="569" y="386" on="0"/>
        <pt x="613" y="346" on="0"/>
        <pt x="648" y="346" on="1"/>
        <pt x="681" y="346" on="0"/>
        <pt x="724" y="386" on="0"/>
        <pt x="724" y="420" on="1"/>
        <pt x="724" y="455" on="0"/>
        <pt x="681" y="497" on="0"/>
        <pt x="648" y="497" on="1"/>
        <pt x="613" y="497" on="0"/>
        <pt x="569" y="455" on="0"/>
      </contour>
      <contour>
        <pt x="1228" y="401" on="1"/>
        <pt x="1228" y="327" on="0"/>
        <pt x="1199" y="205" on="0"/>
        <pt x="1150" y="106" on="0"/>
        <pt x="1085" y="27" on="0"/>
        <pt x="1049" y="-5" on="1"/>
        <pt x="948" y="101" on="1"/>
        <pt x="972" y="124" on="0"/>
        <pt x="1016" y="186" on="0"/>
        <pt x="1049" y="263" on="0"/>
        <pt x="1069" y="350" on="0"/>
        <pt x="1069" y="396" on="1"/>
        <pt x="1069" y="489" on="0"/>
        <pt x="1006" y="638" on="0"/>
        <pt x="899" y="742" on="0"/>
        <pt x="758" y="798" on="0"/>
        <pt x="680" y="798" on="1"/>
        <pt x="601" y="798" on="0"/>
        <pt x="461" y="747" on="0"/>
        <pt x="355" y="650" on="0"/>
        <pt x="293" y="510" on="0"/>
        <pt x="293" y="420" on="1"/>
        <pt x="293" y="342" on="0"/>
        <pt x="336" y="224" on="0"/>
        <pt x="405" y="145" on="0"/>
        <pt x="495" y="104" on="0"/>
        <pt x="541" y="104" on="1"/>
        <pt x="588" y="104" on="0"/>
        <pt x="663" y="134" on="0"/>
        <pt x="715" y="188" on="0"/>
        <pt x="744" y="261" on="0"/>
        <pt x="744" y="304" on="1"/>
        <pt x="725" y="281" on="0"/>
        <pt x="662" y="250" on="0"/>
        <pt x="625" y="250" on="1"/>
        <pt x="593" y="250" on="0"/>
        <pt x="534" y="271" on="0"/>
        <pt x="489" y="313" on="0"/>
        <pt x="463" y="377" on="0"/>
        <pt x="463" y="420" on="1"/>
        <pt x="463" y="462" on="0"/>
        <pt x="491" y="525" on="0"/>
        <pt x="539" y="568" on="0"/>
        <pt x="606" y="590" on="0"/>
        <pt x="645" y="590" on="1"/>
        <pt x="702" y="590" on="0"/>
        <pt x="792" y="550" on="0"/>
        <pt x="854" y="478" on="0"/>
        <pt x="887" y="378" on="0"/>
        <pt x="887" y="318" on="1"/>
        <pt x="887" y="250" on="0"/>
        <pt x="843" y="128" on="0"/>
        <pt x="756" y="36" on="0"/>
        <pt x="626" y="-18" on="0"/>
        <pt x="541" y="-18" on="1"/>
        <pt x="451" y="-18" on="0"/>
        <pt x="301" y="42" on="0"/>
        <pt x="193" y="157" on="0"/>
        <pt x="132" y="323" on="0"/>
        <pt x="132" y="428" on="1"/>
        <pt x="132" y="536" on="0"/>
        <pt x="209" y="720" on="0"/>
        <pt x="351" y="854" on="0"/>
        <pt x="553" y="930" on="0"/>
        <pt x="679" y="930" on="1"/>
        <pt x="801" y="930" on="0"/>
        <pt x="1003" y="852" on="0"/>
        <pt x="1148" y="712" on="0"/>
        <pt x="1228" y="518" on="0"/>
      </contour>
    </TTGlyph>
</ttFont>
